<svg xmlns="http://www.w3.org/2000/svg" xmlns:xlink="http://www.w3.org/1999/xlink" width="500" zoomAndPan="magnify" viewBox="0 0 375 374.999991" height="500" preserveAspectRatio="xMidYMid meet" version="1.0"><defs><g/><clipPath id="93eb80dbc4"><path d="M 86 79 L 289 79 L 289 222.972656 L 86 222.972656 Z M 86 79 " clip-rule="nonzero"/></clipPath><clipPath id="b16b5fe022"><rect x="0" width="225" y="0" height="45"/></clipPath><clipPath id="c22cc35e92"><rect x="0" width="289" y="0" height="33"/></clipPath><clipPath id="fd24197917"><rect x="0" width="90" y="0" height="32"/></clipPath></defs><g clip-path="url(#93eb80dbc4)"><path fill="#1e1e1e" d="M 288.800781 133.296875 C 288.007812 120.671875 278.394531 109.304688 266.253906 106.078125 C 258.457031 103.988281 249.566406 104.871094 242.445312 108.765625 C 242.140625 107.648438 241.773438 106.542969 241.359375 105.464844 C 236.4375 92.417969 223.578125 83.625 210.195312 80.953125 C 207.5625 80.40625 204.898438 80.0625 202.222656 79.882812 C 194.523438 78.988281 187.554688 81.808594 181.136719 85.550781 C 164.429688 95.257812 150.683594 111.796875 130.589844 113.863281 C 130.242188 113.886719 129.949219 114.148438 129.910156 114.515625 C 129.867188 114.90625 130.15625 115.261719 130.554688 115.300781 C 133.945312 115.730469 137.390625 115.609375 140.769531 115.046875 C 150.84375 113.320312 160.050781 107.945312 168.46875 102.636719 C 178.28125 96.785156 189.925781 86.875 201.277344 88.042969 C 215.34375 88.722656 229.75 94.960938 237.066406 107.523438 C 237.746094 108.664062 238.363281 109.847656 238.910156 111.070312 C 237.046875 112.5 235.375 114.191406 233.964844 116.136719 C 232.269531 118.582031 231.1875 121.550781 231.253906 124.480469 C 231.265625 124.789062 231.476562 125.078125 231.796875 125.160156 C 232.183594 125.265625 232.585938 125.03125 232.6875 124.636719 C 233.363281 122.125 234.765625 119.996094 236.546875 118.269531 C 237.761719 117.152344 239.082031 116.171875 240.496094 115.324219 C 241.425781 114.761719 242.398438 114.265625 243.394531 113.824219 C 252.085938 109.96875 262.992188 110.566406 270.777344 115.699219 C 276.1875 119.304688 280.148438 125.136719 281.183594 131.5625 C 281.625 134.597656 281.417969 137.683594 281.105469 140.710938 C 280.125 149.78125 275.59375 158.421875 267.429688 162.652344 C 262.515625 165.257812 257.050781 166.832031 251.496094 167.28125 C 241.027344 168.363281 232.820312 164.390625 223.945312 160.828125 C 230.605469 158.253906 237.074219 153.019531 237.242188 145.503906 C 237.253906 144.710938 236.125 144.492188 235.832031 145.222656 C 233.914062 149.695312 230.332031 152.558594 226.121094 154.675781 C 223.25 156.144531 220.167969 157.078125 217.195312 158.34375 C 217.195312 158.34375 217.195312 158.34375 217.191406 158.34375 C 216.039062 157.96875 214.859375 157.625 213.65625 157.3125 C 210.769531 156.585938 207.859375 156.082031 204.945312 155.769531 C 204.945312 155.769531 204.941406 155.769531 204.941406 155.769531 C 211.066406 151.34375 215.773438 144.398438 217.21875 137.488281 C 218.03125 133.898438 218.21875 129.917969 216.675781 126.492188 C 216.332031 125.722656 215.148438 126.105469 215.300781 126.921875 C 215.800781 130.1875 215.03125 133.46875 213.847656 136.503906 C 210.769531 144.820312 204.015625 151.300781 196.085938 154.992188 C 195.851562 155.117188 195.605469 155.230469 195.363281 155.351562 C 192.066406 155.402344 188.761719 155.644531 185.46875 156.011719 C 185.679688 155.78125 185.886719 155.546875 186.089844 155.308594 C 189.726562 151.070312 192.113281 145.40625 191.835938 139.835938 C 191.820312 139.519531 191.601562 139.238281 191.277344 139.164062 C 190.882812 139.066406 190.484375 139.324219 190.402344 139.722656 C 190.023438 141.320312 189.496094 142.839844 188.835938 144.285156 C 186.839844 148.515625 183.566406 152.085938 179.652344 154.59375 C 169.679688 161.054688 154.679688 159.78125 144.617188 154.203125 C 139.179688 150.964844 135.015625 145.710938 130.464844 141.113281 C 129.898438 140.550781 128.988281 141.167969 129.257812 141.898438 C 130.503906 145.101562 132.011719 148.1875 133.917969 151.160156 C 137.828125 157.417969 143.144531 161.285156 149.625 163.398438 C 149.625 163.398438 149.625 163.398438 149.621094 163.398438 C 147.316406 164.152344 145.058594 165.027344 142.871094 166.074219 C 137.074219 168.765625 131.394531 172.6875 125.039062 172.871094 C 111.078125 174.835938 97.585938 154.816406 94.683594 142.804688 C 92.082031 132.585938 96.632812 121.03125 105.734375 115.523438 C 117.25 108.445312 131.703125 108.699219 144.285156 103.523438 C 150.113281 101.316406 155.089844 97.332031 160.230469 94.003906 C 160.96875 93.523438 160.363281 92.382812 159.539062 92.742188 C 154.050781 95.335938 148.976562 98.671875 143.148438 100.316406 C 134.539062 102.902344 125.191406 103.371094 116.273438 105.347656 C 109.984375 106.695312 103.53125 109.027344 98.4375 113.179688 C 89.675781 120.117188 85.390625 132.011719 87.484375 143.023438 C 89.496094 154.132812 97.578125 166.90625 106.300781 174.058594 C 111.59375 178.445312 118.679688 181.539062 125.824219 180.625 C 127.726562 180.570312 129.570312 180.269531 131.324219 179.820312 C 132.539062 188.496094 133.558594 197.210938 134.222656 205.933594 C 134.644531 211.15625 134.785156 217.414062 134.695312 222.664062 C 134.695312 222.664062 141.113281 219.664062 141.113281 219.664062 C 147.332031 216.804688 154.40625 215.019531 161.214844 213.601562 C 179.925781 209.964844 207.652344 207.367188 225.59375 214.195312 C 225.933594 214.339844 226.335938 214.199219 226.511719 213.863281 C 226.691406 213.507812 226.554688 213.074219 226.199219 212.894531 C 208.339844 204.195312 179.714844 204.328125 160.082031 206.351562 C 154.433594 207.015625 148.910156 207.835938 143.421875 209.273438 C 142.242188 198.511719 140.304688 187.902344 138.207031 177.289062 C 138.207031 177.289062 138.207031 177.289062 138.210938 177.289062 C 142.136719 175.492188 145.699219 173.425781 149.765625 171.90625 C 154.636719 170.09375 159.796875 169.015625 164.96875 167.917969 C 172.785156 166.269531 180.765625 164.707031 188.644531 164.035156 C 197.683594 163.269531 206.675781 163.664062 215.261719 166.46875 C 220.277344 168.128906 225.023438 170.398438 230.027344 172.230469 C 230.027344 172.230469 230.027344 172.230469 230.03125 172.230469 C 229.183594 180.714844 229.207031 189.429688 228.972656 197.960938 C 220.828125 195.230469 212.332031 193.746094 203.796875 193.035156 C 193.324219 192.277344 182.484375 192.898438 172.621094 196.675781 C 172.285156 196.804688 172.089844 197.171875 172.183594 197.527344 C 172.285156 197.914062 172.675781 198.144531 173.0625 198.042969 C 177.984375 196.765625 183.066406 196.328125 188.113281 196.402344 C 200.660156 196.671875 213.121094 199.746094 224.605469 204.679688 C 226.863281 205.664062 229.054688 206.765625 231.082031 207.949219 C 231.082031 207.949219 237.050781 210.789062 237.050781 210.789062 C 237.121094 209.046875 237.425781 203.726562 237.445312 202.058594 C 237.59375 193.175781 237.246094 183.570312 237.808594 174.539062 C 249.050781 176.941406 261.171875 175.203125 271.246094 169.625 C 284.464844 162.441406 289.605469 147.644531 288.800781 133.296875 Z M 288.800781 133.296875 " fill-opacity="1" fill-rule="nonzero"/></g><g transform="matrix(1, 0, 0, 1, 75, 222)"><g clip-path="url(#b16b5fe022)"><g fill="#1e1e1e" fill-opacity="1"><g transform="translate(1.062799, 34.896504)"><g><path d="M 18.078125 -6.96875 L 18.734375 -7.4375 C 19.554688 -7.925781 20.132812 -8.171875 20.46875 -8.171875 C 21.21875 -8.171875 22.03125 -7.492188 22.90625 -6.140625 C 23.4375 -5.285156 23.703125 -4.601562 23.703125 -4.09375 C 23.703125 -3.59375 23.535156 -3.171875 23.203125 -2.828125 C 22.878906 -2.492188 22.5 -2.191406 22.0625 -1.921875 C 21.632812 -1.660156 21.21875 -1.40625 20.8125 -1.15625 C 20.414062 -0.914062 19.597656 -0.601562 18.359375 -0.21875 C 17.128906 0.164062 15.9375 0.359375 14.78125 0.359375 C 13.632812 0.359375 12.472656 0.207031 11.296875 -0.09375 C 10.128906 -0.394531 8.921875 -0.898438 7.671875 -1.609375 C 6.429688 -2.328125 5.3125 -3.195312 4.3125 -4.21875 C 3.320312 -5.25 2.503906 -6.566406 1.859375 -8.171875 C 1.222656 -9.785156 0.90625 -11.535156 0.90625 -13.421875 C 0.90625 -15.316406 1.21875 -17.03125 1.84375 -18.5625 C 2.476562 -20.101562 3.285156 -21.375 4.265625 -22.375 C 5.242188 -23.382812 6.363281 -24.226562 7.625 -24.90625 C 9.988281 -26.207031 12.367188 -26.859375 14.765625 -26.859375 C 15.910156 -26.859375 17.066406 -26.679688 18.234375 -26.328125 C 19.410156 -25.984375 20.300781 -25.628906 20.90625 -25.265625 L 21.78125 -24.75 C 22.21875 -24.488281 22.554688 -24.269531 22.796875 -24.09375 C 23.421875 -23.59375 23.734375 -23.019531 23.734375 -22.375 C 23.734375 -21.738281 23.476562 -21.066406 22.96875 -20.359375 C 22.03125 -19.054688 21.1875 -18.40625 20.4375 -18.40625 C 20 -18.40625 19.378906 -18.671875 18.578125 -19.203125 C 17.566406 -20.023438 16.210938 -20.4375 14.515625 -20.4375 C 12.941406 -20.4375 11.394531 -19.890625 9.875 -18.796875 C 9.144531 -18.265625 8.535156 -17.515625 8.046875 -16.546875 C 7.566406 -15.578125 7.328125 -14.484375 7.328125 -13.265625 C 7.328125 -12.046875 7.566406 -10.953125 8.046875 -9.984375 C 8.535156 -9.015625 9.15625 -8.25 9.90625 -7.6875 C 11.382812 -6.625 12.921875 -6.09375 14.515625 -6.09375 C 15.265625 -6.09375 15.972656 -6.1875 16.640625 -6.375 C 17.304688 -6.570312 17.785156 -6.769531 18.078125 -6.96875 Z M 18.078125 -6.96875 "/></g></g></g><g fill="#1e1e1e" fill-opacity="1"><g transform="translate(25.698598, 34.896504)"><g><path d="M 21.8125 -4.5 C 22.175781 -3.625 22.359375 -2.992188 22.359375 -2.609375 C 22.359375 -1.691406 21.609375 -0.921875 20.109375 -0.296875 C 19.335938 0.046875 18.710938 0.21875 18.234375 0.21875 C 17.765625 0.21875 17.378906 0.101562 17.078125 -0.125 C 16.773438 -0.351562 16.550781 -0.585938 16.40625 -0.828125 C 16.164062 -1.296875 15.222656 -3.488281 13.578125 -7.40625 L 12.453125 -7.328125 L 7.875 -7.328125 L 7.875 -3.234375 C 7.875 -2.671875 7.851562 -2.25 7.8125 -1.96875 C 7.78125 -1.695312 7.671875 -1.378906 7.484375 -1.015625 C 7.140625 -0.359375 6.191406 -0.03125 4.640625 -0.03125 C 2.953125 -0.03125 1.960938 -0.476562 1.671875 -1.375 C 1.523438 -1.789062 1.453125 -2.421875 1.453125 -3.265625 L 1.453125 -23.40625 C 1.453125 -23.96875 1.46875 -24.382812 1.5 -24.65625 C 1.539062 -24.9375 1.65625 -25.257812 1.84375 -25.625 C 2.1875 -26.28125 3.132812 -26.609375 4.6875 -26.609375 L 12.515625 -26.609375 C 14.648438 -26.609375 16.722656 -25.832031 18.734375 -24.28125 C 19.703125 -23.53125 20.5 -22.515625 21.125 -21.234375 C 21.75 -19.953125 22.0625 -18.523438 22.0625 -16.953125 C 22.0625 -14.210938 21.15625 -11.960938 19.34375 -10.203125 C 19.875 -8.921875 20.695312 -7.019531 21.8125 -4.5 Z M 7.875 -13.75 L 12.515625 -13.75 C 13.222656 -13.75 13.925781 -14.015625 14.625 -14.546875 C 15.332031 -15.085938 15.6875 -15.890625 15.6875 -16.953125 C 15.6875 -18.015625 15.332031 -18.816406 14.625 -19.359375 C 13.925781 -19.910156 13.203125 -20.1875 12.453125 -20.1875 L 7.875 -20.1875 Z M 7.875 -13.75 "/></g></g></g><g fill="#1e1e1e" fill-opacity="1"><g transform="translate(48.592835, 34.896504)"><g><path d="M 13.9375 -26.9375 C 17.519531 -26.9375 20.628906 -25.640625 23.265625 -23.046875 C 25.898438 -20.460938 27.21875 -17.25 27.21875 -13.40625 C 27.21875 -9.570312 25.957031 -6.304688 23.4375 -3.609375 C 20.925781 -0.910156 17.832031 0.4375 14.15625 0.4375 C 10.476562 0.4375 7.347656 -0.890625 4.765625 -3.546875 C 2.191406 -6.210938 0.90625 -9.382812 0.90625 -13.0625 C 0.90625 -15.070312 1.265625 -16.953125 1.984375 -18.703125 C 2.710938 -20.460938 3.679688 -21.9375 4.890625 -23.125 C 6.109375 -24.3125 7.503906 -25.242188 9.078125 -25.921875 C 10.648438 -26.597656 12.269531 -26.9375 13.9375 -26.9375 Z M 7.328125 -13.25 C 7.328125 -11.09375 8.019531 -9.34375 9.40625 -8 C 10.800781 -6.65625 12.359375 -5.984375 14.078125 -5.984375 C 15.796875 -5.984375 17.34375 -6.632812 18.71875 -7.9375 C 20.101562 -9.25 20.796875 -11.003906 20.796875 -13.203125 C 20.796875 -15.410156 20.097656 -17.175781 18.703125 -18.5 C 17.316406 -19.832031 15.765625 -20.5 14.046875 -20.5 C 12.328125 -20.5 10.773438 -19.828125 9.390625 -18.484375 C 8.015625 -17.148438 7.328125 -15.40625 7.328125 -13.25 Z M 7.328125 -13.25 "/></g></g></g><g fill="#1e1e1e" fill-opacity="1"><g transform="translate(76.711742, 34.896504)"><g><path d="M 1.84375 -3.734375 C 1.21875 -4.515625 0.90625 -5.210938 0.90625 -5.828125 C 0.90625 -6.441406 1.425781 -7.257812 2.46875 -8.28125 C 3.070312 -8.851562 3.710938 -9.140625 4.390625 -9.140625 C 5.066406 -9.140625 6.007812 -8.535156 7.21875 -7.328125 C 7.5625 -6.921875 8.046875 -6.53125 8.671875 -6.15625 C 9.304688 -5.78125 9.890625 -5.59375 10.421875 -5.59375 C 12.671875 -5.59375 13.796875 -6.507812 13.796875 -8.34375 C 13.796875 -8.90625 13.484375 -9.375 12.859375 -9.75 C 12.242188 -10.125 11.476562 -10.394531 10.5625 -10.5625 C 9.644531 -10.726562 8.648438 -11 7.578125 -11.375 C 6.515625 -11.75 5.523438 -12.191406 4.609375 -12.703125 C 3.691406 -13.210938 2.921875 -14.015625 2.296875 -15.109375 C 1.679688 -16.210938 1.375 -17.539062 1.375 -19.09375 C 1.375 -21.21875 2.164062 -23.070312 3.75 -24.65625 C 5.34375 -26.25 7.503906 -27.046875 10.234375 -27.046875 C 11.679688 -27.046875 13.003906 -26.859375 14.203125 -26.484375 C 15.398438 -26.109375 16.234375 -25.722656 16.703125 -25.328125 L 17.609375 -24.640625 C 18.359375 -23.941406 18.734375 -23.347656 18.734375 -22.859375 C 18.734375 -22.378906 18.441406 -21.71875 17.859375 -20.875 C 17.035156 -19.664062 16.1875 -19.0625 15.3125 -19.0625 C 14.8125 -19.0625 14.1875 -19.300781 13.4375 -19.78125 C 13.363281 -19.832031 13.222656 -19.953125 13.015625 -20.140625 C 12.804688 -20.335938 12.617188 -20.492188 12.453125 -20.609375 C 11.941406 -20.929688 11.289062 -21.09375 10.5 -21.09375 C 9.71875 -21.09375 9.066406 -20.90625 8.546875 -20.53125 C 8.023438 -20.15625 7.765625 -19.632812 7.765625 -18.96875 C 7.765625 -18.300781 8.070312 -17.757812 8.6875 -17.34375 C 9.3125 -16.9375 10.082031 -16.660156 11 -16.515625 C 11.914062 -16.367188 12.914062 -16.144531 14 -15.84375 C 15.09375 -15.539062 16.097656 -15.171875 17.015625 -14.734375 C 17.941406 -14.296875 18.710938 -13.539062 19.328125 -12.46875 C 19.941406 -11.394531 20.25 -10.070312 20.25 -8.5 C 20.25 -6.925781 19.929688 -5.539062 19.296875 -4.34375 C 18.671875 -3.144531 17.851562 -2.21875 16.84375 -1.5625 C 14.882812 -0.28125 12.789062 0.359375 10.5625 0.359375 C 9.425781 0.359375 8.347656 0.222656 7.328125 -0.046875 C 6.316406 -0.328125 5.492188 -0.675781 4.859375 -1.09375 C 3.578125 -1.863281 2.679688 -2.613281 2.171875 -3.34375 Z M 1.84375 -3.734375 "/></g></g></g><g fill="#1e1e1e" fill-opacity="1"><g transform="translate(97.864417, 34.896504)"><g><path d="M 1.84375 -3.734375 C 1.21875 -4.515625 0.90625 -5.210938 0.90625 -5.828125 C 0.90625 -6.441406 1.425781 -7.257812 2.46875 -8.28125 C 3.070312 -8.851562 3.710938 -9.140625 4.390625 -9.140625 C 5.066406 -9.140625 6.007812 -8.535156 7.21875 -7.328125 C 7.5625 -6.921875 8.046875 -6.53125 8.671875 -6.15625 C 9.304688 -5.78125 9.890625 -5.59375 10.421875 -5.59375 C 12.671875 -5.59375 13.796875 -6.507812 13.796875 -8.34375 C 13.796875 -8.90625 13.484375 -9.375 12.859375 -9.75 C 12.242188 -10.125 11.476562 -10.394531 10.5625 -10.5625 C 9.644531 -10.726562 8.648438 -11 7.578125 -11.375 C 6.515625 -11.75 5.523438 -12.191406 4.609375 -12.703125 C 3.691406 -13.210938 2.921875 -14.015625 2.296875 -15.109375 C 1.679688 -16.210938 1.375 -17.539062 1.375 -19.09375 C 1.375 -21.21875 2.164062 -23.070312 3.75 -24.65625 C 5.34375 -26.25 7.503906 -27.046875 10.234375 -27.046875 C 11.679688 -27.046875 13.003906 -26.859375 14.203125 -26.484375 C 15.398438 -26.109375 16.234375 -25.722656 16.703125 -25.328125 L 17.609375 -24.640625 C 18.359375 -23.941406 18.734375 -23.347656 18.734375 -22.859375 C 18.734375 -22.378906 18.441406 -21.71875 17.859375 -20.875 C 17.035156 -19.664062 16.1875 -19.0625 15.3125 -19.0625 C 14.8125 -19.0625 14.1875 -19.300781 13.4375 -19.78125 C 13.363281 -19.832031 13.222656 -19.953125 13.015625 -20.140625 C 12.804688 -20.335938 12.617188 -20.492188 12.453125 -20.609375 C 11.941406 -20.929688 11.289062 -21.09375 10.5 -21.09375 C 9.71875 -21.09375 9.066406 -20.90625 8.546875 -20.53125 C 8.023438 -20.15625 7.765625 -19.632812 7.765625 -18.96875 C 7.765625 -18.300781 8.070312 -17.757812 8.6875 -17.34375 C 9.3125 -16.9375 10.082031 -16.660156 11 -16.515625 C 11.914062 -16.367188 12.914062 -16.144531 14 -15.84375 C 15.09375 -15.539062 16.097656 -15.171875 17.015625 -14.734375 C 17.941406 -14.296875 18.710938 -13.539062 19.328125 -12.46875 C 19.941406 -11.394531 20.25 -10.070312 20.25 -8.5 C 20.25 -6.925781 19.929688 -5.539062 19.296875 -4.34375 C 18.671875 -3.144531 17.851562 -2.21875 16.84375 -1.5625 C 14.882812 -0.28125 12.789062 0.359375 10.5625 0.359375 C 9.425781 0.359375 8.347656 0.222656 7.328125 -0.046875 C 6.316406 -0.328125 5.492188 -0.675781 4.859375 -1.09375 C 3.578125 -1.863281 2.679688 -2.613281 2.171875 -3.34375 Z M 1.84375 -3.734375 "/></g></g></g><g fill="#1e1e1e" fill-opacity="1"><g transform="translate(119.017092, 34.896504)"><g><path d="M 19.0625 -26.609375 C 19.613281 -26.609375 20.023438 -26.585938 20.296875 -26.546875 C 20.578125 -26.515625 20.894531 -26.398438 21.25 -26.203125 C 21.601562 -26.015625 21.851562 -25.6875 22 -25.21875 C 22.144531 -24.757812 22.21875 -24.144531 22.21875 -23.375 C 22.21875 -22.601562 22.144531 -21.984375 22 -21.515625 C 21.851562 -21.054688 21.597656 -20.738281 21.234375 -20.5625 C 20.867188 -20.382812 20.546875 -20.273438 20.265625 -20.234375 C 19.992188 -20.203125 19.566406 -20.1875 18.984375 -20.1875 L 7.875 -20.1875 L 7.875 -16.515625 L 15.03125 -16.515625 C 15.601562 -16.515625 16.03125 -16.492188 16.3125 -16.453125 C 16.59375 -16.421875 16.914062 -16.304688 17.28125 -16.109375 C 17.90625 -15.753906 18.21875 -14.800781 18.21875 -13.25 C 18.21875 -11.550781 17.757812 -10.546875 16.84375 -10.234375 C 16.457031 -10.109375 15.835938 -10.046875 14.984375 -10.046875 L 7.875 -10.046875 L 7.875 -3.1875 C 7.875 -2.613281 7.851562 -2.191406 7.8125 -1.921875 C 7.78125 -1.660156 7.671875 -1.347656 7.484375 -0.984375 C 7.140625 -0.328125 6.191406 0 4.640625 0 C 2.953125 0 1.960938 -0.457031 1.671875 -1.375 C 1.523438 -1.757812 1.453125 -2.378906 1.453125 -3.234375 L 1.453125 -23.40625 C 1.453125 -24.644531 1.679688 -25.488281 2.140625 -25.9375 C 2.597656 -26.382812 3.46875 -26.609375 4.75 -26.609375 Z M 19.0625 -26.609375 "/></g></g></g><g fill="#1e1e1e" fill-opacity="1"><g transform="translate(142.129017, 34.896504)"><g><path d="M 13.9375 -26.9375 C 17.519531 -26.9375 20.628906 -25.640625 23.265625 -23.046875 C 25.898438 -20.460938 27.21875 -17.25 27.21875 -13.40625 C 27.21875 -9.570312 25.957031 -6.304688 23.4375 -3.609375 C 20.925781 -0.910156 17.832031 0.4375 14.15625 0.4375 C 10.476562 0.4375 7.347656 -0.890625 4.765625 -3.546875 C 2.191406 -6.210938 0.90625 -9.382812 0.90625 -13.0625 C 0.90625 -15.070312 1.265625 -16.953125 1.984375 -18.703125 C 2.710938 -20.460938 3.679688 -21.9375 4.890625 -23.125 C 6.109375 -24.3125 7.503906 -25.242188 9.078125 -25.921875 C 10.648438 -26.597656 12.269531 -26.9375 13.9375 -26.9375 Z M 7.328125 -13.25 C 7.328125 -11.09375 8.019531 -9.34375 9.40625 -8 C 10.800781 -6.65625 12.359375 -5.984375 14.078125 -5.984375 C 15.796875 -5.984375 17.34375 -6.632812 18.71875 -7.9375 C 20.101562 -9.25 20.796875 -11.003906 20.796875 -13.203125 C 20.796875 -15.410156 20.097656 -17.175781 18.703125 -18.5 C 17.316406 -19.832031 15.765625 -20.5 14.046875 -20.5 C 12.328125 -20.5 10.773438 -19.828125 9.390625 -18.484375 C 8.015625 -17.148438 7.328125 -15.40625 7.328125 -13.25 Z M 7.328125 -13.25 "/></g></g></g><g fill="#1e1e1e" fill-opacity="1"><g transform="translate(170.247925, 34.896504)"><g><path d="M 13.9375 -26.9375 C 17.519531 -26.9375 20.628906 -25.640625 23.265625 -23.046875 C 25.898438 -20.460938 27.21875 -17.25 27.21875 -13.40625 C 27.21875 -9.570312 25.957031 -6.304688 23.4375 -3.609375 C 20.925781 -0.910156 17.832031 0.4375 14.15625 0.4375 C 10.476562 0.4375 7.347656 -0.890625 4.765625 -3.546875 C 2.191406 -6.210938 0.90625 -9.382812 0.90625 -13.0625 C 0.90625 -15.070312 1.265625 -16.953125 1.984375 -18.703125 C 2.710938 -20.460938 3.679688 -21.9375 4.890625 -23.125 C 6.109375 -24.3125 7.503906 -25.242188 9.078125 -25.921875 C 10.648438 -26.597656 12.269531 -26.9375 13.9375 -26.9375 Z M 7.328125 -13.25 C 7.328125 -11.09375 8.019531 -9.34375 9.40625 -8 C 10.800781 -6.65625 12.359375 -5.984375 14.078125 -5.984375 C 15.796875 -5.984375 17.34375 -6.632812 18.71875 -7.9375 C 20.101562 -9.25 20.796875 -11.003906 20.796875 -13.203125 C 20.796875 -15.410156 20.097656 -17.175781 18.703125 -18.5 C 17.316406 -19.832031 15.765625 -20.5 14.046875 -20.5 C 12.328125 -20.5 10.773438 -19.828125 9.390625 -18.484375 C 8.015625 -17.148438 7.328125 -15.40625 7.328125 -13.25 Z M 7.328125 -13.25 "/></g></g></g><g fill="#1e1e1e" fill-opacity="1"><g transform="translate(198.366832, 34.896504)"><g><path d="M 4.6875 -26.640625 L 11.390625 -26.609375 C 14.898438 -26.609375 17.984375 -25.34375 20.640625 -22.8125 C 23.304688 -20.28125 24.640625 -17.171875 24.640625 -13.484375 C 24.640625 -9.796875 23.335938 -6.628906 20.734375 -3.984375 C 18.140625 -1.347656 14.988281 -0.03125 11.28125 -0.03125 L 4.640625 -0.03125 C 3.171875 -0.03125 2.253906 -0.332031 1.890625 -0.9375 C 1.597656 -1.445312 1.453125 -2.222656 1.453125 -3.265625 L 1.453125 -23.453125 C 1.453125 -24.023438 1.46875 -24.445312 1.5 -24.71875 C 1.539062 -24.988281 1.65625 -25.300781 1.84375 -25.65625 C 2.1875 -26.3125 3.132812 -26.640625 4.6875 -26.640625 Z M 11.390625 -6.453125 C 13.140625 -6.453125 14.710938 -7.097656 16.109375 -8.390625 C 17.515625 -9.691406 18.21875 -11.320312 18.21875 -13.28125 C 18.21875 -15.238281 17.535156 -16.878906 16.171875 -18.203125 C 14.804688 -19.523438 13.203125 -20.1875 11.359375 -20.1875 L 7.875 -20.1875 L 7.875 -6.453125 Z M 11.390625 -6.453125 "/></g></g></g></g></g><g transform="matrix(1, 0, 0, 1, 43, 264)"><g clip-path="url(#c22cc35e92)"><g fill="#1e1e1e" fill-opacity="1"><g transform="translate(1.233153, 24.432023)"><g><path d="M 10.59375 0.265625 C 8.851562 0.265625 7.289062 -0.113281 5.90625 -0.875 C 4.519531 -1.632812 3.425781 -2.722656 2.625 -4.140625 C 1.832031 -5.566406 1.4375 -7.234375 1.4375 -9.140625 C 1.4375 -11.035156 1.832031 -12.691406 2.625 -14.109375 C 3.425781 -15.535156 4.519531 -16.628906 5.90625 -17.390625 C 7.289062 -18.148438 8.851562 -18.53125 10.59375 -18.53125 C 11.78125 -18.53125 12.84375 -18.390625 13.78125 -18.109375 C 14.71875 -17.828125 15.644531 -17.425781 16.5625 -16.90625 C 16.945312 -16.695312 17.140625 -16.363281 17.140625 -15.90625 C 17.140625 -15.644531 17.039062 -15.414062 16.84375 -15.21875 C 16.65625 -15.019531 16.40625 -14.921875 16.09375 -14.921875 C 15.914062 -14.921875 15.757812 -14.953125 15.625 -15.015625 C 14.851562 -15.421875 14.101562 -15.726562 13.375 -15.9375 C 12.644531 -16.144531 11.796875 -16.25 10.828125 -16.25 C 9.328125 -16.25 8.050781 -15.9375 7 -15.3125 C 5.945312 -14.695312 5.15625 -13.851562 4.625 -12.78125 C 4.09375 -11.707031 3.828125 -10.492188 3.828125 -9.140625 C 3.828125 -7.773438 4.09375 -6.554688 4.625 -5.484375 C 5.15625 -4.410156 5.945312 -3.5625 7 -2.9375 C 8.050781 -2.320312 9.328125 -2.015625 10.828125 -2.015625 C 11.796875 -2.015625 12.644531 -2.117188 13.375 -2.328125 C 14.101562 -2.535156 14.851562 -2.84375 15.625 -3.25 C 15.757812 -3.3125 15.914062 -3.34375 16.09375 -3.34375 C 16.40625 -3.34375 16.65625 -3.25 16.84375 -3.0625 C 17.039062 -2.875 17.140625 -2.640625 17.140625 -2.359375 C 17.140625 -1.898438 16.945312 -1.566406 16.5625 -1.359375 C 15.644531 -0.835938 14.71875 -0.4375 13.78125 -0.15625 C 12.84375 0.125 11.78125 0.265625 10.59375 0.265625 Z M 10.59375 0.265625 "/></g></g></g><g fill="#1e1e1e" fill-opacity="1"><g transform="translate(19.41904, 24.432023)"><g><path d="M 7.953125 0.265625 C 6.609375 0.265625 5.429688 -0.0195312 4.421875 -0.59375 C 3.410156 -1.175781 2.628906 -1.992188 2.078125 -3.046875 C 1.523438 -4.097656 1.25 -5.304688 1.25 -6.671875 C 1.25 -8.035156 1.523438 -9.242188 2.078125 -10.296875 C 2.628906 -11.347656 3.410156 -12.160156 4.421875 -12.734375 C 5.429688 -13.316406 6.609375 -13.609375 7.953125 -13.609375 C 9.285156 -13.609375 10.457031 -13.316406 11.46875 -12.734375 C 12.476562 -12.160156 13.257812 -11.347656 13.8125 -10.296875 C 14.375 -9.242188 14.65625 -8.035156 14.65625 -6.671875 C 14.65625 -5.304688 14.375 -4.097656 13.8125 -3.046875 C 13.257812 -1.992188 12.476562 -1.175781 11.46875 -0.59375 C 10.457031 -0.0195312 9.285156 0.265625 7.953125 0.265625 Z M 7.953125 -1.90625 C 8.671875 -1.90625 9.359375 -2.070312 10.015625 -2.40625 C 10.671875 -2.738281 11.210938 -3.257812 11.640625 -3.96875 C 12.066406 -4.6875 12.28125 -5.597656 12.28125 -6.703125 C 12.28125 -7.785156 12.066406 -8.679688 11.640625 -9.390625 C 11.210938 -10.109375 10.671875 -10.628906 10.015625 -10.953125 C 9.359375 -11.273438 8.671875 -11.4375 7.953125 -11.4375 C 7.222656 -11.4375 6.53125 -11.273438 5.875 -10.953125 C 5.21875 -10.628906 4.679688 -10.109375 4.265625 -9.390625 C 3.847656 -8.679688 3.640625 -7.785156 3.640625 -6.703125 C 3.640625 -5.597656 3.847656 -4.6875 4.265625 -3.96875 C 4.679688 -3.257812 5.21875 -2.738281 5.875 -2.40625 C 6.53125 -2.070312 7.222656 -1.90625 7.953125 -1.90625 Z M 7.953125 -1.90625 "/></g></g></g><g fill="#1e1e1e" fill-opacity="1"><g transform="translate(35.328424, 24.432023)"><g><path d="M 3.25 0.125 C 2.914062 0.125 2.632812 0.015625 2.40625 -0.203125 C 2.175781 -0.429688 2.0625 -0.710938 2.0625 -1.046875 L 2.0625 -12.28125 C 2.0625 -12.601562 2.175781 -12.882812 2.40625 -13.125 C 2.632812 -13.363281 2.914062 -13.484375 3.25 -13.484375 C 3.582031 -13.484375 3.863281 -13.363281 4.09375 -13.125 C 4.332031 -12.882812 4.453125 -12.601562 4.453125 -12.28125 L 4.453125 -11.203125 C 5.109375 -11.929688 5.820312 -12.515625 6.59375 -12.953125 C 7.363281 -13.390625 8.269531 -13.609375 9.3125 -13.609375 C 10.269531 -13.609375 11.101562 -13.378906 11.8125 -12.921875 C 12.519531 -12.472656 13.0625 -11.851562 13.4375 -11.0625 C 13.8125 -10.28125 14 -9.421875 14 -8.484375 L 14 -1.046875 C 14 -0.710938 13.878906 -0.429688 13.640625 -0.203125 C 13.410156 0.015625 13.128906 0.125 12.796875 0.125 C 12.460938 0.125 12.179688 0.015625 11.953125 -0.203125 C 11.734375 -0.429688 11.625 -0.710938 11.625 -1.046875 L 11.625 -8.21875 C 11.625 -10.34375 10.660156 -11.40625 8.734375 -11.40625 C 7.867188 -11.40625 7.085938 -11.175781 6.390625 -10.71875 C 5.703125 -10.269531 5.054688 -9.664062 4.453125 -8.90625 L 4.453125 -1.046875 C 4.453125 -0.710938 4.332031 -0.429688 4.09375 -0.203125 C 3.863281 0.015625 3.582031 0.125 3.25 0.125 Z M 3.25 0.125 "/></g></g></g><g fill="#1e1e1e" fill-opacity="1"><g transform="translate(51.26397, 24.432023)"><g><path d="M 8.03125 0.265625 C 5.90625 0.265625 4.242188 -0.335938 3.046875 -1.546875 C 1.847656 -2.765625 1.25 -4.472656 1.25 -6.671875 C 1.25 -7.910156 1.476562 -9.050781 1.9375 -10.09375 C 2.394531 -11.144531 3.09375 -11.992188 4.03125 -12.640625 C 4.96875 -13.285156 6.128906 -13.609375 7.515625 -13.609375 C 8.804688 -13.609375 9.921875 -13.304688 10.859375 -12.703125 C 11.804688 -12.097656 12.519531 -11.296875 13 -10.296875 C 13.488281 -9.296875 13.734375 -8.203125 13.734375 -7.015625 C 13.734375 -6.679688 13.625 -6.398438 13.40625 -6.171875 C 13.195312 -5.953125 12.90625 -5.84375 12.53125 -5.84375 L 3.671875 -5.84375 C 3.804688 -4.613281 4.253906 -3.660156 5.015625 -2.984375 C 5.785156 -2.304688 6.863281 -1.96875 8.25 -1.96875 C 8.976562 -1.96875 9.617188 -2.035156 10.171875 -2.171875 C 10.722656 -2.304688 11.257812 -2.507812 11.78125 -2.78125 C 11.914062 -2.84375 12.070312 -2.875 12.25 -2.875 C 12.53125 -2.875 12.773438 -2.773438 12.984375 -2.578125 C 13.191406 -2.390625 13.296875 -2.148438 13.296875 -1.859375 C 13.296875 -1.472656 13.066406 -1.148438 12.609375 -0.890625 C 11.929688 -0.503906 11.257812 -0.210938 10.59375 -0.015625 C 9.9375 0.171875 9.082031 0.265625 8.03125 0.265625 Z M 11.390625 -7.765625 C 11.335938 -8.628906 11.113281 -9.347656 10.71875 -9.921875 C 10.320312 -10.492188 9.835938 -10.914062 9.265625 -11.1875 C 8.691406 -11.457031 8.109375 -11.59375 7.515625 -11.59375 C 6.921875 -11.59375 6.332031 -11.457031 5.75 -11.1875 C 5.175781 -10.914062 4.695312 -10.492188 4.3125 -9.921875 C 3.9375 -9.347656 3.722656 -8.628906 3.671875 -7.765625 Z M 11.390625 -7.765625 "/></g></g></g><g fill="#1e1e1e" fill-opacity="1"><g transform="translate(66.074337, 24.432023)"><g><path d="M 8.25 0.265625 C 6.988281 0.265625 5.828125 -0.0078125 4.765625 -0.5625 C 3.703125 -1.125 2.847656 -1.925781 2.203125 -2.96875 C 1.566406 -4.019531 1.25 -5.253906 1.25 -6.671875 C 1.25 -8.085938 1.566406 -9.316406 2.203125 -10.359375 C 2.847656 -11.410156 3.703125 -12.210938 4.765625 -12.765625 C 5.828125 -13.328125 6.988281 -13.609375 8.25 -13.609375 C 9.164062 -13.609375 9.957031 -13.488281 10.625 -13.25 C 11.300781 -13.019531 11.929688 -12.722656 12.515625 -12.359375 C 12.859375 -12.128906 13.03125 -11.820312 13.03125 -11.4375 C 13.03125 -11.175781 12.929688 -10.9375 12.734375 -10.71875 C 12.535156 -10.5 12.304688 -10.390625 12.046875 -10.390625 C 11.847656 -10.390625 11.65625 -10.441406 11.46875 -10.546875 C 10.882812 -10.847656 10.390625 -11.0625 9.984375 -11.1875 C 9.578125 -11.320312 9.066406 -11.390625 8.453125 -11.390625 C 6.953125 -11.390625 5.773438 -10.957031 4.921875 -10.09375 C 4.066406 -9.226562 3.640625 -8.085938 3.640625 -6.671875 C 3.640625 -5.253906 4.066406 -4.113281 4.921875 -3.25 C 5.773438 -2.394531 6.953125 -1.96875 8.453125 -1.96875 C 9.066406 -1.96875 9.578125 -2.03125 9.984375 -2.15625 C 10.390625 -2.289062 10.882812 -2.503906 11.46875 -2.796875 C 11.65625 -2.898438 11.847656 -2.953125 12.046875 -2.953125 C 12.304688 -2.953125 12.535156 -2.84375 12.734375 -2.625 C 12.929688 -2.40625 13.03125 -2.164062 13.03125 -1.90625 C 13.03125 -1.519531 12.859375 -1.21875 12.515625 -1 C 11.929688 -0.625 11.300781 -0.316406 10.625 -0.078125 C 9.957031 0.148438 9.164062 0.265625 8.25 0.265625 Z M 8.25 0.265625 "/></g></g></g><g fill="#1e1e1e" fill-opacity="1"><g transform="translate(80.021215, 24.432023)"><g><path d="M 6.671875 0.265625 C 4.128906 0.265625 2.859375 -0.882812 2.859375 -3.1875 L 2.859375 -11.3125 L 1 -11.3125 C 0.851562 -11.3125 0.734375 -11.359375 0.640625 -11.453125 C 0.546875 -11.546875 0.5 -11.660156 0.5 -11.796875 C 0.5 -11.972656 0.578125 -12.125 0.734375 -12.25 L 4.296875 -15.734375 C 4.453125 -15.890625 4.597656 -15.96875 4.734375 -15.96875 C 4.878906 -15.96875 5 -15.914062 5.09375 -15.8125 C 5.1875 -15.707031 5.234375 -15.582031 5.234375 -15.4375 L 5.234375 -13.34375 L 8.1875 -13.34375 C 8.488281 -13.34375 8.734375 -13.242188 8.921875 -13.046875 C 9.117188 -12.859375 9.21875 -12.617188 9.21875 -12.328125 C 9.21875 -12.046875 9.117188 -11.804688 8.921875 -11.609375 C 8.734375 -11.410156 8.488281 -11.3125 8.1875 -11.3125 L 5.234375 -11.3125 L 5.234375 -3.40625 C 5.234375 -2.71875 5.394531 -2.28125 5.71875 -2.09375 C 6.039062 -1.914062 6.445312 -1.828125 6.9375 -1.828125 C 7.28125 -1.828125 7.628906 -1.878906 7.984375 -1.984375 C 8.054688 -2.003906 8.128906 -2.019531 8.203125 -2.03125 C 8.285156 -2.050781 8.382812 -2.0625 8.5 -2.0625 C 8.75 -2.0625 8.96875 -1.96875 9.15625 -1.78125 C 9.351562 -1.601562 9.453125 -1.382812 9.453125 -1.125 C 9.453125 -0.726562 9.25 -0.421875 8.84375 -0.203125 C 8.164062 0.109375 7.441406 0.265625 6.671875 0.265625 Z M 6.671875 0.265625 "/></g></g></g><g fill="#1e1e1e" fill-opacity="1"><g transform="translate(90.016905, 24.432023)"><g><path d="M 5.46875 0.265625 C 4.695312 0.265625 3.984375 0.109375 3.328125 -0.203125 C 2.679688 -0.523438 2.164062 -0.984375 1.78125 -1.578125 C 1.394531 -2.179688 1.203125 -2.878906 1.203125 -3.671875 C 1.203125 -4.953125 1.710938 -5.976562 2.734375 -6.75 C 3.753906 -7.519531 5.25 -7.90625 7.21875 -7.90625 L 10.390625 -7.90625 L 10.390625 -8.109375 C 10.390625 -9.265625 10.101562 -10.09375 9.53125 -10.59375 C 8.96875 -11.101562 8.085938 -11.359375 6.890625 -11.359375 C 6.222656 -11.359375 5.628906 -11.304688 5.109375 -11.203125 C 4.597656 -11.097656 4.03125 -10.941406 3.40625 -10.734375 C 3.257812 -10.691406 3.144531 -10.671875 3.0625 -10.671875 C 2.800781 -10.671875 2.570312 -10.765625 2.375 -10.953125 C 2.1875 -11.148438 2.09375 -11.390625 2.09375 -11.671875 C 2.09375 -12.140625 2.320312 -12.472656 2.78125 -12.671875 C 4.257812 -13.296875 5.765625 -13.609375 7.296875 -13.609375 C 8.503906 -13.609375 9.519531 -13.363281 10.34375 -12.875 C 11.175781 -12.382812 11.785156 -11.75 12.171875 -10.96875 C 12.566406 -10.195312 12.765625 -9.359375 12.765625 -8.453125 L 12.765625 -1.046875 C 12.765625 -0.710938 12.644531 -0.429688 12.40625 -0.203125 C 12.175781 0.015625 11.894531 0.125 11.5625 0.125 C 11.238281 0.125 10.960938 0.015625 10.734375 -0.203125 C 10.503906 -0.429688 10.390625 -0.710938 10.390625 -1.046875 L 10.390625 -1.734375 C 9.097656 -0.398438 7.457031 0.265625 5.46875 0.265625 Z M 6.359375 -1.828125 C 7.128906 -1.828125 7.867188 -2.015625 8.578125 -2.390625 C 9.296875 -2.765625 9.898438 -3.234375 10.390625 -3.796875 L 10.390625 -6 L 7.53125 -6 C 4.894531 -6 3.578125 -5.304688 3.578125 -3.921875 C 3.578125 -3.296875 3.789062 -2.789062 4.21875 -2.40625 C 4.65625 -2.019531 5.367188 -1.828125 6.359375 -1.828125 Z M 6.359375 -1.828125 "/></g></g></g><g fill="#1e1e1e" fill-opacity="1"><g transform="translate(104.722612, 24.432023)"><g/></g></g><g fill="#1e1e1e" fill-opacity="1"><g transform="translate(111.525957, 24.432023)"><g><path d="M 6.671875 0.265625 C 4.128906 0.265625 2.859375 -0.882812 2.859375 -3.1875 L 2.859375 -11.3125 L 1 -11.3125 C 0.851562 -11.3125 0.734375 -11.359375 0.640625 -11.453125 C 0.546875 -11.546875 0.5 -11.660156 0.5 -11.796875 C 0.5 -11.972656 0.578125 -12.125 0.734375 -12.25 L 4.296875 -15.734375 C 4.453125 -15.890625 4.597656 -15.96875 4.734375 -15.96875 C 4.878906 -15.96875 5 -15.914062 5.09375 -15.8125 C 5.1875 -15.707031 5.234375 -15.582031 5.234375 -15.4375 L 5.234375 -13.34375 L 8.1875 -13.34375 C 8.488281 -13.34375 8.734375 -13.242188 8.921875 -13.046875 C 9.117188 -12.859375 9.21875 -12.617188 9.21875 -12.328125 C 9.21875 -12.046875 9.117188 -11.804688 8.921875 -11.609375 C 8.734375 -11.410156 8.488281 -11.3125 8.1875 -11.3125 L 5.234375 -11.3125 L 5.234375 -3.40625 C 5.234375 -2.71875 5.394531 -2.28125 5.71875 -2.09375 C 6.039062 -1.914062 6.445312 -1.828125 6.9375 -1.828125 C 7.28125 -1.828125 7.628906 -1.878906 7.984375 -1.984375 C 8.054688 -2.003906 8.128906 -2.019531 8.203125 -2.03125 C 8.285156 -2.050781 8.382812 -2.0625 8.5 -2.0625 C 8.75 -2.0625 8.96875 -1.96875 9.15625 -1.78125 C 9.351562 -1.601562 9.453125 -1.382812 9.453125 -1.125 C 9.453125 -0.726562 9.25 -0.421875 8.84375 -0.203125 C 8.164062 0.109375 7.441406 0.265625 6.671875 0.265625 Z M 6.671875 0.265625 "/></g></g></g><g fill="#1e1e1e" fill-opacity="1"><g transform="translate(121.521647, 24.432023)"><g><path d="M 6.625 0.265625 C 5.664062 0.265625 4.832031 0.0390625 4.125 -0.40625 C 3.414062 -0.863281 2.875 -1.484375 2.5 -2.265625 C 2.125 -3.054688 1.9375 -3.925781 1.9375 -4.875 L 1.9375 -12.296875 C 1.9375 -12.628906 2.050781 -12.910156 2.28125 -13.140625 C 2.519531 -13.367188 2.804688 -13.484375 3.140625 -13.484375 C 3.472656 -13.484375 3.75 -13.367188 3.96875 -13.140625 C 4.195312 -12.910156 4.3125 -12.628906 4.3125 -12.296875 L 4.3125 -5.125 C 4.3125 -3 5.273438 -1.9375 7.203125 -1.9375 C 8.066406 -1.9375 8.84375 -2.160156 9.53125 -2.609375 C 10.226562 -3.066406 10.878906 -3.679688 11.484375 -4.453125 L 11.484375 -12.296875 C 11.484375 -12.628906 11.601562 -12.910156 11.84375 -13.140625 C 12.082031 -13.367188 12.363281 -13.484375 12.6875 -13.484375 C 13.019531 -13.484375 13.300781 -13.367188 13.53125 -13.140625 C 13.757812 -12.910156 13.875 -12.628906 13.875 -12.296875 L 13.875 -1.078125 C 13.875 -0.742188 13.757812 -0.457031 13.53125 -0.21875 C 13.300781 0.0078125 13.019531 0.125 12.6875 0.125 C 12.363281 0.125 12.082031 0.0078125 11.84375 -0.21875 C 11.601562 -0.457031 11.484375 -0.742188 11.484375 -1.078125 L 11.484375 -2.140625 C 10.828125 -1.410156 10.113281 -0.828125 9.34375 -0.390625 C 8.570312 0.046875 7.664062 0.265625 6.625 0.265625 Z M 6.625 0.265625 "/></g></g></g><g fill="#1e1e1e" fill-opacity="1"><g transform="translate(137.457192, 24.432023)"><g/></g></g><g fill="#1e1e1e" fill-opacity="1"><g transform="translate(144.260537, 24.432023)"><g><path d="M 3.25 0.125 C 2.914062 0.125 2.632812 0.015625 2.40625 -0.203125 C 2.175781 -0.429688 2.0625 -0.710938 2.0625 -1.046875 L 2.0625 -12.28125 C 2.0625 -12.601562 2.175781 -12.882812 2.40625 -13.125 C 2.632812 -13.363281 2.914062 -13.484375 3.25 -13.484375 C 3.582031 -13.484375 3.863281 -13.363281 4.09375 -13.125 C 4.332031 -12.882812 4.453125 -12.601562 4.453125 -12.28125 L 4.453125 -11.15625 C 5.671875 -12.789062 7.039062 -13.609375 8.5625 -13.609375 L 8.6875 -13.609375 C 9.019531 -13.609375 9.296875 -13.492188 9.515625 -13.265625 C 9.734375 -13.035156 9.84375 -12.757812 9.84375 -12.4375 C 9.84375 -12.101562 9.726562 -11.832031 9.5 -11.625 C 9.269531 -11.414062 8.984375 -11.3125 8.640625 -11.3125 L 8.5 -11.3125 C 7.664062 -11.3125 6.898438 -11.101562 6.203125 -10.6875 C 5.503906 -10.28125 4.921875 -9.71875 4.453125 -9 L 4.453125 -1.046875 C 4.453125 -0.710938 4.332031 -0.429688 4.09375 -0.203125 C 3.863281 0.015625 3.582031 0.125 3.25 0.125 Z M 3.25 0.125 "/></g></g></g><g fill="#1e1e1e" fill-opacity="1"><g transform="translate(154.282403, 24.432023)"><g><path d="M 8.03125 0.265625 C 5.90625 0.265625 4.242188 -0.335938 3.046875 -1.546875 C 1.847656 -2.765625 1.25 -4.472656 1.25 -6.671875 C 1.25 -7.910156 1.476562 -9.050781 1.9375 -10.09375 C 2.394531 -11.144531 3.09375 -11.992188 4.03125 -12.640625 C 4.96875 -13.285156 6.128906 -13.609375 7.515625 -13.609375 C 8.804688 -13.609375 9.921875 -13.304688 10.859375 -12.703125 C 11.804688 -12.097656 12.519531 -11.296875 13 -10.296875 C 13.488281 -9.296875 13.734375 -8.203125 13.734375 -7.015625 C 13.734375 -6.679688 13.625 -6.398438 13.40625 -6.171875 C 13.195312 -5.953125 12.90625 -5.84375 12.53125 -5.84375 L 3.671875 -5.84375 C 3.804688 -4.613281 4.253906 -3.660156 5.015625 -2.984375 C 5.785156 -2.304688 6.863281 -1.96875 8.25 -1.96875 C 8.976562 -1.96875 9.617188 -2.035156 10.171875 -2.171875 C 10.722656 -2.304688 11.257812 -2.507812 11.78125 -2.78125 C 11.914062 -2.84375 12.070312 -2.875 12.25 -2.875 C 12.53125 -2.875 12.773438 -2.773438 12.984375 -2.578125 C 13.191406 -2.390625 13.296875 -2.148438 13.296875 -1.859375 C 13.296875 -1.472656 13.066406 -1.148438 12.609375 -0.890625 C 11.929688 -0.503906 11.257812 -0.210938 10.59375 -0.015625 C 9.9375 0.171875 9.082031 0.265625 8.03125 0.265625 Z M 11.390625 -7.765625 C 11.335938 -8.628906 11.113281 -9.347656 10.71875 -9.921875 C 10.320312 -10.492188 9.835938 -10.914062 9.265625 -11.1875 C 8.691406 -11.457031 8.109375 -11.59375 7.515625 -11.59375 C 6.921875 -11.59375 6.332031 -11.457031 5.75 -11.1875 C 5.175781 -10.914062 4.695312 -10.492188 4.3125 -9.921875 C 3.9375 -9.347656 3.722656 -8.628906 3.671875 -7.765625 Z M 11.390625 -7.765625 "/></g></g></g><g fill="#1e1e1e" fill-opacity="1"><g transform="translate(169.092771, 24.432023)"><g><path d="M 6.390625 0.265625 C 4.640625 0.265625 3.050781 -0.128906 1.625 -0.921875 C 1.320312 -1.128906 1.171875 -1.414062 1.171875 -1.78125 C 1.171875 -2.0625 1.265625 -2.304688 1.453125 -2.515625 C 1.648438 -2.722656 1.898438 -2.828125 2.203125 -2.828125 C 2.359375 -2.828125 2.515625 -2.789062 2.671875 -2.71875 C 3.222656 -2.476562 3.78125 -2.285156 4.34375 -2.140625 C 4.90625 -2.003906 5.535156 -1.9375 6.234375 -1.9375 C 8.171875 -1.9375 9.140625 -2.554688 9.140625 -3.796875 C 9.140625 -4.191406 8.914062 -4.492188 8.46875 -4.703125 C 8.019531 -4.921875 7.289062 -5.160156 6.28125 -5.421875 C 5.25 -5.660156 4.394531 -5.910156 3.71875 -6.171875 C 3.050781 -6.429688 2.476562 -6.828125 2 -7.359375 C 1.519531 -7.898438 1.28125 -8.601562 1.28125 -9.46875 C 1.28125 -10.695312 1.71875 -11.691406 2.59375 -12.453125 C 3.476562 -13.222656 4.742188 -13.609375 6.390625 -13.609375 C 7.734375 -13.609375 9 -13.390625 10.1875 -12.953125 C 10.425781 -12.878906 10.609375 -12.75 10.734375 -12.5625 C 10.867188 -12.375 10.9375 -12.171875 10.9375 -11.953125 C 10.9375 -11.679688 10.835938 -11.4375 10.640625 -11.21875 C 10.441406 -11.007812 10.191406 -10.90625 9.890625 -10.90625 C 9.804688 -10.90625 9.691406 -10.925781 9.546875 -10.96875 C 8.535156 -11.28125 7.539062 -11.4375 6.5625 -11.4375 C 5.625 -11.4375 4.890625 -11.265625 4.359375 -10.921875 C 3.828125 -10.585938 3.5625 -10.148438 3.5625 -9.609375 C 3.5625 -9.078125 3.804688 -8.691406 4.296875 -8.453125 C 4.785156 -8.210938 5.539062 -7.976562 6.5625 -7.75 C 7.59375 -7.488281 8.429688 -7.226562 9.078125 -6.96875 C 9.722656 -6.71875 10.273438 -6.320312 10.734375 -5.78125 C 11.203125 -5.238281 11.4375 -4.515625 11.4375 -3.609375 C 11.4375 -2.492188 10.992188 -1.566406 10.109375 -0.828125 C 9.234375 -0.0976562 7.992188 0.265625 6.390625 0.265625 Z M 6.390625 0.265625 "/></g></g></g><g fill="#1e1e1e" fill-opacity="1"><g transform="translate(181.652813, 24.432023)"><g><path d="M 6.671875 0.265625 C 4.128906 0.265625 2.859375 -0.882812 2.859375 -3.1875 L 2.859375 -11.3125 L 1 -11.3125 C 0.851562 -11.3125 0.734375 -11.359375 0.640625 -11.453125 C 0.546875 -11.546875 0.5 -11.660156 0.5 -11.796875 C 0.5 -11.972656 0.578125 -12.125 0.734375 -12.25 L 4.296875 -15.734375 C 4.453125 -15.890625 4.597656 -15.96875 4.734375 -15.96875 C 4.878906 -15.96875 5 -15.914062 5.09375 -15.8125 C 5.1875 -15.707031 5.234375 -15.582031 5.234375 -15.4375 L 5.234375 -13.34375 L 8.1875 -13.34375 C 8.488281 -13.34375 8.734375 -13.242188 8.921875 -13.046875 C 9.117188 -12.859375 9.21875 -12.617188 9.21875 -12.328125 C 9.21875 -12.046875 9.117188 -11.804688 8.921875 -11.609375 C 8.734375 -11.410156 8.488281 -11.3125 8.1875 -11.3125 L 5.234375 -11.3125 L 5.234375 -3.40625 C 5.234375 -2.71875 5.394531 -2.28125 5.71875 -2.09375 C 6.039062 -1.914062 6.445312 -1.828125 6.9375 -1.828125 C 7.28125 -1.828125 7.628906 -1.878906 7.984375 -1.984375 C 8.054688 -2.003906 8.128906 -2.019531 8.203125 -2.03125 C 8.285156 -2.050781 8.382812 -2.0625 8.5 -2.0625 C 8.75 -2.0625 8.96875 -1.96875 9.15625 -1.78125 C 9.351562 -1.601562 9.453125 -1.382812 9.453125 -1.125 C 9.453125 -0.726562 9.25 -0.421875 8.84375 -0.203125 C 8.164062 0.109375 7.441406 0.265625 6.671875 0.265625 Z M 6.671875 0.265625 "/></g></g></g><g fill="#1e1e1e" fill-opacity="1"><g transform="translate(191.648502, 24.432023)"><g><path d="M 5.46875 0.265625 C 4.695312 0.265625 3.984375 0.109375 3.328125 -0.203125 C 2.679688 -0.523438 2.164062 -0.984375 1.78125 -1.578125 C 1.394531 -2.179688 1.203125 -2.878906 1.203125 -3.671875 C 1.203125 -4.953125 1.710938 -5.976562 2.734375 -6.75 C 3.753906 -7.519531 5.25 -7.90625 7.21875 -7.90625 L 10.390625 -7.90625 L 10.390625 -8.109375 C 10.390625 -9.265625 10.101562 -10.09375 9.53125 -10.59375 C 8.96875 -11.101562 8.085938 -11.359375 6.890625 -11.359375 C 6.222656 -11.359375 5.628906 -11.304688 5.109375 -11.203125 C 4.597656 -11.097656 4.03125 -10.941406 3.40625 -10.734375 C 3.257812 -10.691406 3.144531 -10.671875 3.0625 -10.671875 C 2.800781 -10.671875 2.570312 -10.765625 2.375 -10.953125 C 2.1875 -11.148438 2.09375 -11.390625 2.09375 -11.671875 C 2.09375 -12.140625 2.320312 -12.472656 2.78125 -12.671875 C 4.257812 -13.296875 5.765625 -13.609375 7.296875 -13.609375 C 8.503906 -13.609375 9.519531 -13.363281 10.34375 -12.875 C 11.175781 -12.382812 11.785156 -11.75 12.171875 -10.96875 C 12.566406 -10.195312 12.765625 -9.359375 12.765625 -8.453125 L 12.765625 -1.046875 C 12.765625 -0.710938 12.644531 -0.429688 12.40625 -0.203125 C 12.175781 0.015625 11.894531 0.125 11.5625 0.125 C 11.238281 0.125 10.960938 0.015625 10.734375 -0.203125 C 10.503906 -0.429688 10.390625 -0.710938 10.390625 -1.046875 L 10.390625 -1.734375 C 9.097656 -0.398438 7.457031 0.265625 5.46875 0.265625 Z M 6.359375 -1.828125 C 7.128906 -1.828125 7.867188 -2.015625 8.578125 -2.390625 C 9.296875 -2.765625 9.898438 -3.234375 10.390625 -3.796875 L 10.390625 -6 L 7.53125 -6 C 4.894531 -6 3.578125 -5.304688 3.578125 -3.921875 C 3.578125 -3.296875 3.789062 -2.789062 4.21875 -2.40625 C 4.65625 -2.019531 5.367188 -1.828125 6.359375 -1.828125 Z M 6.359375 -1.828125 "/></g></g></g><g fill="#1e1e1e" fill-opacity="1"><g transform="translate(206.354209, 24.432023)"><g><path d="M 6.625 0.265625 C 5.664062 0.265625 4.832031 0.0390625 4.125 -0.40625 C 3.414062 -0.863281 2.875 -1.484375 2.5 -2.265625 C 2.125 -3.054688 1.9375 -3.925781 1.9375 -4.875 L 1.9375 -12.296875 C 1.9375 -12.628906 2.050781 -12.910156 2.28125 -13.140625 C 2.519531 -13.367188 2.804688 -13.484375 3.140625 -13.484375 C 3.472656 -13.484375 3.75 -13.367188 3.96875 -13.140625 C 4.195312 -12.910156 4.3125 -12.628906 4.3125 -12.296875 L 4.3125 -5.125 C 4.3125 -3 5.273438 -1.9375 7.203125 -1.9375 C 8.066406 -1.9375 8.84375 -2.160156 9.53125 -2.609375 C 10.226562 -3.066406 10.878906 -3.679688 11.484375 -4.453125 L 11.484375 -12.296875 C 11.484375 -12.628906 11.601562 -12.910156 11.84375 -13.140625 C 12.082031 -13.367188 12.363281 -13.484375 12.6875 -13.484375 C 13.019531 -13.484375 13.300781 -13.367188 13.53125 -13.140625 C 13.757812 -12.910156 13.875 -12.628906 13.875 -12.296875 L 13.875 -1.078125 C 13.875 -0.742188 13.757812 -0.457031 13.53125 -0.21875 C 13.300781 0.0078125 13.019531 0.125 12.6875 0.125 C 12.363281 0.125 12.082031 0.0078125 11.84375 -0.21875 C 11.601562 -0.457031 11.484375 -0.742188 11.484375 -1.078125 L 11.484375 -2.140625 C 10.828125 -1.410156 10.113281 -0.828125 9.34375 -0.390625 C 8.570312 0.046875 7.664062 0.265625 6.625 0.265625 Z M 6.625 0.265625 "/></g></g></g><g fill="#1e1e1e" fill-opacity="1"><g transform="translate(222.289755, 24.432023)"><g><path d="M 3.25 0.125 C 2.914062 0.125 2.632812 0.015625 2.40625 -0.203125 C 2.175781 -0.429688 2.0625 -0.710938 2.0625 -1.046875 L 2.0625 -12.28125 C 2.0625 -12.601562 2.175781 -12.882812 2.40625 -13.125 C 2.632812 -13.363281 2.914062 -13.484375 3.25 -13.484375 C 3.582031 -13.484375 3.863281 -13.363281 4.09375 -13.125 C 4.332031 -12.882812 4.453125 -12.601562 4.453125 -12.28125 L 4.453125 -11.15625 C 5.671875 -12.789062 7.039062 -13.609375 8.5625 -13.609375 L 8.6875 -13.609375 C 9.019531 -13.609375 9.296875 -13.492188 9.515625 -13.265625 C 9.734375 -13.035156 9.84375 -12.757812 9.84375 -12.4375 C 9.84375 -12.101562 9.726562 -11.832031 9.5 -11.625 C 9.269531 -11.414062 8.984375 -11.3125 8.640625 -11.3125 L 8.5 -11.3125 C 7.664062 -11.3125 6.898438 -11.101562 6.203125 -10.6875 C 5.503906 -10.28125 4.921875 -9.71875 4.453125 -9 L 4.453125 -1.046875 C 4.453125 -0.710938 4.332031 -0.429688 4.09375 -0.203125 C 3.863281 0.015625 3.582031 0.125 3.25 0.125 Z M 3.25 0.125 "/></g></g></g><g fill="#1e1e1e" fill-opacity="1"><g transform="translate(232.311621, 24.432023)"><g><path d="M 5.46875 0.265625 C 4.695312 0.265625 3.984375 0.109375 3.328125 -0.203125 C 2.679688 -0.523438 2.164062 -0.984375 1.78125 -1.578125 C 1.394531 -2.179688 1.203125 -2.878906 1.203125 -3.671875 C 1.203125 -4.953125 1.710938 -5.976562 2.734375 -6.75 C 3.753906 -7.519531 5.25 -7.90625 7.21875 -7.90625 L 10.390625 -7.90625 L 10.390625 -8.109375 C 10.390625 -9.265625 10.101562 -10.09375 9.53125 -10.59375 C 8.96875 -11.101562 8.085938 -11.359375 6.890625 -11.359375 C 6.222656 -11.359375 5.628906 -11.304688 5.109375 -11.203125 C 4.597656 -11.097656 4.03125 -10.941406 3.40625 -10.734375 C 3.257812 -10.691406 3.144531 -10.671875 3.0625 -10.671875 C 2.800781 -10.671875 2.570312 -10.765625 2.375 -10.953125 C 2.1875 -11.148438 2.09375 -11.390625 2.09375 -11.671875 C 2.09375 -12.140625 2.320312 -12.472656 2.78125 -12.671875 C 4.257812 -13.296875 5.765625 -13.609375 7.296875 -13.609375 C 8.503906 -13.609375 9.519531 -13.363281 10.34375 -12.875 C 11.175781 -12.382812 11.785156 -11.75 12.171875 -10.96875 C 12.566406 -10.195312 12.765625 -9.359375 12.765625 -8.453125 L 12.765625 -1.046875 C 12.765625 -0.710938 12.644531 -0.429688 12.40625 -0.203125 C 12.175781 0.015625 11.894531 0.125 11.5625 0.125 C 11.238281 0.125 10.960938 0.015625 10.734375 -0.203125 C 10.503906 -0.429688 10.390625 -0.710938 10.390625 -1.046875 L 10.390625 -1.734375 C 9.097656 -0.398438 7.457031 0.265625 5.46875 0.265625 Z M 6.359375 -1.828125 C 7.128906 -1.828125 7.867188 -2.015625 8.578125 -2.390625 C 9.296875 -2.765625 9.898438 -3.234375 10.390625 -3.796875 L 10.390625 -6 L 7.53125 -6 C 4.894531 -6 3.578125 -5.304688 3.578125 -3.921875 C 3.578125 -3.296875 3.789062 -2.789062 4.21875 -2.40625 C 4.65625 -2.019531 5.367188 -1.828125 6.359375 -1.828125 Z M 6.359375 -1.828125 "/></g></g></g><g fill="#1e1e1e" fill-opacity="1"><g transform="translate(247.017328, 24.432023)"><g><path d="M 3.25 0.125 C 2.914062 0.125 2.632812 0.015625 2.40625 -0.203125 C 2.175781 -0.429688 2.0625 -0.710938 2.0625 -1.046875 L 2.0625 -12.28125 C 2.0625 -12.601562 2.175781 -12.882812 2.40625 -13.125 C 2.632812 -13.363281 2.914062 -13.484375 3.25 -13.484375 C 3.582031 -13.484375 3.863281 -13.363281 4.09375 -13.125 C 4.332031 -12.882812 4.453125 -12.601562 4.453125 -12.28125 L 4.453125 -11.203125 C 5.109375 -11.929688 5.820312 -12.515625 6.59375 -12.953125 C 7.363281 -13.390625 8.269531 -13.609375 9.3125 -13.609375 C 10.269531 -13.609375 11.101562 -13.378906 11.8125 -12.921875 C 12.519531 -12.472656 13.0625 -11.851562 13.4375 -11.0625 C 13.8125 -10.28125 14 -9.421875 14 -8.484375 L 14 -1.046875 C 14 -0.710938 13.878906 -0.429688 13.640625 -0.203125 C 13.410156 0.015625 13.128906 0.125 12.796875 0.125 C 12.460938 0.125 12.179688 0.015625 11.953125 -0.203125 C 11.734375 -0.429688 11.625 -0.710938 11.625 -1.046875 L 11.625 -8.21875 C 11.625 -10.34375 10.660156 -11.40625 8.734375 -11.40625 C 7.867188 -11.40625 7.085938 -11.175781 6.390625 -10.71875 C 5.703125 -10.269531 5.054688 -9.664062 4.453125 -8.90625 L 4.453125 -1.046875 C 4.453125 -0.710938 4.332031 -0.429688 4.09375 -0.203125 C 3.863281 0.015625 3.582031 0.125 3.25 0.125 Z M 3.25 0.125 "/></g></g></g><g fill="#1e1e1e" fill-opacity="1"><g transform="translate(262.952858, 24.432023)"><g><path d="M 6.671875 0.265625 C 4.128906 0.265625 2.859375 -0.882812 2.859375 -3.1875 L 2.859375 -11.3125 L 1 -11.3125 C 0.851562 -11.3125 0.734375 -11.359375 0.640625 -11.453125 C 0.546875 -11.546875 0.5 -11.660156 0.5 -11.796875 C 0.5 -11.972656 0.578125 -12.125 0.734375 -12.25 L 4.296875 -15.734375 C 4.453125 -15.890625 4.597656 -15.96875 4.734375 -15.96875 C 4.878906 -15.96875 5 -15.914062 5.09375 -15.8125 C 5.1875 -15.707031 5.234375 -15.582031 5.234375 -15.4375 L 5.234375 -13.34375 L 8.1875 -13.34375 C 8.488281 -13.34375 8.734375 -13.242188 8.921875 -13.046875 C 9.117188 -12.859375 9.21875 -12.617188 9.21875 -12.328125 C 9.21875 -12.046875 9.117188 -11.804688 8.921875 -11.609375 C 8.734375 -11.410156 8.488281 -11.3125 8.1875 -11.3125 L 5.234375 -11.3125 L 5.234375 -3.40625 C 5.234375 -2.71875 5.394531 -2.28125 5.71875 -2.09375 C 6.039062 -1.914062 6.445312 -1.828125 6.9375 -1.828125 C 7.28125 -1.828125 7.628906 -1.878906 7.984375 -1.984375 C 8.054688 -2.003906 8.128906 -2.019531 8.203125 -2.03125 C 8.285156 -2.050781 8.382812 -2.0625 8.5 -2.0625 C 8.75 -2.0625 8.96875 -1.96875 9.15625 -1.78125 C 9.351562 -1.601562 9.453125 -1.382812 9.453125 -1.125 C 9.453125 -0.726562 9.25 -0.421875 8.84375 -0.203125 C 8.164062 0.109375 7.441406 0.265625 6.671875 0.265625 Z M 6.671875 0.265625 "/></g></g></g><g fill="#1e1e1e" fill-opacity="1"><g transform="translate(272.948563, 24.432023)"><g><path d="M 8.03125 0.265625 C 5.90625 0.265625 4.242188 -0.335938 3.046875 -1.546875 C 1.847656 -2.765625 1.25 -4.472656 1.25 -6.671875 C 1.25 -7.910156 1.476562 -9.050781 1.9375 -10.09375 C 2.394531 -11.144531 3.09375 -11.992188 4.03125 -12.640625 C 4.96875 -13.285156 6.128906 -13.609375 7.515625 -13.609375 C 8.804688 -13.609375 9.921875 -13.304688 10.859375 -12.703125 C 11.804688 -12.097656 12.519531 -11.296875 13 -10.296875 C 13.488281 -9.296875 13.734375 -8.203125 13.734375 -7.015625 C 13.734375 -6.679688 13.625 -6.398438 13.40625 -6.171875 C 13.195312 -5.953125 12.90625 -5.84375 12.53125 -5.84375 L 3.671875 -5.84375 C 3.804688 -4.613281 4.253906 -3.660156 5.015625 -2.984375 C 5.785156 -2.304688 6.863281 -1.96875 8.25 -1.96875 C 8.976562 -1.96875 9.617188 -2.035156 10.171875 -2.171875 C 10.722656 -2.304688 11.257812 -2.507812 11.78125 -2.78125 C 11.914062 -2.84375 12.070312 -2.875 12.25 -2.875 C 12.53125 -2.875 12.773438 -2.773438 12.984375 -2.578125 C 13.191406 -2.390625 13.296875 -2.148438 13.296875 -1.859375 C 13.296875 -1.472656 13.066406 -1.148438 12.609375 -0.890625 C 11.929688 -0.503906 11.257812 -0.210938 10.59375 -0.015625 C 9.9375 0.171875 9.082031 0.265625 8.03125 0.265625 Z M 11.390625 -7.765625 C 11.335938 -8.628906 11.113281 -9.347656 10.71875 -9.921875 C 10.320312 -10.492188 9.835938 -10.914062 9.265625 -11.1875 C 8.691406 -11.457031 8.109375 -11.59375 7.515625 -11.59375 C 6.921875 -11.59375 6.332031 -11.457031 5.75 -11.1875 C 5.175781 -10.914062 4.695312 -10.492188 4.3125 -9.921875 C 3.9375 -9.347656 3.722656 -8.628906 3.671875 -7.765625 Z M 11.390625 -7.765625 "/></g></g></g></g></g><g transform="matrix(1, 0, 0, 1, 139, 168)"><g clip-path="url(#fd24197917)"><g fill="#1e1e1e" fill-opacity="1"><g transform="translate(4.709448, 23.889698)"><g><path d="M -0.71875 -6.15625 C -0.882812 -6.789062 -0.960938 -7.410156 -0.953125 -8.015625 C -0.953125 -8.628906 -0.875 -9.210938 -0.71875 -9.765625 C -0.5625 -10.328125 -0.328125 -10.851562 -0.015625 -11.34375 C 0.285156 -11.832031 0.648438 -12.273438 1.078125 -12.671875 C 1.515625 -13.066406 1.992188 -13.410156 2.515625 -13.703125 C 3.035156 -14.003906 3.601562 -14.242188 4.21875 -14.421875 C 4.75 -14.554688 5.265625 -14.640625 5.765625 -14.671875 C 6.273438 -14.710938 6.804688 -14.742188 7.359375 -14.765625 C 7.453125 -14.765625 7.550781 -14.757812 7.65625 -14.75 C 7.769531 -14.75 7.867188 -14.738281 7.953125 -14.71875 C 8.046875 -14.707031 8.128906 -14.703125 8.203125 -14.703125 C 8.273438 -14.703125 8.328125 -14.707031 8.359375 -14.71875 C 8.367188 -14.71875 8.40625 -14.734375 8.46875 -14.765625 C 8.53125 -14.804688 8.578125 -14.832031 8.609375 -14.84375 L 9 -14.953125 C 9.070312 -14.972656 9.117188 -14.9375 9.140625 -14.84375 L 9.890625 -12.078125 C 9.898438 -12.035156 9.894531 -12.003906 9.875 -11.984375 C 9.851562 -11.972656 9.796875 -11.953125 9.703125 -11.921875 C 9.691406 -11.921875 9.644531 -11.910156 9.5625 -11.890625 C 9.488281 -11.878906 9.445312 -11.882812 9.4375 -11.90625 C 9.414062 -11.925781 9.378906 -11.953125 9.328125 -11.984375 C 9.285156 -12.023438 9.238281 -12.066406 9.1875 -12.109375 C 9.132812 -12.160156 9.082031 -12.207031 9.03125 -12.25 C 8.988281 -12.289062 8.960938 -12.316406 8.953125 -12.328125 C 8.628906 -12.703125 8.300781 -13 7.96875 -13.21875 C 7.632812 -13.4375 7.285156 -13.59375 6.921875 -13.6875 C 6.566406 -13.789062 6.195312 -13.832031 5.8125 -13.8125 C 5.425781 -13.789062 5.019531 -13.722656 4.59375 -13.609375 C 4.050781 -13.460938 3.585938 -13.269531 3.203125 -13.03125 C 2.816406 -12.789062 2.5 -12.515625 2.25 -12.203125 C 2 -11.898438 1.8125 -11.5625 1.6875 -11.1875 C 1.570312 -10.8125 1.492188 -10.414062 1.453125 -10 C 1.410156 -9.59375 1.421875 -9.164062 1.484375 -8.71875 C 1.554688 -8.28125 1.648438 -7.832031 1.765625 -7.375 C 1.898438 -6.894531 2.0625 -6.421875 2.25 -5.953125 C 2.445312 -5.492188 2.679688 -5.070312 2.953125 -4.6875 C 3.222656 -4.3125 3.53125 -3.972656 3.875 -3.671875 C 4.21875 -3.367188 4.59375 -3.128906 5 -2.953125 C 5.40625 -2.773438 5.859375 -2.671875 6.359375 -2.640625 C 6.859375 -2.609375 7.394531 -2.671875 7.96875 -2.828125 C 8.445312 -2.960938 8.878906 -3.160156 9.265625 -3.421875 C 9.648438 -3.679688 9.976562 -3.976562 10.25 -4.3125 C 10.519531 -4.65625 10.742188 -5.023438 10.921875 -5.421875 C 11.109375 -5.816406 11.253906 -6.210938 11.359375 -6.609375 C 11.359375 -6.640625 11.363281 -6.65625 11.375 -6.65625 C 11.394531 -6.664062 11.414062 -6.671875 11.4375 -6.671875 L 11.875 -6.796875 C 11.894531 -6.804688 11.914062 -6.800781 11.9375 -6.78125 C 11.957031 -6.769531 11.972656 -6.75 11.984375 -6.71875 C 11.984375 -6.695312 11.976562 -6.644531 11.96875 -6.5625 C 11.96875 -6.488281 11.960938 -6.425781 11.953125 -6.375 L 11.5 -3.453125 C 11.488281 -3.441406 11.472656 -3.425781 11.453125 -3.40625 C 11.429688 -3.382812 11.410156 -3.367188 11.390625 -3.359375 C 11.265625 -3.328125 11.164062 -3.316406 11.09375 -3.328125 C 11.03125 -3.335938 10.972656 -3.332031 10.921875 -3.3125 C 10.742188 -3.269531 10.523438 -3.179688 10.265625 -3.046875 C 10.003906 -2.910156 9.71875 -2.765625 9.40625 -2.609375 C 9.101562 -2.453125 8.796875 -2.300781 8.484375 -2.15625 C 8.171875 -2.007812 7.882812 -1.898438 7.625 -1.828125 C 7.019531 -1.660156 6.414062 -1.566406 5.8125 -1.546875 C 5.21875 -1.523438 4.640625 -1.566406 4.078125 -1.671875 C 3.515625 -1.785156 2.976562 -1.96875 2.46875 -2.21875 C 1.96875 -2.46875 1.507812 -2.78125 1.09375 -3.15625 C 0.675781 -3.53125 0.3125 -3.96875 0 -4.46875 C -0.3125 -4.96875 -0.550781 -5.53125 -0.71875 -6.15625 Z M -0.71875 -6.15625 "/></g></g></g><g fill="#1e1e1e" fill-opacity="1"><g transform="translate(17.461265, 20.530158)"><g><path d="M 1.984375 -8.8125 C 2.003906 -8.820312 2.023438 -8.832031 2.046875 -8.84375 C 2.078125 -8.863281 2.097656 -8.875 2.109375 -8.875 C 2.210938 -8.894531 2.273438 -8.835938 2.296875 -8.703125 L 2.578125 -7.234375 C 2.578125 -7.210938 2.578125 -7.1875 2.578125 -7.15625 C 2.585938 -7.132812 2.609375 -7.128906 2.640625 -7.140625 C 2.671875 -7.140625 2.691406 -7.148438 2.703125 -7.171875 C 2.710938 -7.203125 2.722656 -7.226562 2.734375 -7.25 C 2.816406 -7.394531 2.90625 -7.566406 3 -7.765625 C 3.101562 -7.972656 3.210938 -8.160156 3.328125 -8.328125 C 3.441406 -8.503906 3.566406 -8.660156 3.703125 -8.796875 C 3.847656 -8.929688 4 -9.015625 4.15625 -9.046875 C 4.25 -9.066406 4.382812 -9.0625 4.5625 -9.03125 C 4.75 -9 4.925781 -8.957031 5.09375 -8.90625 C 5.269531 -8.863281 5.421875 -8.8125 5.546875 -8.75 C 5.679688 -8.695312 5.753906 -8.644531 5.765625 -8.59375 C 5.773438 -8.539062 5.765625 -8.4375 5.734375 -8.28125 C 5.703125 -8.125 5.660156 -7.96875 5.609375 -7.8125 C 5.566406 -7.65625 5.515625 -7.507812 5.453125 -7.375 C 5.390625 -7.25 5.316406 -7.175781 5.234375 -7.15625 L 5.21875 -7.15625 C 5.101562 -7.164062 4.984375 -7.1875 4.859375 -7.21875 C 4.742188 -7.25 4.628906 -7.273438 4.515625 -7.296875 C 4.410156 -7.328125 4.296875 -7.347656 4.171875 -7.359375 C 4.046875 -7.378906 3.921875 -7.378906 3.796875 -7.359375 C 3.628906 -7.328125 3.476562 -7.253906 3.34375 -7.140625 C 3.207031 -7.035156 3.09375 -6.914062 3 -6.78125 C 2.914062 -6.644531 2.859375 -6.503906 2.828125 -6.359375 C 2.796875 -6.210938 2.789062 -6.078125 2.8125 -5.953125 L 3.515625 -2.296875 C 3.546875 -2.117188 3.601562 -1.984375 3.6875 -1.890625 C 3.78125 -1.796875 3.890625 -1.722656 4.015625 -1.671875 C 4.148438 -1.617188 4.285156 -1.585938 4.421875 -1.578125 C 4.566406 -1.566406 4.703125 -1.554688 4.828125 -1.546875 C 4.960938 -1.546875 5.082031 -1.550781 5.1875 -1.5625 C 5.300781 -1.570312 5.390625 -1.566406 5.453125 -1.546875 C 5.503906 -1.535156 5.546875 -1.460938 5.578125 -1.328125 C 5.609375 -1.160156 5.597656 -1.066406 5.546875 -1.046875 L 0.53125 -0.109375 C 0.46875 -0.0976562 0.421875 -0.175781 0.390625 -0.34375 C 0.359375 -0.476562 0.375 -0.566406 0.4375 -0.609375 C 0.5 -0.660156 0.597656 -0.707031 0.734375 -0.75 C 0.867188 -0.800781 1 -0.867188 1.125 -0.953125 C 1.257812 -1.035156 1.363281 -1.15625 1.4375 -1.3125 C 1.519531 -1.46875 1.539062 -1.671875 1.5 -1.921875 L 0.703125 -6.078125 C 0.679688 -6.222656 0.625 -6.328125 0.53125 -6.390625 C 0.4375 -6.453125 0.328125 -6.492188 0.203125 -6.515625 C 0.0859375 -6.535156 -0.0351562 -6.546875 -0.171875 -6.546875 C -0.316406 -6.546875 -0.453125 -6.550781 -0.578125 -6.5625 C -0.617188 -6.570312 -0.648438 -6.582031 -0.671875 -6.59375 C -0.703125 -6.601562 -0.722656 -6.640625 -0.734375 -6.703125 C -0.742188 -6.734375 -0.738281 -6.765625 -0.71875 -6.796875 C -0.707031 -6.828125 -0.675781 -6.863281 -0.625 -6.90625 Z M 1.984375 -8.8125 "/></g></g></g><g fill="#1e1e1e" fill-opacity="1"><g transform="translate(23.834296, 19.242641)"><g><path d="M 0.15625 -4.171875 C 0.0820312 -4.722656 0.132812 -5.265625 0.3125 -5.796875 C 0.488281 -6.328125 0.757812 -6.804688 1.125 -7.234375 C 1.488281 -7.671875 1.925781 -8.035156 2.4375 -8.328125 C 2.957031 -8.628906 3.515625 -8.816406 4.109375 -8.890625 C 4.742188 -8.960938 5.359375 -8.925781 5.953125 -8.78125 C 6.546875 -8.644531 7.082031 -8.414062 7.5625 -8.09375 C 8.039062 -7.769531 8.429688 -7.367188 8.734375 -6.890625 C 9.046875 -6.410156 9.238281 -5.867188 9.3125 -5.265625 C 9.382812 -4.660156 9.335938 -4.082031 9.171875 -3.53125 C 9.015625 -2.976562 8.753906 -2.484375 8.390625 -2.046875 C 8.035156 -1.617188 7.585938 -1.257812 7.046875 -0.96875 C 6.515625 -0.675781 5.910156 -0.488281 5.234375 -0.40625 C 4.585938 -0.332031 3.972656 -0.367188 3.390625 -0.515625 C 2.804688 -0.671875 2.28125 -0.914062 1.8125 -1.25 C 1.351562 -1.59375 0.976562 -2.007812 0.6875 -2.5 C 0.40625 -3 0.226562 -3.554688 0.15625 -4.171875 Z M 2.328125 -5 C 2.367188 -4.6875 2.429688 -4.363281 2.515625 -4.03125 C 2.609375 -3.695312 2.71875 -3.375 2.84375 -3.0625 C 2.976562 -2.757812 3.132812 -2.476562 3.3125 -2.21875 C 3.488281 -1.957031 3.6875 -1.734375 3.90625 -1.546875 C 4.132812 -1.359375 4.382812 -1.21875 4.65625 -1.125 C 4.925781 -1.03125 5.210938 -1.003906 5.515625 -1.046875 C 5.859375 -1.085938 6.144531 -1.210938 6.375 -1.421875 C 6.601562 -1.640625 6.773438 -1.898438 6.890625 -2.203125 C 7.015625 -2.503906 7.09375 -2.835938 7.125 -3.203125 C 7.164062 -3.578125 7.160156 -3.9375 7.109375 -4.28125 C 7.078125 -4.570312 7.015625 -4.867188 6.921875 -5.171875 C 6.835938 -5.484375 6.722656 -5.789062 6.578125 -6.09375 C 6.441406 -6.394531 6.273438 -6.675781 6.078125 -6.9375 C 5.890625 -7.207031 5.679688 -7.4375 5.453125 -7.625 C 5.222656 -7.820312 4.972656 -7.96875 4.703125 -8.0625 C 4.441406 -8.164062 4.171875 -8.195312 3.890625 -8.15625 C 3.554688 -8.113281 3.28125 -7.992188 3.0625 -7.796875 C 2.84375 -7.597656 2.671875 -7.34375 2.546875 -7.03125 C 2.421875 -6.726562 2.34375 -6.394531 2.3125 -6.03125 C 2.28125 -5.675781 2.285156 -5.332031 2.328125 -5 Z M 2.328125 -5 "/></g></g></g><g fill="#1e1e1e" fill-opacity="1"><g transform="translate(33.569033, 18.075021)"><g><path d="M 1.734375 -0.15625 C 1.679688 -0.144531 1.632812 -0.125 1.59375 -0.09375 C 1.550781 -0.0703125 1.515625 -0.0390625 1.484375 0 C 1.453125 0.0390625 1.414062 0.078125 1.375 0.109375 C 1.34375 0.140625 1.304688 0.15625 1.265625 0.15625 L 0.9375 0.171875 C 0.925781 0.171875 0.90625 0.09375 0.875 -0.0625 C 0.84375 -0.226562 0.804688 -0.429688 0.765625 -0.671875 C 0.722656 -0.910156 0.679688 -1.15625 0.640625 -1.40625 C 0.609375 -1.664062 0.585938 -1.882812 0.578125 -2.0625 C 0.578125 -2.15625 0.609375 -2.21875 0.671875 -2.25 C 0.734375 -2.28125 0.800781 -2.296875 0.875 -2.296875 C 0.914062 -2.296875 0.960938 -2.28125 1.015625 -2.25 C 1.078125 -2.226562 1.128906 -2.195312 1.171875 -2.15625 C 1.210938 -2.113281 1.253906 -2.070312 1.296875 -2.03125 C 1.335938 -1.988281 1.367188 -1.945312 1.390625 -1.90625 C 1.503906 -1.6875 1.613281 -1.492188 1.71875 -1.328125 C 1.832031 -1.171875 1.957031 -1.03125 2.09375 -0.90625 C 2.238281 -0.789062 2.394531 -0.703125 2.5625 -0.640625 C 2.738281 -0.585938 2.953125 -0.570312 3.203125 -0.59375 C 3.390625 -0.601562 3.539062 -0.640625 3.65625 -0.703125 C 3.78125 -0.773438 3.867188 -0.867188 3.921875 -0.984375 C 3.972656 -1.097656 4.003906 -1.222656 4.015625 -1.359375 C 4.035156 -1.492188 4.039062 -1.632812 4.03125 -1.78125 C 4.007812 -2.070312 3.90625 -2.3125 3.71875 -2.5 C 3.53125 -2.695312 3.300781 -2.875 3.03125 -3.03125 C 2.757812 -3.195312 2.460938 -3.359375 2.140625 -3.515625 C 1.828125 -3.679688 1.53125 -3.875 1.25 -4.09375 C 0.976562 -4.3125 0.742188 -4.582031 0.546875 -4.90625 C 0.347656 -5.226562 0.234375 -5.632812 0.203125 -6.125 C 0.191406 -6.40625 0.265625 -6.679688 0.421875 -6.953125 C 0.578125 -7.234375 0.789062 -7.488281 1.0625 -7.71875 C 1.332031 -7.945312 1.640625 -8.128906 1.984375 -8.265625 C 2.328125 -8.410156 2.671875 -8.492188 3.015625 -8.515625 C 3.203125 -8.523438 3.382812 -8.519531 3.5625 -8.5 C 3.738281 -8.476562 3.90625 -8.453125 4.0625 -8.421875 C 4.21875 -8.390625 4.351562 -8.351562 4.46875 -8.3125 C 4.582031 -8.28125 4.65625 -8.257812 4.6875 -8.25 C 4.726562 -8.21875 4.765625 -8.171875 4.796875 -8.109375 C 4.828125 -8.054688 4.847656 -7.960938 4.859375 -7.828125 C 4.878906 -7.691406 4.894531 -7.507812 4.90625 -7.28125 C 4.925781 -7.050781 4.945312 -6.753906 4.96875 -6.390625 C 4.976562 -6.296875 4.945312 -6.222656 4.875 -6.171875 C 4.800781 -6.117188 4.726562 -6.09375 4.65625 -6.09375 C 4.59375 -6.082031 4.53125 -6.085938 4.46875 -6.109375 C 4.40625 -6.140625 4.367188 -6.175781 4.359375 -6.21875 C 4.273438 -6.40625 4.179688 -6.585938 4.078125 -6.765625 C 3.984375 -6.941406 3.875 -7.101562 3.75 -7.25 C 3.632812 -7.394531 3.492188 -7.503906 3.328125 -7.578125 C 3.171875 -7.660156 2.992188 -7.695312 2.796875 -7.6875 C 2.679688 -7.675781 2.5625 -7.65625 2.4375 -7.625 C 2.320312 -7.59375 2.21875 -7.53125 2.125 -7.4375 C 2.039062 -7.34375 1.976562 -7.21875 1.9375 -7.0625 C 1.894531 -6.914062 1.878906 -6.726562 1.890625 -6.5 C 1.898438 -6.300781 2 -6.117188 2.1875 -5.953125 C 2.382812 -5.796875 2.625 -5.640625 2.90625 -5.484375 C 3.195312 -5.328125 3.507812 -5.15625 3.84375 -4.96875 C 4.1875 -4.789062 4.503906 -4.582031 4.796875 -4.34375 C 5.085938 -4.113281 5.335938 -3.835938 5.546875 -3.515625 C 5.753906 -3.191406 5.867188 -2.800781 5.890625 -2.34375 C 5.910156 -2 5.84375 -1.679688 5.6875 -1.390625 C 5.53125 -1.109375 5.316406 -0.863281 5.046875 -0.65625 C 4.785156 -0.457031 4.488281 -0.296875 4.15625 -0.171875 C 3.832031 -0.046875 3.507812 0.0234375 3.1875 0.046875 C 3.019531 0.0546875 2.851562 0.0507812 2.6875 0.03125 C 2.519531 0.0195312 2.363281 0 2.21875 -0.03125 C 2.082031 -0.0703125 1.96875 -0.101562 1.875 -0.125 C 1.789062 -0.144531 1.742188 -0.15625 1.734375 -0.15625 Z M 1.734375 -0.15625 "/></g></g></g><g fill="#1e1e1e" fill-opacity="1"><g transform="translate(39.562149, 17.692631)"><g><path d="M 1.734375 -0.078125 C 1.679688 -0.0664062 1.632812 -0.046875 1.59375 -0.015625 C 1.550781 0.00390625 1.507812 0.0351562 1.46875 0.078125 C 1.4375 0.117188 1.398438 0.148438 1.359375 0.171875 C 1.328125 0.203125 1.289062 0.21875 1.25 0.21875 L 0.921875 0.21875 C 0.910156 0.21875 0.894531 0.132812 0.875 -0.03125 C 0.851562 -0.195312 0.828125 -0.398438 0.796875 -0.640625 C 0.765625 -0.878906 0.734375 -1.125 0.703125 -1.375 C 0.679688 -1.632812 0.671875 -1.851562 0.671875 -2.03125 C 0.671875 -2.125 0.703125 -2.179688 0.765625 -2.203125 C 0.835938 -2.234375 0.910156 -2.25 0.984375 -2.25 C 1.023438 -2.25 1.070312 -2.234375 1.125 -2.203125 C 1.175781 -2.171875 1.222656 -2.132812 1.265625 -2.09375 C 1.304688 -2.050781 1.34375 -2.003906 1.375 -1.953125 C 1.414062 -1.910156 1.445312 -1.867188 1.46875 -1.828125 C 1.582031 -1.609375 1.6875 -1.414062 1.78125 -1.25 C 1.882812 -1.082031 2 -0.9375 2.125 -0.8125 C 2.257812 -0.6875 2.414062 -0.585938 2.59375 -0.515625 C 2.769531 -0.453125 2.984375 -0.425781 3.234375 -0.4375 C 3.421875 -0.4375 3.570312 -0.46875 3.6875 -0.53125 C 3.800781 -0.59375 3.890625 -0.679688 3.953125 -0.796875 C 4.015625 -0.910156 4.054688 -1.035156 4.078125 -1.171875 C 4.097656 -1.304688 4.109375 -1.445312 4.109375 -1.59375 C 4.097656 -1.882812 4.003906 -2.128906 3.828125 -2.328125 C 3.648438 -2.523438 3.425781 -2.707031 3.15625 -2.875 C 2.894531 -3.050781 2.609375 -3.226562 2.296875 -3.40625 C 1.992188 -3.59375 1.707031 -3.800781 1.4375 -4.03125 C 1.175781 -4.269531 0.953125 -4.554688 0.765625 -4.890625 C 0.585938 -5.222656 0.5 -5.632812 0.5 -6.125 C 0.488281 -6.40625 0.570312 -6.675781 0.75 -6.9375 C 0.925781 -7.207031 1.148438 -7.445312 1.421875 -7.65625 C 1.703125 -7.875 2.015625 -8.046875 2.359375 -8.171875 C 2.710938 -8.296875 3.0625 -8.359375 3.40625 -8.359375 C 3.59375 -8.359375 3.773438 -8.34375 3.953125 -8.3125 C 4.140625 -8.289062 4.3125 -8.257812 4.46875 -8.21875 C 4.625 -8.175781 4.753906 -8.132812 4.859375 -8.09375 C 4.972656 -8.050781 5.046875 -8.03125 5.078125 -8.03125 C 5.117188 -8 5.148438 -7.953125 5.171875 -7.890625 C 5.203125 -7.828125 5.222656 -7.726562 5.234375 -7.59375 C 5.253906 -7.457031 5.265625 -7.273438 5.265625 -7.046875 C 5.265625 -6.816406 5.269531 -6.519531 5.28125 -6.15625 C 5.28125 -6.0625 5.242188 -5.988281 5.171875 -5.9375 C 5.097656 -5.882812 5.023438 -5.859375 4.953125 -5.859375 C 4.890625 -5.859375 4.828125 -5.867188 4.765625 -5.890625 C 4.703125 -5.921875 4.664062 -5.960938 4.65625 -6.015625 C 4.582031 -6.203125 4.5 -6.382812 4.40625 -6.5625 C 4.3125 -6.75 4.207031 -6.914062 4.09375 -7.0625 C 3.976562 -7.207031 3.835938 -7.320312 3.671875 -7.40625 C 3.515625 -7.5 3.335938 -7.546875 3.140625 -7.546875 C 3.023438 -7.546875 2.910156 -7.53125 2.796875 -7.5 C 2.679688 -7.46875 2.578125 -7.40625 2.484375 -7.3125 C 2.390625 -7.226562 2.316406 -7.113281 2.265625 -6.96875 C 2.210938 -6.820312 2.1875 -6.632812 2.1875 -6.40625 C 2.195312 -6.207031 2.289062 -6.019531 2.46875 -5.84375 C 2.65625 -5.675781 2.890625 -5.507812 3.171875 -5.34375 C 3.453125 -5.175781 3.753906 -4.992188 4.078125 -4.796875 C 4.410156 -4.597656 4.71875 -4.375 5 -4.125 C 5.28125 -3.875 5.515625 -3.578125 5.703125 -3.234375 C 5.898438 -2.898438 6 -2.503906 6 -2.046875 C 6.007812 -1.703125 5.925781 -1.394531 5.75 -1.125 C 5.570312 -0.851562 5.347656 -0.617188 5.078125 -0.421875 C 4.804688 -0.234375 4.5 -0.0859375 4.15625 0.015625 C 3.820312 0.128906 3.492188 0.1875 3.171875 0.1875 C 3.003906 0.1875 2.835938 0.175781 2.671875 0.15625 C 2.503906 0.132812 2.351562 0.101562 2.21875 0.0625 C 2.082031 0.0195312 1.96875 -0.0078125 1.875 -0.03125 C 1.789062 -0.0625 1.742188 -0.078125 1.734375 -0.078125 Z M 1.734375 -0.078125 "/></g></g></g><g fill="#1e1e1e" fill-opacity="1"><g transform="translate(45.496828, 17.525814)"><g><path d="M 8.171875 -6.8125 C 8.253906 -6.8125 8.363281 -6.816406 8.5 -6.828125 C 8.632812 -6.835938 8.765625 -6.875 8.890625 -6.9375 C 9.015625 -7.007812 9.128906 -7.117188 9.234375 -7.265625 C 9.335938 -7.421875 9.394531 -7.640625 9.40625 -7.921875 C 9.414062 -7.972656 9.441406 -8 9.484375 -8 L 9.828125 -7.96875 C 9.878906 -7.96875 9.898438 -7.941406 9.890625 -7.890625 L 9.71875 -4.359375 C 9.71875 -4.328125 9.707031 -4.304688 9.6875 -4.296875 C 9.675781 -4.296875 9.660156 -4.296875 9.640625 -4.296875 L 9.296875 -4.328125 C 9.273438 -4.328125 9.257812 -4.332031 9.25 -4.34375 C 9.238281 -4.363281 9.234375 -4.378906 9.234375 -4.390625 C 9.253906 -4.710938 9.21875 -4.960938 9.125 -5.140625 C 9.039062 -5.316406 8.941406 -5.445312 8.828125 -5.53125 C 8.710938 -5.625 8.585938 -5.679688 8.453125 -5.703125 C 8.316406 -5.722656 8.207031 -5.734375 8.125 -5.734375 L 5.203125 -5.890625 C 5.128906 -5.890625 5.070312 -5.863281 5.03125 -5.8125 C 5 -5.769531 4.976562 -5.710938 4.96875 -5.640625 L 4.765625 -1.421875 C 4.753906 -1.265625 4.773438 -1.128906 4.828125 -1.015625 C 4.890625 -0.910156 4.972656 -0.816406 5.078125 -0.734375 C 5.191406 -0.648438 5.316406 -0.570312 5.453125 -0.5 C 5.597656 -0.425781 5.757812 -0.359375 5.9375 -0.296875 C 6.03125 -0.273438 6.125 -0.25 6.21875 -0.21875 C 6.320312 -0.1875 6.40625 -0.171875 6.46875 -0.171875 C 6.488281 -0.171875 6.5 -0.160156 6.5 -0.140625 C 6.507812 -0.117188 6.515625 -0.109375 6.515625 -0.109375 L 6.5 0.234375 C 6.5 0.253906 6.492188 0.269531 6.484375 0.28125 C 6.472656 0.300781 6.457031 0.3125 6.4375 0.3125 L 0.828125 0.046875 C 0.796875 0.0351562 0.773438 0.0195312 0.765625 0 C 0.765625 -0.0078125 0.765625 -0.0234375 0.765625 -0.046875 L 0.78125 -0.390625 C 0.78125 -0.398438 0.785156 -0.410156 0.796875 -0.421875 C 0.804688 -0.441406 0.828125 -0.445312 0.859375 -0.4375 C 0.921875 -0.4375 1.003906 -0.445312 1.109375 -0.46875 C 1.210938 -0.488281 1.289062 -0.507812 1.34375 -0.53125 C 1.59375 -0.632812 1.800781 -0.773438 1.96875 -0.953125 C 2.144531 -1.128906 2.238281 -1.347656 2.25 -1.609375 L 2.71875 -10.984375 C 2.726562 -11.210938 2.675781 -11.390625 2.5625 -11.515625 C 2.445312 -11.648438 2.3125 -11.753906 2.15625 -11.828125 C 2.007812 -11.910156 1.863281 -11.960938 1.71875 -11.984375 C 1.582031 -12.003906 1.5 -12.015625 1.46875 -12.015625 L 1.4375 -12.015625 C 1.40625 -12.015625 1.382812 -12.023438 1.375 -12.046875 C 1.363281 -12.078125 1.359375 -12.097656 1.359375 -12.109375 L 1.375 -12.3125 C 1.375 -12.320312 1.378906 -12.332031 1.390625 -12.34375 C 1.398438 -12.363281 1.421875 -12.375 1.453125 -12.375 L 10.140625 -11.953125 C 10.210938 -11.941406 10.265625 -11.921875 10.296875 -11.890625 C 10.335938 -11.867188 10.351562 -11.816406 10.34375 -11.734375 L 10.234375 -9.328125 C 10.234375 -9.265625 10.207031 -9.222656 10.15625 -9.203125 C 10.113281 -9.191406 10.066406 -9.1875 10.015625 -9.1875 L 9.84375 -9.203125 C 9.820312 -9.210938 9.800781 -9.265625 9.78125 -9.359375 C 9.769531 -9.453125 9.753906 -9.566406 9.734375 -9.703125 C 9.710938 -9.835938 9.675781 -9.972656 9.625 -10.109375 C 9.582031 -10.242188 9.53125 -10.351562 9.46875 -10.4375 C 9.394531 -10.519531 9.316406 -10.59375 9.234375 -10.65625 C 9.160156 -10.71875 9.078125 -10.769531 8.984375 -10.8125 C 8.890625 -10.851562 8.785156 -10.878906 8.671875 -10.890625 C 8.554688 -10.910156 8.410156 -10.925781 8.234375 -10.9375 L 5.4375 -11.078125 C 5.3125 -11.078125 5.242188 -11.019531 5.234375 -10.90625 L 5.046875 -7.171875 C 5.046875 -7.035156 5.117188 -6.96875 5.265625 -6.96875 Z M 8.171875 -6.8125 "/></g></g></g><g fill="#1e1e1e" fill-opacity="1"><g transform="translate(55.355033, 17.980756)"><g><path d="M 1.171875 -4.015625 C 1.242188 -4.554688 1.429688 -5.0625 1.734375 -5.53125 C 2.035156 -6.007812 2.414062 -6.410156 2.875 -6.734375 C 3.34375 -7.066406 3.859375 -7.3125 4.421875 -7.46875 C 4.992188 -7.632812 5.578125 -7.675781 6.171875 -7.59375 C 6.804688 -7.519531 7.394531 -7.335938 7.9375 -7.046875 C 8.476562 -6.765625 8.9375 -6.40625 9.3125 -5.96875 C 9.695312 -5.539062 9.976562 -5.050781 10.15625 -4.5 C 10.34375 -3.957031 10.398438 -3.390625 10.328125 -2.796875 C 10.253906 -2.191406 10.066406 -1.644531 9.765625 -1.15625 C 9.472656 -0.664062 9.097656 -0.253906 8.640625 0.078125 C 8.179688 0.410156 7.65625 0.648438 7.0625 0.796875 C 6.476562 0.953125 5.847656 0.984375 5.171875 0.890625 C 4.523438 0.804688 3.9375 0.617188 3.40625 0.328125 C 2.882812 0.0351562 2.441406 -0.328125 2.078125 -0.765625 C 1.710938 -1.203125 1.453125 -1.695312 1.296875 -2.25 C 1.140625 -2.8125 1.097656 -3.398438 1.171875 -4.015625 Z M 3.5 -4.265625 C 3.457031 -3.953125 3.4375 -3.625 3.4375 -3.28125 C 3.4375 -2.9375 3.460938 -2.597656 3.515625 -2.265625 C 3.566406 -1.941406 3.644531 -1.628906 3.75 -1.328125 C 3.863281 -1.023438 4.003906 -0.757812 4.171875 -0.53125 C 4.347656 -0.300781 4.550781 -0.109375 4.78125 0.046875 C 5.019531 0.203125 5.296875 0.300781 5.609375 0.34375 C 5.953125 0.382812 6.253906 0.328125 6.515625 0.171875 C 6.785156 0.0234375 7.019531 -0.175781 7.21875 -0.4375 C 7.414062 -0.695312 7.578125 -1 7.703125 -1.34375 C 7.828125 -1.695312 7.910156 -2.046875 7.953125 -2.390625 C 7.992188 -2.679688 8.003906 -2.988281 7.984375 -3.3125 C 7.972656 -3.632812 7.9375 -3.957031 7.875 -4.28125 C 7.8125 -4.601562 7.722656 -4.914062 7.609375 -5.21875 C 7.492188 -5.53125 7.347656 -5.804688 7.171875 -6.046875 C 6.992188 -6.285156 6.789062 -6.484375 6.5625 -6.640625 C 6.332031 -6.804688 6.078125 -6.910156 5.796875 -6.953125 C 5.460938 -6.992188 5.160156 -6.941406 4.890625 -6.796875 C 4.628906 -6.648438 4.398438 -6.445312 4.203125 -6.1875 C 4.003906 -5.925781 3.847656 -5.625 3.734375 -5.28125 C 3.617188 -4.9375 3.539062 -4.597656 3.5 -4.265625 Z M 3.5 -4.265625 "/></g></g></g><g fill="#1e1e1e" fill-opacity="1"><g transform="translate(65.02007, 19.177796)"><g><path d="M 1.46875 -3.921875 C 1.582031 -4.453125 1.8125 -4.9375 2.15625 -5.375 C 2.5 -5.820312 2.910156 -6.191406 3.390625 -6.484375 C 3.878906 -6.785156 4.410156 -6.992188 4.984375 -7.109375 C 5.554688 -7.222656 6.140625 -7.21875 6.734375 -7.09375 C 7.359375 -6.96875 7.929688 -6.742188 8.453125 -6.421875 C 8.972656 -6.097656 9.40625 -5.703125 9.75 -5.234375 C 10.09375 -4.773438 10.332031 -4.265625 10.46875 -3.703125 C 10.613281 -3.148438 10.628906 -2.582031 10.515625 -2 C 10.390625 -1.40625 10.160156 -0.875 9.828125 -0.40625 C 9.503906 0.0625 9.097656 0.445312 8.609375 0.75 C 8.117188 1.050781 7.578125 1.25 6.984375 1.34375 C 6.390625 1.445312 5.757812 1.429688 5.09375 1.296875 C 4.445312 1.160156 3.875 0.925781 3.375 0.59375 C 2.875 0.257812 2.457031 -0.140625 2.125 -0.609375 C 1.800781 -1.078125 1.578125 -1.59375 1.453125 -2.15625 C 1.335938 -2.726562 1.34375 -3.316406 1.46875 -3.921875 Z M 3.796875 -3.984375 C 3.734375 -3.671875 3.691406 -3.34375 3.671875 -3 C 3.648438 -2.664062 3.65625 -2.332031 3.6875 -2 C 3.71875 -1.664062 3.773438 -1.34375 3.859375 -1.03125 C 3.941406 -0.726562 4.054688 -0.453125 4.203125 -0.203125 C 4.347656 0.046875 4.535156 0.253906 4.765625 0.421875 C 4.992188 0.585938 5.265625 0.703125 5.578125 0.765625 C 5.910156 0.835938 6.21875 0.8125 6.5 0.6875 C 6.78125 0.5625 7.023438 0.375 7.234375 0.125 C 7.453125 -0.125 7.632812 -0.414062 7.78125 -0.75 C 7.9375 -1.082031 8.050781 -1.425781 8.125 -1.78125 C 8.175781 -2.0625 8.207031 -2.363281 8.21875 -2.6875 C 8.238281 -3.007812 8.226562 -3.332031 8.1875 -3.65625 C 8.15625 -3.988281 8.085938 -4.3125 7.984375 -4.625 C 7.890625 -4.9375 7.765625 -5.21875 7.609375 -5.46875 C 7.453125 -5.726562 7.265625 -5.945312 7.046875 -6.125 C 6.835938 -6.3125 6.59375 -6.429688 6.3125 -6.484375 C 5.976562 -6.554688 5.675781 -6.53125 5.40625 -6.40625 C 5.132812 -6.28125 4.890625 -6.09375 4.671875 -5.84375 C 4.460938 -5.59375 4.28125 -5.300781 4.125 -4.96875 C 3.976562 -4.644531 3.867188 -4.316406 3.796875 -3.984375 Z M 3.796875 -3.984375 "/></g></g></g><g fill="#1e1e1e" fill-opacity="1"><g transform="translate(74.568099, 21.118641)"><g><path d="M 12.125 -11.5625 C 12.144531 -11.5625 12.171875 -11.566406 12.203125 -11.578125 C 12.234375 -11.585938 12.253906 -11.585938 12.265625 -11.578125 C 12.359375 -11.554688 12.382812 -11.476562 12.34375 -11.34375 L 8.96875 0.46875 C 8.894531 0.71875 8.90625 0.910156 9 1.046875 C 9.09375 1.191406 9.269531 1.300781 9.53125 1.375 L 10.015625 1.484375 C 10.046875 1.492188 10.0625 1.515625 10.0625 1.546875 C 10.0625 1.578125 10.054688 1.609375 10.046875 1.640625 C 10.046875 1.648438 10.035156 1.660156 10.015625 1.671875 C 9.992188 1.691406 9.945312 1.710938 9.875 1.734375 L 6.640625 2.109375 C 6.628906 2.097656 6.597656 2.09375 6.546875 2.09375 C 6.492188 2.09375 6.46875 2.09375 6.46875 2.09375 C 6.425781 2.082031 6.40625 2.050781 6.40625 2 C 6.40625 1.957031 6.414062 1.910156 6.4375 1.859375 L 6.59375 1.265625 C 6.613281 1.222656 6.609375 1.195312 6.578125 1.1875 C 6.554688 1.1875 6.53125 1.1875 6.5 1.1875 C 6.257812 1.238281 6.035156 1.289062 5.828125 1.34375 C 5.628906 1.394531 5.425781 1.4375 5.21875 1.46875 C 5.019531 1.5 4.816406 1.503906 4.609375 1.484375 C 4.410156 1.472656 4.191406 1.4375 3.953125 1.375 C 3.441406 1.226562 3.007812 0.988281 2.65625 0.65625 C 2.3125 0.332031 2.046875 -0.0390625 1.859375 -0.46875 C 1.679688 -0.90625 1.582031 -1.367188 1.5625 -1.859375 C 1.539062 -2.359375 1.597656 -2.851562 1.734375 -3.34375 C 1.898438 -3.9375 2.171875 -4.453125 2.546875 -4.890625 C 2.929688 -5.335938 3.375 -5.6875 3.875 -5.9375 C 4.375 -6.195312 4.914062 -6.359375 5.5 -6.421875 C 6.082031 -6.492188 6.660156 -6.445312 7.234375 -6.28125 C 7.378906 -6.238281 7.503906 -6.1875 7.609375 -6.125 C 7.722656 -6.0625 7.820312 -6 7.90625 -5.9375 C 7.988281 -5.882812 8.070312 -5.828125 8.15625 -5.765625 C 8.25 -5.710938 8.359375 -5.671875 8.484375 -5.640625 C 8.503906 -5.628906 8.523438 -5.625 8.546875 -5.625 C 8.566406 -5.632812 8.585938 -5.664062 8.609375 -5.71875 L 9.75 -9.703125 C 9.789062 -9.847656 9.785156 -9.96875 9.734375 -10.0625 C 9.679688 -10.15625 9.601562 -10.238281 9.5 -10.3125 C 9.40625 -10.382812 9.296875 -10.453125 9.171875 -10.515625 C 9.046875 -10.578125 8.929688 -10.640625 8.828125 -10.703125 C 8.796875 -10.722656 8.773438 -10.742188 8.765625 -10.765625 C 8.753906 -10.796875 8.757812 -10.84375 8.78125 -10.90625 C 8.78125 -10.9375 8.789062 -10.960938 8.8125 -10.984375 C 8.832031 -11.015625 8.875 -11.035156 8.9375 -11.046875 Z M 3.765625 -3.171875 C 3.648438 -2.765625 3.582031 -2.359375 3.5625 -1.953125 C 3.550781 -1.546875 3.601562 -1.175781 3.71875 -0.84375 C 3.84375 -0.507812 4.03125 -0.210938 4.28125 0.046875 C 4.53125 0.304688 4.851562 0.492188 5.25 0.609375 C 5.3125 0.628906 5.425781 0.640625 5.59375 0.640625 C 5.769531 0.648438 5.941406 0.65625 6.109375 0.65625 C 6.285156 0.65625 6.445312 0.632812 6.59375 0.59375 C 6.738281 0.550781 6.820312 0.492188 6.84375 0.421875 L 8.0625 -3.796875 C 8.164062 -4.191406 8.113281 -4.546875 7.90625 -4.859375 C 7.707031 -5.179688 7.347656 -5.421875 6.828125 -5.578125 C 6.441406 -5.679688 6.085938 -5.679688 5.765625 -5.578125 C 5.441406 -5.484375 5.148438 -5.316406 4.890625 -5.078125 C 4.628906 -4.847656 4.398438 -4.5625 4.203125 -4.21875 C 4.015625 -3.882812 3.867188 -3.535156 3.765625 -3.171875 Z M 3.765625 -3.171875 "/></g></g></g></g></g></svg>