<svg xmlns="http://www.w3.org/2000/svg" xmlns:xlink="http://www.w3.org/1999/xlink" width="500" zoomAndPan="magnify" viewBox="0 0 375 374.999991" height="500" preserveAspectRatio="xMidYMid meet" version="1.0"><defs><g/><clipPath id="2d7e34c735"><path d="M 2 56 L 374 56 L 374 319.546875 L 2 319.546875 Z M 2 56 " clip-rule="nonzero"/></clipPath></defs><g clip-path="url(#2d7e34c735)"><path fill="#ffa726" d="M 373.515625 155.296875 C 372.0625 132.117188 354.40625 111.246094 332.113281 105.316406 C 317.800781 101.480469 301.472656 103.101562 288.398438 110.253906 C 287.835938 108.203125 287.167969 106.171875 286.402344 104.191406 C 277.367188 80.234375 253.753906 64.09375 229.179688 59.183594 C 224.34375 58.179688 219.449219 57.546875 214.542969 57.21875 C 200.40625 55.574219 187.601562 60.757812 175.824219 67.628906 C 145.144531 85.453125 119.90625 115.820312 83.007812 119.613281 C 82.367188 119.65625 81.828125 120.140625 81.757812 120.808594 C 81.679688 121.53125 82.207031 122.183594 82.9375 122.253906 C 89.167969 123.042969 95.492188 122.824219 101.695312 121.785156 C 120.195312 118.621094 137.105469 108.75 152.5625 99 C 170.582031 88.257812 191.957031 70.054688 212.800781 72.203125 C 238.632812 73.453125 265.085938 84.90625 278.519531 107.972656 C 279.769531 110.066406 280.902344 112.242188 281.90625 114.484375 C 278.484375 117.113281 275.414062 120.21875 272.828125 123.792969 C 269.714844 128.277344 267.726562 133.734375 267.847656 139.109375 C 267.867188 139.679688 268.253906 140.207031 268.84375 140.359375 C 269.554688 140.550781 270.292969 140.121094 270.480469 139.398438 C 271.71875 134.789062 274.296875 130.875 277.570312 127.707031 C 279.796875 125.65625 282.222656 123.855469 284.820312 122.296875 C 286.527344 121.265625 288.3125 120.351562 290.140625 119.542969 C 306.101562 112.460938 326.125 113.5625 340.421875 122.984375 C 350.351562 129.609375 357.628906 140.316406 359.53125 152.113281 C 360.339844 157.691406 359.960938 163.355469 359.390625 168.917969 C 357.585938 185.570312 349.261719 201.433594 334.269531 209.199219 C 325.253906 213.988281 315.214844 216.878906 305.019531 217.699219 C 285.796875 219.6875 270.726562 212.394531 254.425781 205.851562 C 266.660156 201.121094 278.539062 191.515625 278.847656 177.710938 C 278.863281 176.257812 276.792969 175.851562 276.257812 177.203125 C 272.734375 185.410156 266.15625 190.667969 258.421875 194.558594 C 253.148438 197.257812 247.492188 198.96875 242.03125 201.292969 C 242.03125 201.292969 242.03125 201.292969 242.027344 201.292969 C 239.90625 200.605469 237.742188 199.972656 235.535156 199.398438 C 230.230469 198.0625 224.890625 197.136719 219.539062 196.566406 C 219.535156 196.566406 219.535156 196.566406 219.53125 196.566406 C 230.78125 188.441406 239.425781 175.683594 242.074219 162.996094 C 243.570312 156.402344 243.914062 149.097656 241.078125 142.804688 C 240.445312 141.390625 238.273438 142.097656 238.558594 143.589844 C 239.46875 149.589844 238.058594 155.613281 235.886719 161.183594 C 230.238281 176.457031 217.835938 188.355469 203.273438 195.140625 C 202.835938 195.367188 202.386719 195.574219 201.945312 195.796875 C 195.886719 195.894531 189.824219 196.332031 183.773438 197.007812 C 184.160156 196.585938 184.542969 196.15625 184.914062 195.714844 C 191.597656 187.9375 195.980469 177.539062 195.464844 167.308594 C 195.4375 166.726562 195.035156 166.210938 194.441406 166.070312 C 193.714844 165.898438 192.984375 166.363281 192.832031 167.097656 C 192.140625 170.03125 191.167969 172.824219 189.957031 175.472656 C 186.296875 183.246094 180.285156 189.796875 173.09375 194.402344 C 154.78125 206.269531 127.242188 203.933594 108.765625 193.6875 C 98.777344 187.742188 91.132812 178.097656 82.773438 169.652344 C 81.738281 168.621094 80.066406 169.753906 80.5625 171.089844 C 82.847656 176.972656 85.613281 182.644531 89.117188 188.097656 C 96.296875 199.589844 106.058594 206.691406 117.957031 210.574219 C 117.953125 210.574219 117.953125 210.574219 117.953125 210.574219 C 113.722656 211.957031 109.570312 213.566406 105.558594 215.484375 C 94.914062 220.425781 84.480469 227.632812 72.8125 227.96875 C 47.175781 231.574219 22.402344 194.816406 17.070312 172.761719 C 12.292969 153.996094 20.652344 132.773438 37.367188 122.667969 C 58.507812 109.664062 85.050781 110.128906 108.152344 100.628906 C 118.851562 96.574219 127.992188 89.261719 137.433594 83.148438 C 138.785156 82.269531 137.679688 80.171875 136.164062 80.832031 C 126.082031 85.59375 116.765625 91.714844 106.070312 94.742188 C 90.257812 99.484375 73.09375 100.347656 56.714844 103.980469 C 45.171875 106.453125 33.320312 110.738281 23.96875 118.355469 C 7.875 131.09375 0.0117188 152.941406 3.855469 173.15625 C 7.550781 193.558594 22.390625 217.011719 38.402344 230.148438 C 48.125 238.199219 61.136719 243.882812 74.253906 242.203125 C 77.746094 242.105469 81.132812 241.550781 84.355469 240.722656 C 86.582031 256.65625 88.460938 272.664062 89.671875 288.675781 C 90.449219 298.265625 90.707031 309.757812 90.542969 319.394531 C 90.542969 319.394531 102.328125 313.890625 102.328125 313.890625 C 113.75 308.640625 126.738281 305.359375 139.242188 302.761719 C 173.597656 296.078125 224.507812 291.3125 257.453125 303.847656 C 258.082031 304.113281 258.820312 303.855469 259.136719 303.234375 C 259.472656 302.589844 259.21875 301.792969 258.570312 301.457031 C 225.773438 285.484375 173.210938 285.730469 137.160156 289.445312 C 126.789062 290.667969 116.644531 292.171875 106.566406 294.808594 C 104.398438 275.050781 100.839844 255.5625 96.992188 236.082031 C 96.992188 236.078125 96.992188 236.078125 96.996094 236.078125 C 104.210938 232.777344 110.746094 228.988281 118.214844 226.199219 C 127.164062 222.863281 136.636719 220.882812 146.128906 218.871094 C 160.488281 215.84375 175.136719 212.976562 189.609375 211.742188 C 206.199219 210.335938 222.714844 211.058594 238.480469 216.210938 C 247.691406 219.257812 256.410156 223.425781 265.59375 226.789062 C 265.597656 226.789062 265.597656 226.789062 265.601562 226.789062 C 264.046875 242.371094 264.089844 258.375 263.65625 274.035156 C 248.703125 269.027344 233.105469 266.300781 217.429688 264.988281 C 198.199219 263.601562 178.296875 264.738281 160.179688 271.679688 C 159.5625 271.917969 159.210938 272.585938 159.378906 273.242188 C 159.5625 273.949219 160.285156 274.371094 160.992188 274.1875 C 170.03125 271.839844 179.367188 271.039062 188.628906 271.171875 C 211.671875 271.667969 234.550781 277.316406 255.636719 286.371094 C 259.785156 288.1875 263.804688 290.203125 267.53125 292.382812 C 267.53125 292.382812 278.492188 297.59375 278.492188 297.59375 C 278.621094 294.398438 279.179688 284.621094 279.214844 281.558594 C 279.488281 265.25 278.847656 247.613281 279.882812 231.027344 C 300.527344 235.441406 322.78125 232.25 341.28125 222.007812 C 365.554688 208.8125 374.992188 181.644531 373.515625 155.296875 Z M 373.515625 155.296875 " fill-opacity="1" fill-rule="nonzero"/></g><g fill="#ffa726" fill-opacity="1"><g transform="translate(122.820561, 261.646072)"><g><path d="M -1.0625 -9.203125 C -1.320312 -10.140625 -1.445312 -11.0625 -1.4375 -11.96875 C -1.425781 -12.882812 -1.300781 -13.753906 -1.0625 -14.578125 C -0.832031 -15.398438 -0.488281 -16.179688 -0.03125 -16.921875 C 0.425781 -17.660156 0.972656 -18.320312 1.609375 -18.90625 C 2.242188 -19.5 2.953125 -20.015625 3.734375 -20.453125 C 4.523438 -20.890625 5.382812 -21.234375 6.3125 -21.484375 C 7.082031 -21.703125 7.847656 -21.835938 8.609375 -21.890625 C 9.367188 -21.953125 10.160156 -21.992188 10.984375 -22.015625 C 11.128906 -22.023438 11.273438 -22.019531 11.421875 -22 C 11.566406 -21.988281 11.707031 -21.972656 11.84375 -21.953125 C 11.988281 -21.941406 12.113281 -21.9375 12.21875 -21.9375 C 12.332031 -21.9375 12.414062 -21.941406 12.46875 -21.953125 C 12.488281 -21.960938 12.539062 -21.992188 12.625 -22.046875 C 12.71875 -22.097656 12.78125 -22.132812 12.8125 -22.15625 L 13.40625 -22.3125 C 13.507812 -22.332031 13.582031 -22.269531 13.625 -22.125 L 14.734375 -18 C 14.753906 -17.9375 14.75 -17.894531 14.71875 -17.875 C 14.6875 -17.851562 14.601562 -17.820312 14.46875 -17.78125 C 14.445312 -17.769531 14.378906 -17.753906 14.265625 -17.734375 C 14.160156 -17.710938 14.09375 -17.71875 14.0625 -17.75 C 14.03125 -17.78125 13.984375 -17.820312 13.921875 -17.875 C 13.859375 -17.9375 13.785156 -18.003906 13.703125 -18.078125 C 13.628906 -18.148438 13.554688 -18.210938 13.484375 -18.265625 C 13.421875 -18.316406 13.378906 -18.359375 13.359375 -18.390625 C 12.878906 -18.941406 12.382812 -19.382812 11.875 -19.71875 C 11.375 -20.050781 10.851562 -20.285156 10.3125 -20.421875 C 9.78125 -20.566406 9.226562 -20.628906 8.65625 -20.609375 C 8.082031 -20.585938 7.476562 -20.488281 6.84375 -20.3125 C 6.039062 -20.09375 5.351562 -19.804688 4.78125 -19.453125 C 4.207031 -19.109375 3.734375 -18.695312 3.359375 -18.21875 C 2.992188 -17.75 2.71875 -17.234375 2.53125 -16.671875 C 2.34375 -16.117188 2.222656 -15.53125 2.171875 -14.90625 C 2.117188 -14.289062 2.132812 -13.65625 2.21875 -13 C 2.3125 -12.34375 2.453125 -11.675781 2.640625 -11 C 2.835938 -10.269531 3.078125 -9.566406 3.359375 -8.890625 C 3.648438 -8.210938 4 -7.582031 4.40625 -7 C 4.8125 -6.425781 5.265625 -5.914062 5.765625 -5.46875 C 6.273438 -5.019531 6.835938 -4.660156 7.453125 -4.390625 C 8.078125 -4.128906 8.757812 -3.976562 9.5 -3.9375 C 10.238281 -3.894531 11.035156 -3.988281 11.890625 -4.21875 C 12.597656 -4.40625 13.234375 -4.691406 13.796875 -5.078125 C 14.367188 -5.460938 14.863281 -5.910156 15.28125 -6.421875 C 15.695312 -6.941406 16.039062 -7.492188 16.3125 -8.078125 C 16.59375 -8.660156 16.800781 -9.253906 16.9375 -9.859375 C 16.945312 -9.910156 16.960938 -9.9375 16.984375 -9.9375 C 17.003906 -9.945312 17.03125 -9.957031 17.0625 -9.96875 L 17.71875 -10.140625 C 17.75 -10.148438 17.78125 -10.148438 17.8125 -10.140625 C 17.851562 -10.128906 17.878906 -10.085938 17.890625 -10.015625 C 17.898438 -9.992188 17.898438 -9.921875 17.890625 -9.796875 C 17.878906 -9.679688 17.863281 -9.582031 17.84375 -9.5 L 17.140625 -5.171875 C 17.117188 -5.128906 17.09375 -5.09375 17.0625 -5.0625 C 17.03125 -5.039062 17.003906 -5.03125 16.984375 -5.03125 C 16.785156 -4.976562 16.640625 -4.957031 16.546875 -4.96875 C 16.460938 -4.988281 16.375 -4.984375 16.28125 -4.953125 C 16.03125 -4.890625 15.707031 -4.753906 15.3125 -4.546875 C 14.925781 -4.335938 14.5 -4.113281 14.03125 -3.875 C 13.570312 -3.644531 13.109375 -3.421875 12.640625 -3.203125 C 12.171875 -2.984375 11.742188 -2.820312 11.359375 -2.71875 C 10.460938 -2.46875 9.570312 -2.328125 8.6875 -2.296875 C 7.800781 -2.265625 6.9375 -2.332031 6.09375 -2.5 C 5.257812 -2.664062 4.460938 -2.9375 3.703125 -3.3125 C 2.953125 -3.6875 2.257812 -4.148438 1.625 -4.703125 C 1 -5.265625 0.457031 -5.921875 0 -6.671875 C -0.457031 -7.421875 -0.8125 -8.265625 -1.0625 -9.203125 Z M -1.0625 -9.203125 "/></g></g></g><g fill="#ffa726" fill-opacity="1"><g transform="translate(141.789276, 256.650607)"><g><path d="M 2.96875 -13.125 C 2.988281 -13.144531 3.019531 -13.164062 3.0625 -13.1875 C 3.101562 -13.21875 3.128906 -13.234375 3.140625 -13.234375 C 3.296875 -13.265625 3.394531 -13.175781 3.4375 -12.96875 L 3.84375 -10.78125 C 3.851562 -10.757812 3.859375 -10.726562 3.859375 -10.6875 C 3.867188 -10.644531 3.894531 -10.628906 3.9375 -10.640625 C 3.976562 -10.648438 4.007812 -10.671875 4.03125 -10.703125 C 4.050781 -10.742188 4.066406 -10.78125 4.078125 -10.8125 C 4.210938 -11.050781 4.347656 -11.3125 4.484375 -11.59375 C 4.628906 -11.882812 4.789062 -12.160156 4.96875 -12.421875 C 5.144531 -12.691406 5.335938 -12.921875 5.546875 -13.109375 C 5.753906 -13.304688 5.96875 -13.429688 6.1875 -13.484375 C 6.34375 -13.503906 6.550781 -13.492188 6.8125 -13.453125 C 7.082031 -13.421875 7.34375 -13.367188 7.59375 -13.296875 C 7.851562 -13.222656 8.082031 -13.140625 8.28125 -13.046875 C 8.476562 -12.960938 8.582031 -12.878906 8.59375 -12.796875 C 8.613281 -12.710938 8.601562 -12.554688 8.5625 -12.328125 C 8.519531 -12.109375 8.460938 -11.878906 8.390625 -11.640625 C 8.316406 -11.398438 8.226562 -11.179688 8.125 -10.984375 C 8.019531 -10.796875 7.910156 -10.691406 7.796875 -10.671875 L 7.765625 -10.671875 C 7.597656 -10.691406 7.429688 -10.722656 7.265625 -10.765625 C 7.097656 -10.816406 6.925781 -10.859375 6.75 -10.890625 C 6.570312 -10.929688 6.390625 -10.957031 6.203125 -10.96875 C 6.023438 -10.988281 5.847656 -10.984375 5.671875 -10.953125 C 5.421875 -10.898438 5.191406 -10.796875 4.984375 -10.640625 C 4.785156 -10.492188 4.617188 -10.320312 4.484375 -10.125 C 4.359375 -9.925781 4.269531 -9.71875 4.21875 -9.5 C 4.175781 -9.28125 4.171875 -9.070312 4.203125 -8.875 L 5.234375 -3.421875 C 5.285156 -3.179688 5.378906 -2.984375 5.515625 -2.828125 C 5.648438 -2.679688 5.8125 -2.570312 6 -2.5 C 6.1875 -2.425781 6.382812 -2.378906 6.59375 -2.359375 C 6.8125 -2.335938 7.015625 -2.328125 7.203125 -2.328125 C 7.398438 -2.328125 7.578125 -2.332031 7.734375 -2.34375 C 7.898438 -2.351562 8.03125 -2.347656 8.125 -2.328125 C 8.195312 -2.304688 8.253906 -2.195312 8.296875 -2 C 8.347656 -1.75 8.335938 -1.601562 8.265625 -1.5625 L 0.796875 -0.15625 C 0.710938 -0.15625 0.644531 -0.28125 0.59375 -0.53125 C 0.550781 -0.726562 0.570312 -0.859375 0.65625 -0.921875 C 0.757812 -0.992188 0.910156 -1.0625 1.109375 -1.125 C 1.316406 -1.195312 1.507812 -1.296875 1.6875 -1.421875 C 1.875 -1.554688 2.023438 -1.734375 2.140625 -1.953125 C 2.265625 -2.171875 2.289062 -2.46875 2.21875 -2.84375 L 1.046875 -9.0625 C 1.003906 -9.269531 0.914062 -9.421875 0.78125 -9.515625 C 0.644531 -9.609375 0.488281 -9.671875 0.3125 -9.703125 C 0.132812 -9.734375 -0.0546875 -9.75 -0.265625 -9.75 C -0.472656 -9.75 -0.671875 -9.757812 -0.859375 -9.78125 C -0.921875 -9.789062 -0.96875 -9.804688 -1 -9.828125 C -1.039062 -9.859375 -1.070312 -9.921875 -1.09375 -10.015625 C -1.101562 -10.066406 -1.097656 -10.113281 -1.078125 -10.15625 C -1.054688 -10.195312 -1.007812 -10.242188 -0.9375 -10.296875 Z M 2.96875 -13.125 "/></g></g></g><g fill="#ffa726" fill-opacity="1"><g transform="translate(151.25043, 254.737003)"><g><path d="M 0.234375 -6.21875 C 0.128906 -7.03125 0.207031 -7.832031 0.46875 -8.625 C 0.738281 -9.414062 1.144531 -10.132812 1.6875 -10.78125 C 2.226562 -11.4375 2.878906 -11.984375 3.640625 -12.421875 C 4.398438 -12.867188 5.226562 -13.148438 6.125 -13.265625 C 7.070312 -13.378906 7.984375 -13.328125 8.859375 -13.109375 C 9.742188 -12.890625 10.539062 -12.535156 11.25 -12.046875 C 11.957031 -11.566406 12.546875 -10.96875 13.015625 -10.25 C 13.492188 -9.539062 13.785156 -8.742188 13.890625 -7.859375 C 14.003906 -6.953125 13.9375 -6.085938 13.6875 -5.265625 C 13.4375 -4.453125 13.039062 -3.71875 12.5 -3.0625 C 11.96875 -2.40625 11.300781 -1.859375 10.5 -1.421875 C 9.707031 -0.992188 8.816406 -0.722656 7.828125 -0.609375 C 6.847656 -0.484375 5.921875 -0.535156 5.046875 -0.765625 C 4.171875 -1.003906 3.394531 -1.375 2.71875 -1.875 C 2.039062 -2.382812 1.484375 -3.007812 1.046875 -3.75 C 0.609375 -4.5 0.335938 -5.320312 0.234375 -6.21875 Z M 3.46875 -7.453125 C 3.53125 -6.984375 3.625 -6.503906 3.75 -6.015625 C 3.882812 -5.523438 4.050781 -5.046875 4.25 -4.578125 C 4.445312 -4.117188 4.675781 -3.691406 4.9375 -3.296875 C 5.195312 -2.910156 5.492188 -2.578125 5.828125 -2.296875 C 6.171875 -2.015625 6.539062 -1.804688 6.9375 -1.671875 C 7.332031 -1.546875 7.765625 -1.515625 8.234375 -1.578125 C 8.753906 -1.640625 9.179688 -1.820312 9.515625 -2.125 C 9.847656 -2.4375 10.109375 -2.816406 10.296875 -3.265625 C 10.484375 -3.722656 10.601562 -4.222656 10.65625 -4.765625 C 10.707031 -5.316406 10.695312 -5.859375 10.625 -6.390625 C 10.570312 -6.816406 10.476562 -7.257812 10.34375 -7.71875 C 10.207031 -8.1875 10.03125 -8.640625 9.8125 -9.078125 C 9.59375 -9.523438 9.34375 -9.945312 9.0625 -10.34375 C 8.789062 -10.75 8.484375 -11.097656 8.140625 -11.390625 C 7.796875 -11.679688 7.425781 -11.894531 7.03125 -12.03125 C 6.644531 -12.175781 6.234375 -12.222656 5.796875 -12.171875 C 5.316406 -12.109375 4.910156 -11.925781 4.578125 -11.625 C 4.242188 -11.320312 3.984375 -10.941406 3.796875 -10.484375 C 3.617188 -10.023438 3.503906 -9.53125 3.453125 -9 C 3.398438 -8.46875 3.40625 -7.953125 3.46875 -7.453125 Z M 3.46875 -7.453125 "/></g></g></g><g fill="#ffa726" fill-opacity="1"><g transform="translate(165.727712, 252.998657)"><g><path d="M 2.59375 -0.234375 C 2.507812 -0.234375 2.4375 -0.207031 2.375 -0.15625 C 2.3125 -0.113281 2.253906 -0.0625 2.203125 0 C 2.160156 0.0625 2.109375 0.113281 2.046875 0.15625 C 1.992188 0.207031 1.9375 0.238281 1.875 0.25 L 1.390625 0.28125 C 1.378906 0.28125 1.347656 0.15625 1.296875 -0.09375 C 1.242188 -0.351562 1.1875 -0.65625 1.125 -1 C 1.0625 -1.351562 1.003906 -1.722656 0.953125 -2.109375 C 0.910156 -2.492188 0.878906 -2.8125 0.859375 -3.0625 C 0.859375 -3.195312 0.90625 -3.285156 1 -3.328125 C 1.101562 -3.378906 1.210938 -3.410156 1.328125 -3.421875 C 1.390625 -3.421875 1.457031 -3.398438 1.53125 -3.359375 C 1.613281 -3.328125 1.6875 -3.28125 1.75 -3.21875 C 1.8125 -3.15625 1.875 -3.085938 1.9375 -3.015625 C 2 -2.953125 2.039062 -2.894531 2.0625 -2.84375 C 2.226562 -2.53125 2.394531 -2.242188 2.5625 -1.984375 C 2.726562 -1.734375 2.914062 -1.519531 3.125 -1.34375 C 3.332031 -1.175781 3.566406 -1.050781 3.828125 -0.96875 C 4.097656 -0.882812 4.414062 -0.851562 4.78125 -0.875 C 5.0625 -0.882812 5.285156 -0.945312 5.453125 -1.0625 C 5.628906 -1.175781 5.757812 -1.3125 5.84375 -1.46875 C 5.925781 -1.632812 5.972656 -1.816406 5.984375 -2.015625 C 6.003906 -2.222656 6.007812 -2.4375 6 -2.65625 C 5.976562 -3.09375 5.820312 -3.453125 5.53125 -3.734375 C 5.25 -4.023438 4.90625 -4.285156 4.5 -4.515625 C 4.101562 -4.742188 3.664062 -4.984375 3.1875 -5.234375 C 2.71875 -5.484375 2.273438 -5.773438 1.859375 -6.109375 C 1.453125 -6.441406 1.101562 -6.847656 0.8125 -7.328125 C 0.519531 -7.804688 0.347656 -8.410156 0.296875 -9.140625 C 0.273438 -9.554688 0.378906 -9.972656 0.609375 -10.390625 C 0.847656 -10.804688 1.171875 -11.175781 1.578125 -11.5 C 1.984375 -11.832031 2.4375 -12.109375 2.9375 -12.328125 C 3.445312 -12.546875 3.960938 -12.671875 4.484375 -12.703125 C 4.753906 -12.722656 5.023438 -12.71875 5.296875 -12.6875 C 5.578125 -12.65625 5.835938 -12.613281 6.078125 -12.5625 C 6.316406 -12.519531 6.519531 -12.472656 6.6875 -12.421875 C 6.851562 -12.367188 6.957031 -12.328125 7 -12.296875 C 7.0625 -12.265625 7.113281 -12.203125 7.15625 -12.109375 C 7.195312 -12.023438 7.226562 -11.878906 7.25 -11.671875 C 7.28125 -11.472656 7.304688 -11.203125 7.328125 -10.859375 C 7.359375 -10.523438 7.394531 -10.085938 7.4375 -9.546875 C 7.4375 -9.398438 7.382812 -9.289062 7.28125 -9.21875 C 7.175781 -9.144531 7.070312 -9.101562 6.96875 -9.09375 C 6.863281 -9.09375 6.765625 -9.109375 6.671875 -9.140625 C 6.585938 -9.171875 6.523438 -9.21875 6.484375 -9.28125 C 6.367188 -9.550781 6.238281 -9.816406 6.09375 -10.078125 C 5.945312 -10.347656 5.78125 -10.585938 5.59375 -10.796875 C 5.40625 -11.015625 5.191406 -11.1875 4.953125 -11.3125 C 4.710938 -11.4375 4.445312 -11.488281 4.15625 -11.46875 C 3.976562 -11.457031 3.804688 -11.425781 3.640625 -11.375 C 3.472656 -11.320312 3.320312 -11.226562 3.1875 -11.09375 C 3.050781 -10.957031 2.945312 -10.773438 2.875 -10.546875 C 2.8125 -10.316406 2.789062 -10.035156 2.8125 -9.703125 C 2.832031 -9.398438 2.984375 -9.128906 3.265625 -8.890625 C 3.554688 -8.648438 3.914062 -8.414062 4.34375 -8.1875 C 4.769531 -7.957031 5.234375 -7.707031 5.734375 -7.4375 C 6.242188 -7.164062 6.71875 -6.847656 7.15625 -6.484375 C 7.59375 -6.128906 7.960938 -5.707031 8.265625 -5.21875 C 8.578125 -4.738281 8.753906 -4.160156 8.796875 -3.484375 C 8.828125 -2.972656 8.71875 -2.503906 8.46875 -2.078125 C 8.226562 -1.660156 7.910156 -1.296875 7.515625 -0.984375 C 7.128906 -0.679688 6.6875 -0.4375 6.1875 -0.25 C 5.695312 -0.0625 5.207031 0.046875 4.71875 0.078125 C 4.476562 0.0859375 4.234375 0.078125 3.984375 0.046875 C 3.742188 0.015625 3.519531 -0.0195312 3.3125 -0.0625 C 3.113281 -0.113281 2.945312 -0.15625 2.8125 -0.1875 C 2.6875 -0.21875 2.613281 -0.234375 2.59375 -0.234375 Z M 2.59375 -0.234375 "/></g></g></g><g fill="#ffa726" fill-opacity="1"><g transform="translate(174.633842, 252.429722)"><g><path d="M 2.59375 -0.109375 C 2.507812 -0.109375 2.4375 -0.0859375 2.375 -0.046875 C 2.3125 -0.00390625 2.253906 0.0390625 2.203125 0.09375 C 2.148438 0.15625 2.09375 0.207031 2.03125 0.25 C 1.976562 0.300781 1.921875 0.328125 1.859375 0.328125 L 1.375 0.34375 C 1.363281 0.34375 1.335938 0.21875 1.296875 -0.03125 C 1.265625 -0.289062 1.222656 -0.597656 1.171875 -0.953125 C 1.128906 -1.304688 1.09375 -1.675781 1.0625 -2.0625 C 1.03125 -2.445312 1.007812 -2.765625 1 -3.015625 C 1 -3.148438 1.050781 -3.238281 1.15625 -3.28125 C 1.257812 -3.320312 1.367188 -3.34375 1.484375 -3.34375 C 1.546875 -3.34375 1.613281 -3.320312 1.6875 -3.28125 C 1.757812 -3.25 1.828125 -3.195312 1.890625 -3.125 C 1.953125 -3.0625 2.015625 -2.992188 2.078125 -2.921875 C 2.140625 -2.847656 2.179688 -2.785156 2.203125 -2.734375 C 2.347656 -2.410156 2.5 -2.117188 2.65625 -1.859375 C 2.8125 -1.609375 2.984375 -1.390625 3.171875 -1.203125 C 3.367188 -1.015625 3.597656 -0.875 3.859375 -0.78125 C 4.128906 -0.6875 4.445312 -0.640625 4.8125 -0.640625 C 5.09375 -0.648438 5.320312 -0.703125 5.5 -0.796875 C 5.675781 -0.898438 5.8125 -1.03125 5.90625 -1.1875 C 6 -1.34375 6.054688 -1.519531 6.078125 -1.71875 C 6.109375 -1.925781 6.125 -2.140625 6.125 -2.359375 C 6.113281 -2.796875 5.972656 -3.164062 5.703125 -3.46875 C 5.441406 -3.769531 5.113281 -4.046875 4.71875 -4.296875 C 4.332031 -4.554688 3.90625 -4.816406 3.4375 -5.078125 C 2.96875 -5.347656 2.535156 -5.660156 2.140625 -6.015625 C 1.742188 -6.367188 1.410156 -6.789062 1.140625 -7.28125 C 0.878906 -7.78125 0.742188 -8.394531 0.734375 -9.125 C 0.734375 -9.539062 0.859375 -9.945312 1.109375 -10.34375 C 1.359375 -10.75 1.691406 -11.109375 2.109375 -11.421875 C 2.535156 -11.734375 3.003906 -11.984375 3.515625 -12.171875 C 4.035156 -12.367188 4.554688 -12.472656 5.078125 -12.484375 C 5.347656 -12.484375 5.617188 -12.460938 5.890625 -12.421875 C 6.171875 -12.378906 6.429688 -12.328125 6.671875 -12.265625 C 6.910156 -12.203125 7.109375 -12.140625 7.265625 -12.078125 C 7.429688 -12.023438 7.535156 -11.984375 7.578125 -11.953125 C 7.640625 -11.910156 7.6875 -11.84375 7.71875 -11.75 C 7.757812 -11.664062 7.789062 -11.519531 7.8125 -11.3125 C 7.832031 -11.113281 7.84375 -10.84375 7.84375 -10.5 C 7.851562 -10.164062 7.863281 -9.726562 7.875 -9.1875 C 7.875 -9.039062 7.816406 -8.929688 7.703125 -8.859375 C 7.597656 -8.796875 7.492188 -8.765625 7.390625 -8.765625 C 7.285156 -8.753906 7.1875 -8.765625 7.09375 -8.796875 C 7.007812 -8.835938 6.953125 -8.894531 6.921875 -8.96875 C 6.816406 -9.238281 6.695312 -9.507812 6.5625 -9.78125 C 6.425781 -10.0625 6.269531 -10.3125 6.09375 -10.53125 C 5.925781 -10.75 5.722656 -10.925781 5.484375 -11.0625 C 5.253906 -11.195312 4.992188 -11.257812 4.703125 -11.25 C 4.523438 -11.25 4.347656 -11.226562 4.171875 -11.1875 C 3.992188 -11.144531 3.835938 -11.054688 3.703125 -10.921875 C 3.566406 -10.796875 3.457031 -10.617188 3.375 -10.390625 C 3.289062 -10.171875 3.253906 -9.894531 3.265625 -9.5625 C 3.265625 -9.257812 3.40625 -8.984375 3.6875 -8.734375 C 3.96875 -8.484375 4.3125 -8.234375 4.71875 -7.984375 C 5.132812 -7.734375 5.585938 -7.457031 6.078125 -7.15625 C 6.578125 -6.863281 7.035156 -6.523438 7.453125 -6.140625 C 7.867188 -5.765625 8.21875 -5.328125 8.5 -4.828125 C 8.789062 -4.328125 8.9375 -3.738281 8.9375 -3.0625 C 8.945312 -2.550781 8.820312 -2.085938 8.5625 -1.671875 C 8.300781 -1.265625 7.96875 -0.914062 7.5625 -0.625 C 7.15625 -0.34375 6.703125 -0.125 6.203125 0.03125 C 5.703125 0.195312 5.207031 0.285156 4.71875 0.296875 C 4.476562 0.296875 4.234375 0.273438 3.984375 0.234375 C 3.734375 0.191406 3.507812 0.140625 3.3125 0.078125 C 3.113281 0.0234375 2.945312 -0.015625 2.8125 -0.046875 C 2.6875 -0.0859375 2.613281 -0.109375 2.59375 -0.109375 Z M 2.59375 -0.109375 "/></g></g></g><g fill="#ffa726" fill-opacity="1"><g transform="translate(183.44177, 252.180164)"><g><path d="M 12.203125 -10.171875 C 12.316406 -10.171875 12.472656 -10.175781 12.671875 -10.1875 C 12.878906 -10.207031 13.078125 -10.265625 13.265625 -10.359375 C 13.460938 -10.460938 13.632812 -10.625 13.78125 -10.84375 C 13.925781 -11.070312 14.007812 -11.398438 14.03125 -11.828125 C 14.039062 -11.890625 14.082031 -11.914062 14.15625 -11.90625 L 14.671875 -11.890625 C 14.742188 -11.890625 14.773438 -11.859375 14.765625 -11.796875 L 14.515625 -6.5 C 14.503906 -6.457031 14.484375 -6.429688 14.453125 -6.421875 C 14.429688 -6.410156 14.410156 -6.40625 14.390625 -6.40625 L 13.875 -6.421875 C 13.832031 -6.429688 13.804688 -6.445312 13.796875 -6.46875 C 13.785156 -6.5 13.78125 -6.519531 13.78125 -6.53125 C 13.800781 -7.007812 13.75 -7.378906 13.625 -7.640625 C 13.5 -7.898438 13.347656 -8.097656 13.171875 -8.234375 C 12.992188 -8.367188 12.804688 -8.453125 12.609375 -8.484375 C 12.421875 -8.515625 12.265625 -8.53125 12.140625 -8.53125 L 7.75 -8.75 C 7.644531 -8.757812 7.5625 -8.734375 7.5 -8.671875 C 7.445312 -8.609375 7.421875 -8.519531 7.421875 -8.40625 L 7.109375 -2.125 C 7.097656 -1.894531 7.132812 -1.691406 7.21875 -1.515625 C 7.300781 -1.347656 7.421875 -1.203125 7.578125 -1.078125 C 7.734375 -0.960938 7.914062 -0.851562 8.125 -0.75 C 8.34375 -0.65625 8.582031 -0.554688 8.84375 -0.453125 C 8.976562 -0.410156 9.113281 -0.363281 9.25 -0.3125 C 9.394531 -0.269531 9.519531 -0.25 9.625 -0.25 C 9.675781 -0.25 9.703125 -0.234375 9.703125 -0.203125 C 9.710938 -0.171875 9.71875 -0.15625 9.71875 -0.15625 L 9.6875 0.359375 C 9.6875 0.378906 9.679688 0.398438 9.671875 0.421875 C 9.660156 0.453125 9.632812 0.46875 9.59375 0.46875 L 1.234375 0.0625 C 1.191406 0.0625 1.160156 0.046875 1.140625 0.015625 C 1.128906 -0.00390625 1.125 -0.0234375 1.125 -0.046875 L 1.15625 -0.5625 C 1.15625 -0.570312 1.160156 -0.585938 1.171875 -0.609375 C 1.179688 -0.640625 1.210938 -0.65625 1.265625 -0.65625 C 1.359375 -0.65625 1.484375 -0.671875 1.640625 -0.703125 C 1.804688 -0.734375 1.925781 -0.765625 2 -0.796875 C 2.394531 -0.941406 2.71875 -1.144531 2.96875 -1.40625 C 3.21875 -1.675781 3.351562 -2.007812 3.375 -2.40625 L 4.0625 -16.40625 C 4.082031 -16.738281 4.003906 -17.003906 3.828125 -17.203125 C 3.648438 -17.410156 3.445312 -17.566406 3.21875 -17.671875 C 2.988281 -17.773438 2.769531 -17.84375 2.5625 -17.875 C 2.363281 -17.914062 2.238281 -17.9375 2.1875 -17.9375 L 2.140625 -17.9375 C 2.097656 -17.9375 2.066406 -17.945312 2.046875 -17.96875 C 2.035156 -18 2.03125 -18.023438 2.03125 -18.046875 L 2.046875 -18.359375 C 2.046875 -18.378906 2.050781 -18.398438 2.0625 -18.421875 C 2.082031 -18.453125 2.113281 -18.46875 2.15625 -18.46875 L 15.140625 -17.828125 C 15.242188 -17.804688 15.320312 -17.773438 15.375 -17.734375 C 15.425781 -17.703125 15.445312 -17.628906 15.4375 -17.515625 L 15.265625 -13.9375 C 15.265625 -13.832031 15.226562 -13.765625 15.15625 -13.734375 C 15.09375 -13.710938 15.023438 -13.703125 14.953125 -13.703125 L 14.6875 -13.71875 C 14.664062 -13.726562 14.644531 -13.804688 14.625 -13.953125 C 14.601562 -14.097656 14.570312 -14.269531 14.53125 -14.46875 C 14.488281 -14.675781 14.429688 -14.878906 14.359375 -15.078125 C 14.296875 -15.285156 14.21875 -15.445312 14.125 -15.5625 C 14.019531 -15.695312 13.910156 -15.8125 13.796875 -15.90625 C 13.679688 -16 13.554688 -16.070312 13.421875 -16.125 C 13.285156 -16.1875 13.125 -16.234375 12.9375 -16.265625 C 12.75 -16.296875 12.523438 -16.316406 12.265625 -16.328125 L 8.078125 -16.53125 C 7.898438 -16.539062 7.804688 -16.457031 7.796875 -16.28125 L 7.53125 -10.71875 C 7.519531 -10.507812 7.617188 -10.398438 7.828125 -10.390625 Z M 12.203125 -10.171875 "/></g></g></g><g fill="#ffa726" fill-opacity="1"><g transform="translate(198.092285, 252.853589)"><g><path d="M 1.75 -5.96875 C 1.851562 -6.78125 2.132812 -7.535156 2.59375 -8.234375 C 3.050781 -8.941406 3.617188 -9.539062 4.296875 -10.03125 C 4.984375 -10.53125 5.75 -10.898438 6.59375 -11.140625 C 7.445312 -11.390625 8.320312 -11.457031 9.21875 -11.34375 C 10.15625 -11.21875 11.023438 -10.941406 11.828125 -10.515625 C 12.628906 -10.085938 13.316406 -9.550781 13.890625 -8.90625 C 14.460938 -8.257812 14.882812 -7.53125 15.15625 -6.71875 C 15.425781 -5.914062 15.503906 -5.070312 15.390625 -4.1875 C 15.273438 -3.28125 15 -2.457031 14.5625 -1.71875 C 14.125 -0.988281 13.5625 -0.375 12.875 0.125 C 12.195312 0.625 11.414062 0.984375 10.53125 1.203125 C 9.65625 1.421875 8.722656 1.46875 7.734375 1.34375 C 6.753906 1.21875 5.867188 0.929688 5.078125 0.484375 C 4.285156 0.046875 3.625 -0.5 3.09375 -1.15625 C 2.5625 -1.8125 2.175781 -2.550781 1.9375 -3.375 C 1.695312 -4.207031 1.632812 -5.070312 1.75 -5.96875 Z M 5.203125 -6.359375 C 5.148438 -5.898438 5.125 -5.414062 5.125 -4.90625 C 5.125 -4.394531 5.160156 -3.890625 5.234375 -3.390625 C 5.316406 -2.898438 5.4375 -2.429688 5.59375 -1.984375 C 5.757812 -1.546875 5.972656 -1.144531 6.234375 -0.78125 C 6.492188 -0.425781 6.796875 -0.140625 7.140625 0.078125 C 7.484375 0.304688 7.890625 0.445312 8.359375 0.5 C 8.867188 0.570312 9.328125 0.5 9.734375 0.28125 C 10.148438 0.0703125 10.5 -0.226562 10.78125 -0.625 C 11.070312 -1.019531 11.304688 -1.476562 11.484375 -2 C 11.671875 -2.519531 11.800781 -3.039062 11.875 -3.5625 C 11.925781 -4 11.941406 -4.453125 11.921875 -4.921875 C 11.898438 -5.398438 11.84375 -5.882812 11.75 -6.375 C 11.65625 -6.863281 11.519531 -7.335938 11.34375 -7.796875 C 11.175781 -8.253906 10.957031 -8.660156 10.6875 -9.015625 C 10.425781 -9.378906 10.125 -9.679688 9.78125 -9.921875 C 9.445312 -10.160156 9.0625 -10.304688 8.625 -10.359375 C 8.144531 -10.421875 7.703125 -10.34375 7.296875 -10.125 C 6.898438 -9.914062 6.554688 -9.613281 6.265625 -9.21875 C 5.984375 -8.820312 5.75 -8.375 5.5625 -7.875 C 5.382812 -7.375 5.265625 -6.867188 5.203125 -6.359375 Z M 5.203125 -6.359375 "/></g></g></g><g fill="#ffa726" fill-opacity="1"><g transform="translate(212.455574, 254.629875)"><g><path d="M 2.203125 -5.8125 C 2.367188 -6.613281 2.707031 -7.347656 3.21875 -8.015625 C 3.726562 -8.679688 4.34375 -9.234375 5.0625 -9.671875 C 5.78125 -10.117188 6.570312 -10.429688 7.4375 -10.609375 C 8.300781 -10.785156 9.175781 -10.78125 10.0625 -10.59375 C 10.988281 -10.40625 11.835938 -10.066406 12.609375 -9.578125 C 13.378906 -9.085938 14.019531 -8.5 14.53125 -7.8125 C 15.050781 -7.125 15.414062 -6.363281 15.625 -5.53125 C 15.84375 -4.707031 15.863281 -3.859375 15.6875 -2.984375 C 15.5 -2.085938 15.15625 -1.289062 14.65625 -0.59375 C 14.164062 0.09375 13.554688 0.660156 12.828125 1.109375 C 12.109375 1.554688 11.300781 1.859375 10.40625 2.015625 C 9.519531 2.171875 8.585938 2.144531 7.609375 1.9375 C 6.640625 1.738281 5.773438 1.390625 5.015625 0.890625 C 4.265625 0.390625 3.648438 -0.207031 3.171875 -0.90625 C 2.691406 -1.601562 2.363281 -2.375 2.1875 -3.21875 C 2.019531 -4.0625 2.023438 -4.925781 2.203125 -5.8125 Z M 5.671875 -5.953125 C 5.578125 -5.492188 5.507812 -5.007812 5.46875 -4.5 C 5.4375 -3.988281 5.441406 -3.484375 5.484375 -2.984375 C 5.523438 -2.492188 5.609375 -2.015625 5.734375 -1.546875 C 5.859375 -1.085938 6.035156 -0.675781 6.265625 -0.3125 C 6.492188 0.0507812 6.773438 0.363281 7.109375 0.625 C 7.441406 0.882812 7.835938 1.0625 8.296875 1.15625 C 8.804688 1.257812 9.269531 1.21875 9.6875 1.03125 C 10.101562 0.851562 10.472656 0.578125 10.796875 0.203125 C 11.128906 -0.171875 11.40625 -0.609375 11.625 -1.109375 C 11.84375 -1.609375 12.003906 -2.117188 12.109375 -2.640625 C 12.191406 -3.078125 12.242188 -3.535156 12.265625 -4.015625 C 12.285156 -4.492188 12.265625 -4.976562 12.203125 -5.46875 C 12.140625 -5.957031 12.039062 -6.4375 11.90625 -6.90625 C 11.78125 -7.375 11.597656 -7.800781 11.359375 -8.1875 C 11.128906 -8.570312 10.851562 -8.894531 10.53125 -9.15625 C 10.207031 -9.414062 9.828125 -9.585938 9.390625 -9.671875 C 8.910156 -9.773438 8.46875 -9.734375 8.0625 -9.546875 C 7.65625 -9.359375 7.289062 -9.078125 6.96875 -8.703125 C 6.644531 -8.335938 6.375 -7.910156 6.15625 -7.421875 C 5.9375 -6.941406 5.773438 -6.453125 5.671875 -5.953125 Z M 5.671875 -5.953125 "/></g></g></g><g fill="#ffa726" fill-opacity="1"><g transform="translate(226.645548, 257.514406)"><g><path d="M 18.078125 -17.25 C 18.117188 -17.257812 18.160156 -17.265625 18.203125 -17.265625 C 18.242188 -17.265625 18.273438 -17.265625 18.296875 -17.265625 C 18.441406 -17.222656 18.484375 -17.101562 18.421875 -16.90625 L 13.375 0.6875 C 13.269531 1.0625 13.285156 1.359375 13.421875 1.578125 C 13.566406 1.796875 13.832031 1.957031 14.21875 2.0625 L 14.96875 2.234375 C 15 2.234375 15.015625 2.257812 15.015625 2.3125 C 15.015625 2.363281 15.003906 2.410156 14.984375 2.453125 C 14.984375 2.472656 14.960938 2.492188 14.921875 2.515625 C 14.890625 2.546875 14.828125 2.5625 14.734375 2.5625 L 9.890625 3.125 C 9.867188 3.125 9.820312 3.125 9.75 3.125 C 9.6875 3.132812 9.648438 3.140625 9.640625 3.140625 C 9.578125 3.117188 9.550781 3.066406 9.5625 2.984375 C 9.570312 2.910156 9.582031 2.84375 9.59375 2.78125 L 9.84375 1.90625 C 9.875 1.820312 9.859375 1.773438 9.796875 1.765625 C 9.773438 1.753906 9.734375 1.75 9.671875 1.75 C 9.328125 1.84375 9.003906 1.929688 8.703125 2.015625 C 8.398438 2.097656 8.097656 2.160156 7.796875 2.203125 C 7.503906 2.242188 7.203125 2.253906 6.890625 2.234375 C 6.578125 2.222656 6.242188 2.164062 5.890625 2.0625 C 5.128906 1.84375 4.488281 1.488281 3.96875 1 C 3.445312 0.507812 3.050781 -0.0507812 2.78125 -0.6875 C 2.507812 -1.332031 2.359375 -2.023438 2.328125 -2.765625 C 2.296875 -3.503906 2.382812 -4.238281 2.59375 -4.96875 C 2.84375 -5.851562 3.25 -6.625 3.8125 -7.28125 C 4.382812 -7.945312 5.039062 -8.472656 5.78125 -8.859375 C 6.53125 -9.253906 7.335938 -9.492188 8.203125 -9.578125 C 9.066406 -9.671875 9.925781 -9.597656 10.78125 -9.359375 C 11.007812 -9.285156 11.203125 -9.207031 11.359375 -9.125 C 11.523438 -9.039062 11.664062 -8.953125 11.78125 -8.859375 C 11.90625 -8.765625 12.035156 -8.675781 12.171875 -8.59375 C 12.304688 -8.507812 12.46875 -8.441406 12.65625 -8.390625 C 12.675781 -8.390625 12.707031 -8.390625 12.75 -8.390625 C 12.789062 -8.398438 12.820312 -8.445312 12.84375 -8.53125 L 14.546875 -14.484375 C 14.609375 -14.691406 14.597656 -14.863281 14.515625 -15 C 14.441406 -15.144531 14.328125 -15.269531 14.171875 -15.375 C 14.015625 -15.476562 13.84375 -15.578125 13.65625 -15.671875 C 13.476562 -15.773438 13.316406 -15.878906 13.171875 -15.984375 C 13.117188 -16.003906 13.082031 -16.035156 13.0625 -16.078125 C 13.039062 -16.117188 13.039062 -16.1875 13.0625 -16.28125 C 13.082031 -16.320312 13.109375 -16.359375 13.140625 -16.390625 C 13.179688 -16.421875 13.242188 -16.445312 13.328125 -16.46875 Z M 5.625 -4.734375 C 5.457031 -4.117188 5.359375 -3.507812 5.328125 -2.90625 C 5.304688 -2.3125 5.378906 -1.757812 5.546875 -1.25 C 5.710938 -0.738281 5.984375 -0.296875 6.359375 0.078125 C 6.742188 0.460938 7.238281 0.738281 7.84375 0.90625 C 7.9375 0.9375 8.109375 0.960938 8.359375 0.984375 C 8.609375 1.003906 8.863281 1.003906 9.125 0.984375 C 9.394531 0.972656 9.632812 0.9375 9.84375 0.875 C 10.0625 0.820312 10.1875 0.734375 10.21875 0.609375 L 12.03125 -5.671875 C 12.195312 -6.253906 12.117188 -6.785156 11.796875 -7.265625 C 11.472656 -7.742188 10.925781 -8.09375 10.15625 -8.3125 C 9.601562 -8.46875 9.082031 -8.472656 8.59375 -8.328125 C 8.113281 -8.179688 7.675781 -7.929688 7.28125 -7.578125 C 6.894531 -7.234375 6.5625 -6.804688 6.28125 -6.296875 C 6 -5.796875 5.78125 -5.273438 5.625 -4.734375 Z M 5.625 -4.734375 "/></g></g></g></svg>