<svg xmlns="http://www.w3.org/2000/svg" xmlns:xlink="http://www.w3.org/1999/xlink" width="500" zoomAndPan="magnify" viewBox="0 0 375 374.999991" height="500" preserveAspectRatio="xMidYMid meet" version="1.0"><defs><g/><clipPath id="aa96021ab3"><path d="M 2 56 L 374 56 L 374 319.546875 L 2 319.546875 Z M 2 56 " clip-rule="nonzero"/></clipPath><clipPath id="0c7291bafc"><rect x="0" width="164" y="0" height="43"/></clipPath></defs><g clip-path="url(#aa96021ab3)"><path fill="#f6f4f1" d="M 373.515625 155.296875 C 372.0625 132.117188 354.40625 111.246094 332.113281 105.316406 C 317.800781 101.480469 301.472656 103.101562 288.398438 110.253906 C 287.835938 108.203125 287.167969 106.171875 286.402344 104.191406 C 277.367188 80.234375 253.753906 64.09375 229.179688 59.183594 C 224.34375 58.179688 219.449219 57.546875 214.542969 57.21875 C 200.40625 55.574219 187.601562 60.757812 175.824219 67.628906 C 145.144531 85.453125 119.90625 115.820312 83.007812 119.613281 C 82.367188 119.65625 81.828125 120.140625 81.757812 120.808594 C 81.679688 121.53125 82.207031 122.183594 82.9375 122.253906 C 89.167969 123.042969 95.492188 122.824219 101.695312 121.785156 C 120.195312 118.621094 137.105469 108.75 152.5625 99 C 170.582031 88.257812 191.957031 70.054688 212.800781 72.203125 C 238.632812 73.453125 265.085938 84.90625 278.519531 107.972656 C 279.769531 110.066406 280.902344 112.242188 281.90625 114.484375 C 278.484375 117.113281 275.414062 120.21875 272.828125 123.792969 C 269.714844 128.277344 267.726562 133.734375 267.847656 139.109375 C 267.867188 139.679688 268.253906 140.207031 268.84375 140.359375 C 269.554688 140.550781 270.292969 140.121094 270.480469 139.398438 C 271.71875 134.789062 274.296875 130.875 277.570312 127.707031 C 279.796875 125.65625 282.222656 123.855469 284.820312 122.296875 C 286.527344 121.265625 288.3125 120.351562 290.140625 119.542969 C 306.101562 112.460938 326.125 113.5625 340.421875 122.984375 C 350.351562 129.609375 357.628906 140.316406 359.53125 152.113281 C 360.339844 157.691406 359.960938 163.355469 359.390625 168.917969 C 357.585938 185.570312 349.261719 201.433594 334.269531 209.199219 C 325.253906 213.988281 315.214844 216.878906 305.019531 217.699219 C 285.796875 219.6875 270.726562 212.394531 254.425781 205.851562 C 266.660156 201.121094 278.539062 191.515625 278.847656 177.710938 C 278.863281 176.257812 276.792969 175.851562 276.257812 177.203125 C 272.734375 185.410156 266.15625 190.667969 258.421875 194.558594 C 253.148438 197.257812 247.492188 198.96875 242.03125 201.292969 C 242.03125 201.292969 242.03125 201.292969 242.027344 201.292969 C 239.90625 200.605469 237.742188 199.972656 235.535156 199.398438 C 230.230469 198.0625 224.890625 197.136719 219.539062 196.566406 C 219.535156 196.566406 219.535156 196.566406 219.53125 196.566406 C 230.78125 188.441406 239.425781 175.683594 242.074219 162.996094 C 243.570312 156.402344 243.914062 149.097656 241.078125 142.804688 C 240.445312 141.390625 238.273438 142.097656 238.558594 143.589844 C 239.46875 149.589844 238.058594 155.613281 235.886719 161.183594 C 230.238281 176.457031 217.835938 188.355469 203.273438 195.140625 C 202.835938 195.367188 202.386719 195.574219 201.945312 195.796875 C 195.886719 195.894531 189.824219 196.332031 183.773438 197.007812 C 184.160156 196.585938 184.542969 196.15625 184.914062 195.714844 C 191.597656 187.9375 195.980469 177.539062 195.464844 167.308594 C 195.4375 166.726562 195.035156 166.210938 194.441406 166.070312 C 193.714844 165.898438 192.984375 166.363281 192.832031 167.097656 C 192.140625 170.03125 191.167969 172.824219 189.957031 175.472656 C 186.296875 183.246094 180.285156 189.796875 173.09375 194.402344 C 154.78125 206.269531 127.242188 203.933594 108.765625 193.6875 C 98.777344 187.742188 91.132812 178.097656 82.773438 169.652344 C 81.738281 168.621094 80.066406 169.753906 80.5625 171.089844 C 82.847656 176.972656 85.613281 182.644531 89.117188 188.097656 C 96.296875 199.589844 106.058594 206.691406 117.957031 210.574219 C 117.953125 210.574219 117.953125 210.574219 117.953125 210.574219 C 113.722656 211.957031 109.570312 213.566406 105.558594 215.484375 C 94.914062 220.425781 84.480469 227.632812 72.8125 227.96875 C 47.175781 231.574219 22.402344 194.816406 17.070312 172.761719 C 12.292969 153.996094 20.652344 132.773438 37.367188 122.667969 C 58.507812 109.664062 85.050781 110.128906 108.152344 100.628906 C 118.851562 96.574219 127.992188 89.261719 137.433594 83.148438 C 138.785156 82.269531 137.679688 80.171875 136.164062 80.832031 C 126.082031 85.59375 116.765625 91.714844 106.070312 94.742188 C 90.257812 99.484375 73.09375 100.347656 56.714844 103.980469 C 45.171875 106.453125 33.320312 110.738281 23.96875 118.355469 C 7.875 131.09375 0.0117188 152.941406 3.855469 173.15625 C 7.550781 193.558594 22.390625 217.011719 38.402344 230.148438 C 48.125 238.199219 61.136719 243.882812 74.253906 242.203125 C 77.746094 242.105469 81.132812 241.550781 84.355469 240.722656 C 86.582031 256.65625 88.460938 272.664062 89.671875 288.675781 C 90.449219 298.265625 90.707031 309.757812 90.542969 319.394531 C 90.542969 319.394531 102.328125 313.890625 102.328125 313.890625 C 113.75 308.640625 126.738281 305.359375 139.242188 302.761719 C 173.597656 296.078125 224.507812 291.3125 257.453125 303.847656 C 258.082031 304.113281 258.820312 303.855469 259.136719 303.234375 C 259.472656 302.589844 259.21875 301.792969 258.570312 301.457031 C 225.773438 285.484375 173.210938 285.730469 137.160156 289.445312 C 126.789062 290.667969 116.644531 292.171875 106.566406 294.808594 C 104.398438 275.050781 100.839844 255.5625 96.992188 236.082031 C 96.992188 236.078125 96.992188 236.078125 96.996094 236.078125 C 104.210938 232.777344 110.746094 228.988281 118.214844 226.199219 C 127.164062 222.863281 136.636719 220.882812 146.128906 218.871094 C 160.488281 215.84375 175.136719 212.976562 189.609375 211.742188 C 206.199219 210.335938 222.714844 211.058594 238.480469 216.210938 C 247.691406 219.257812 256.410156 223.425781 265.59375 226.789062 C 265.597656 226.789062 265.597656 226.789062 265.601562 226.789062 C 264.046875 242.371094 264.089844 258.375 263.65625 274.035156 C 248.703125 269.027344 233.105469 266.300781 217.429688 264.988281 C 198.199219 263.601562 178.296875 264.738281 160.179688 271.679688 C 159.5625 271.917969 159.210938 272.585938 159.378906 273.242188 C 159.5625 273.949219 160.285156 274.371094 160.992188 274.1875 C 170.03125 271.839844 179.367188 271.039062 188.628906 271.171875 C 211.671875 271.667969 234.550781 277.316406 255.636719 286.371094 C 259.785156 288.1875 263.804688 290.203125 267.53125 292.382812 C 267.53125 292.382812 278.492188 297.59375 278.492188 297.59375 C 278.621094 294.398438 279.179688 284.621094 279.214844 281.558594 C 279.488281 265.25 278.847656 247.613281 279.882812 231.027344 C 300.527344 235.441406 322.78125 232.25 341.28125 222.007812 C 365.554688 208.8125 374.992188 181.644531 373.515625 155.296875 Z M 373.515625 155.296875 " fill-opacity="1" fill-rule="nonzero"/></g><g transform="matrix(1, 0, 0, 1, 100, 227)"><g clip-path="url(#0c7291bafc)"><g fill="#f6f4f1" fill-opacity="1"><g transform="translate(6.411713, 33.710609)"><g><path d="M 4.796875 -18.6875 C 6.285156 -19.082031 7.617188 -19.164062 8.796875 -18.9375 L 9.796875 -15.296875 L 9.78125 -15.25 C 9.144531 -15.800781 8.078125 -16.003906 6.578125 -15.859375 C 6.148438 -15.804688 5.609375 -15.691406 4.953125 -15.515625 C 4.304688 -15.335938 3.707031 -15.039062 3.15625 -14.625 C 2.601562 -14.21875 2.1875 -13.742188 1.90625 -13.203125 C 1.363281 -12.128906 1.3125 -10.785156 1.75 -9.171875 C 2.257812 -7.296875 3.128906 -6.03125 4.359375 -5.375 C 5.390625 -4.84375 6.570312 -4.753906 7.90625 -5.109375 C 9.414062 -5.523438 10.550781 -6.175781 11.3125 -7.0625 C 11.59375 -7.394531 11.804688 -7.757812 11.953125 -8.15625 L 12 -8.15625 L 12.90625 -4.8125 C 11.96875 -3.46875 10.46875 -2.519531 8.40625 -1.96875 C 5.96875 -1.300781 3.851562 -1.550781 2.0625 -2.71875 C 0.332031 -3.84375 -0.859375 -5.617188 -1.515625 -8.046875 C -2.210938 -10.617188 -2.039062 -12.84375 -1 -14.71875 C 0.0625 -16.601562 1.992188 -17.925781 4.796875 -18.6875 Z M 4.796875 -18.6875 "/></g></g></g><g fill="#f6f4f1" fill-opacity="1"><g transform="translate(21.477706, 29.6486)"><g><path d="M 6 -7.78125 C 5.757812 -7.707031 5.5 -7.640625 5.21875 -7.578125 C 4.945312 -7.523438 4.535156 -7.460938 3.984375 -7.390625 L 5.296875 -1.09375 L 2.078125 -0.4375 L -1.296875 -16.65625 C -0.179688 -17.03125 1.195312 -17.390625 2.84375 -17.734375 C 5.09375 -18.203125 6.851562 -18.132812 8.125 -17.53125 C 9.40625 -16.925781 10.222656 -15.757812 10.578125 -14.03125 C 10.859375 -12.6875 10.59375 -11.4375 9.78125 -10.28125 C 9.507812 -9.90625 9.1875 -9.554688 8.8125 -9.234375 L 12.375 -4.546875 C 13.070312 -3.566406 13.570312 -3 13.875 -2.84375 L 13.828125 -2.78125 C 13.023438 -2.75 11.789062 -2.488281 10.125 -2 Z M 3.671875 -14.90625 C 3.265625 -14.820312 2.867188 -14.722656 2.484375 -14.609375 L 3.453125 -9.96875 C 3.859375 -10 4.328125 -10.070312 4.859375 -10.1875 C 5.398438 -10.300781 5.835938 -10.441406 6.171875 -10.609375 C 6.515625 -10.773438 6.804688 -10.976562 7.046875 -11.21875 C 7.523438 -11.769531 7.675781 -12.472656 7.5 -13.328125 C 7.320312 -14.191406 6.898438 -14.734375 6.234375 -14.953125 C 5.609375 -15.148438 4.753906 -15.132812 3.671875 -14.90625 Z M 3.671875 -14.90625 "/></g></g></g><g fill="#f6f4f1" fill-opacity="1"><g transform="translate(36.762868, 26.428361)"><g><path d="M 3.1875 -2.40625 C 2.351562 -3.019531 1.644531 -3.796875 1.0625 -4.734375 C 0.488281 -5.671875 0.125 -6.734375 -0.03125 -7.921875 C -0.195312 -9.109375 -0.148438 -10.257812 0.109375 -11.375 C 0.367188 -12.5 0.8125 -13.515625 1.4375 -14.421875 C 2.0625 -15.335938 2.867188 -16.109375 3.859375 -16.734375 C 4.859375 -17.359375 6.015625 -17.765625 7.328125 -17.953125 C 9.578125 -18.253906 11.578125 -17.800781 13.328125 -16.59375 C 15.179688 -15.300781 16.285156 -13.359375 16.640625 -10.765625 C 16.984375 -8.265625 16.421875 -6.070312 14.953125 -4.1875 C 14.046875 -3.019531 12.894531 -2.140625 11.5 -1.546875 C 10.820312 -1.265625 10.003906 -1.054688 9.046875 -0.921875 C 8.085938 -0.796875 7.078125 -0.859375 6.015625 -1.109375 C 4.960938 -1.359375 4.019531 -1.789062 3.1875 -2.40625 Z M 3.359375 -8.5625 C 3.460938 -7.800781 3.6875 -7.117188 4.03125 -6.515625 C 4.375 -5.910156 4.796875 -5.410156 5.296875 -5.015625 C 6.398438 -4.171875 7.703125 -3.851562 9.203125 -4.0625 C 10.640625 -4.257812 11.726562 -4.890625 12.46875 -5.953125 C 13.207031 -7.023438 13.460938 -8.382812 13.234375 -10.03125 C 13.023438 -11.582031 12.429688 -12.820312 11.453125 -13.75 C 10.390625 -14.738281 9.066406 -15.125 7.484375 -14.90625 C 5.953125 -14.695312 4.816406 -13.960938 4.078125 -12.703125 C 3.378906 -11.535156 3.140625 -10.15625 3.359375 -8.5625 Z M 3.359375 -8.5625 "/></g></g></g><g fill="#f6f4f1" fill-opacity="1"><g transform="translate(56.439778, 23.82563)"><g><path d="M 10.984375 -16.34375 L 11 -12.6875 L 10.90625 -12.65625 C 10.226562 -13.53125 9.148438 -14.054688 7.671875 -14.234375 C 7.210938 -14.296875 6.769531 -14.3125 6.34375 -14.28125 C 5.914062 -14.25 5.554688 -14.179688 5.265625 -14.078125 C 4.972656 -13.984375 4.722656 -13.863281 4.515625 -13.71875 C 4.078125 -13.382812 3.875 -12.976562 3.90625 -12.5 C 3.945312 -11.875 4.175781 -11.414062 4.59375 -11.125 C 5.113281 -10.789062 5.953125 -10.585938 7.109375 -10.515625 C 8.265625 -10.441406 9.195312 -10.296875 9.90625 -10.078125 C 10.613281 -9.867188 11.203125 -9.578125 11.671875 -9.203125 C 12.566406 -8.492188 13.0625 -7.445312 13.15625 -6.0625 C 13.28125 -4.25 12.691406 -2.804688 11.390625 -1.734375 C 10.285156 -0.816406 8.84375 -0.296875 7.0625 -0.171875 C 5.625 -0.0664062 4.191406 -0.238281 2.765625 -0.6875 C 2.296875 -0.84375 1.875 -1.03125 1.5 -1.25 L 1.359375 -5.390625 L 1.40625 -5.421875 C 2.550781 -3.722656 4.285156 -2.957031 6.609375 -3.125 C 8.265625 -3.238281 9.332031 -3.707031 9.8125 -4.53125 C 9.96875 -4.8125 10.035156 -5.117188 10.015625 -5.453125 C 9.992188 -5.796875 9.921875 -6.070312 9.796875 -6.28125 C 9.671875 -6.5 9.488281 -6.675781 9.25 -6.8125 C 8.75 -7.09375 7.929688 -7.242188 6.796875 -7.265625 C 5.660156 -7.296875 4.722656 -7.4375 3.984375 -7.6875 C 3.242188 -7.9375 2.648438 -8.265625 2.203125 -8.671875 C 1.367188 -9.421875 0.898438 -10.5 0.796875 -11.90625 C 0.703125 -13.375 1.140625 -14.597656 2.109375 -15.578125 C 3.085938 -16.566406 4.460938 -17.117188 6.234375 -17.234375 C 8.003906 -17.359375 9.585938 -17.0625 10.984375 -16.34375 Z M 10.984375 -16.34375 "/></g></g></g><g fill="#f6f4f1" fill-opacity="1"><g transform="translate(72.070164, 22.782414)"><g><path d="M 11.953125 -15.640625 L 11.75 -12 L 11.65625 -11.984375 C 11.03125 -12.898438 9.984375 -13.484375 8.515625 -13.734375 C 8.054688 -13.828125 7.613281 -13.867188 7.1875 -13.859375 C 6.757812 -13.859375 6.394531 -13.816406 6.09375 -13.734375 C 5.800781 -13.660156 5.546875 -13.554688 5.328125 -13.421875 C 4.867188 -13.109375 4.644531 -12.710938 4.65625 -12.234375 C 4.65625 -11.609375 4.851562 -11.144531 5.25 -10.84375 C 5.757812 -10.46875 6.585938 -10.207031 7.734375 -10.0625 C 8.878906 -9.914062 9.796875 -9.710938 10.484375 -9.453125 C 11.179688 -9.203125 11.757812 -8.875 12.21875 -8.46875 C 13.0625 -7.71875 13.488281 -6.648438 13.5 -5.265625 C 13.519531 -3.441406 12.847656 -2.035156 11.484375 -1.046875 C 10.316406 -0.191406 8.84375 0.238281 7.0625 0.25 C 5.625 0.257812 4.203125 0.00390625 2.796875 -0.515625 C 2.335938 -0.703125 1.925781 -0.914062 1.5625 -1.15625 L 1.671875 -5.296875 L 1.71875 -5.328125 C 2.769531 -3.566406 4.460938 -2.695312 6.796875 -2.71875 C 8.453125 -2.726562 9.546875 -3.132812 10.078125 -3.9375 C 10.253906 -4.207031 10.335938 -4.507812 10.328125 -4.84375 C 10.328125 -5.1875 10.269531 -5.46875 10.15625 -5.6875 C 10.050781 -5.90625 9.878906 -6.09375 9.640625 -6.25 C 9.160156 -6.5625 8.351562 -6.765625 7.21875 -6.859375 C 6.082031 -6.953125 5.15625 -7.144531 4.4375 -7.4375 C 3.71875 -7.726562 3.144531 -8.085938 2.71875 -8.515625 C 1.925781 -9.316406 1.523438 -10.425781 1.515625 -11.84375 C 1.503906 -13.3125 2.007812 -14.503906 3.03125 -15.421875 C 4.070312 -16.347656 5.476562 -16.816406 7.25 -16.828125 C 9.03125 -16.847656 10.597656 -16.453125 11.953125 -15.640625 Z M 11.953125 -15.640625 "/></g></g></g><g fill="#f6f4f1" fill-opacity="1"><g transform="translate(87.758115, 22.711336)"><g><path d="M 11.140625 -6.59375 C 10.742188 -6.644531 10.234375 -6.6875 9.609375 -6.71875 L 5.859375 -6.90625 L 5.515625 0.265625 L 2.125 0.109375 L 2.921875 -16.4375 C 3.148438 -16.40625 3.40625 -16.378906 3.6875 -16.359375 L 4.609375 -16.296875 C 5.234375 -16.242188 5.882812 -16.203125 6.5625 -16.171875 C 8.582031 -16.078125 10.519531 -16.015625 12.375 -15.984375 C 12.25 -15.273438 12.15625 -14.3125 12.09375 -13.09375 C 12.09375 -12.957031 12.097656 -12.859375 12.109375 -12.796875 L 12.078125 -12.765625 C 11.648438 -12.910156 11.046875 -13 10.265625 -13.03125 L 6.171875 -13.234375 L 6 -9.828125 L 9.609375 -9.65625 C 10.515625 -9.613281 11.054688 -9.609375 11.234375 -9.640625 Z M 11.140625 -6.59375 "/></g></g></g><g fill="#f6f4f1" fill-opacity="1"><g transform="translate(101.274607, 23.289992)"><g><path d="M 3.671875 -1.546875 C 3.015625 -2.347656 2.523438 -3.273438 2.203125 -4.328125 C 1.890625 -5.378906 1.796875 -6.5 1.921875 -7.6875 C 2.054688 -8.875 2.382812 -9.976562 2.90625 -11 C 3.4375 -12.03125 4.117188 -12.910156 4.953125 -13.640625 C 5.785156 -14.367188 6.757812 -14.910156 7.875 -15.265625 C 9 -15.628906 10.21875 -15.734375 11.53125 -15.578125 C 13.789062 -15.328125 15.613281 -14.398438 17 -12.796875 C 18.488281 -11.085938 19.082031 -8.9375 18.78125 -6.34375 C 18.5 -3.832031 17.410156 -1.84375 15.515625 -0.375 C 14.347656 0.53125 13.019531 1.097656 11.53125 1.328125 C 10.800781 1.441406 9.957031 1.441406 9 1.328125 C 8.039062 1.222656 7.078125 0.914062 6.109375 0.40625 C 5.148438 -0.101562 4.335938 -0.753906 3.671875 -1.546875 Z M 5.375 -7.484375 C 5.28125 -6.710938 5.320312 -5.988281 5.5 -5.3125 C 5.6875 -4.644531 5.984375 -4.054688 6.390625 -3.546875 C 7.234375 -2.472656 8.410156 -1.851562 9.921875 -1.6875 C 11.359375 -1.519531 12.566406 -1.847656 13.546875 -2.671875 C 14.535156 -3.546875 15.117188 -4.8125 15.296875 -6.46875 C 15.472656 -8.019531 15.207031 -9.363281 14.5 -10.5 C 13.707031 -11.71875 12.519531 -12.414062 10.9375 -12.59375 C 9.394531 -12.769531 8.109375 -12.34375 7.078125 -11.3125 C 6.117188 -10.351562 5.550781 -9.078125 5.375 -7.484375 Z M 5.375 -7.484375 "/></g></g></g><g fill="#f6f4f1" fill-opacity="1"><g transform="translate(120.95002, 25.543798)"><g><path d="M 3.78125 -1.265625 C 3.175781 -2.117188 2.753906 -3.078125 2.515625 -4.140625 C 2.285156 -5.210938 2.28125 -6.335938 2.5 -7.515625 C 2.726562 -8.691406 3.140625 -9.769531 3.734375 -10.75 C 4.335938 -11.726562 5.082031 -12.550781 5.96875 -13.21875 C 6.863281 -13.882812 7.878906 -14.351562 9.015625 -14.625 C 10.148438 -14.894531 11.367188 -14.910156 12.671875 -14.671875 C 14.898438 -14.242188 16.648438 -13.171875 17.921875 -11.453125 C 19.273438 -9.640625 19.707031 -7.445312 19.21875 -4.875 C 18.75 -2.40625 17.507812 -0.507812 15.5 0.8125 C 14.269531 1.632812 12.90625 2.097656 11.40625 2.203125 C 10.65625 2.253906 9.804688 2.191406 8.859375 2.015625 C 7.910156 1.835938 6.976562 1.457031 6.0625 0.875 C 5.15625 0.289062 4.394531 -0.421875 3.78125 -1.265625 Z M 5.921875 -7.046875 C 5.785156 -6.285156 5.78125 -5.5625 5.90625 -4.875 C 6.03125 -4.195312 6.269531 -3.59375 6.625 -3.0625 C 7.394531 -1.914062 8.523438 -1.203125 10.015625 -0.921875 C 11.441406 -0.648438 12.671875 -0.890625 13.703125 -1.640625 C 14.765625 -2.429688 15.453125 -3.644531 15.765625 -5.28125 C 16.054688 -6.8125 15.882812 -8.171875 15.25 -9.359375 C 14.5625 -10.640625 13.429688 -11.429688 11.859375 -11.734375 C 10.335938 -12.015625 9.019531 -11.679688 7.90625 -10.734375 C 6.882812 -9.847656 6.222656 -8.617188 5.921875 -7.046875 Z M 5.921875 -7.046875 "/></g></g></g><g fill="#f6f4f1" fill-opacity="1"><g transform="translate(140.411155, 29.32963)"><g><path d="M 5.859375 1.875 C 4.566406 1.53125 3.375 1.101562 2.28125 0.59375 L 6.5625 -15.40625 C 7.644531 -15.257812 8.882812 -15 10.28125 -14.625 C 11.675781 -14.25 12.882812 -13.722656 13.90625 -13.046875 C 14.9375 -12.367188 15.738281 -11.578125 16.3125 -10.671875 C 17.46875 -8.847656 17.707031 -6.675781 17.03125 -4.15625 C 16.269531 -1.320312 14.84375 0.597656 12.75 1.609375 C 10.875 2.515625 8.578125 2.601562 5.859375 1.875 Z M 6.09375 -1.1875 C 6.582031 -0.9375 7.085938 -0.742188 7.609375 -0.609375 C 8.128906 -0.472656 8.71875 -0.425781 9.375 -0.46875 C 10.03125 -0.507812 10.628906 -0.691406 11.171875 -1.015625 C 12.359375 -1.679688 13.1875 -2.878906 13.65625 -4.609375 C 14.414062 -7.460938 13.84375 -9.492188 11.9375 -10.703125 C 11.300781 -11.097656 10.53125 -11.414062 9.625 -11.65625 L 9.3125 -11.734375 C 9.1875 -11.773438 9.0625 -11.8125 8.9375 -11.84375 Z M 6.09375 -1.1875 "/></g></g></g></g></g></svg>