<svg xmlns="http://www.w3.org/2000/svg" fill="none" viewBox="0 0 200 200" id="We-Are-Hiring--Streamline-Bangalore" height="200" width="200">
  <desc>
    We Are Hiring Streamline Illustration: https://streamlinehq.com
  </desc>
  <g id="work-we-are-hiring-01">
    <g id="color 2">
      <path id="vector" fill="#b29e84" d="M122.146 110.452s-6.006 -5.493 -8.4 -10.452c-1.786 -3.667 -4.123 -8.017 -8.321 -9.917 -0.351 -3.5678 -0.389 -7.1595 -0.114 -10.734 0.207 -3.731 -0.71 -9.2 -2 -10.05 -0.846 -0.498 -1.753 -0.8814 -2.7 -1.14 0.664 1.9735 1.185 3.9925 1.558 6.041l-10.7 0.285c-0.3408 -2.0475 -0.8556 -4.0621 -1.539 -6.022 -0.95 0.228 -1.729 0.4 -2.432 0.608 0.019 0.114 4.047 14.989 0.171 12.824 0.76 3.362 2.071 8.872 2.812 10.012 -3.23 20.917 -7.219 63.245 -7.979 70.673 4.3131 1.851 9.1219 2.206 13.66 1.007 0 0 5.623 -43.259 6.5 -53.138l14.078 11.912c1.196 1.024 2.604 1.77 4.122 2.185l20.556 5.68c-3.735 -1.1 -0.59 -14.369 3.724 -14.116z" stroke-width="1"></path>
      <path id="vector_2" fill="#b29e84" d="M28.178 99.867v4.465c0.001 0.831 0.3316 1.627 0.9191 2.215 0.5875 0.587 1.384 0.918 2.2149 0.919h4.5c0.0109 -1.004 -0.1793 -2 -0.5595 -2.929 -0.3803 -0.929 -0.9427 -1.773 -1.6543 -2.481 -0.7115 -0.708 -1.5577 -1.267 -2.4886 -1.643 -0.931 -0.376 -1.9278 -0.5616 -2.9316 -0.546" stroke-width="1"></path>
    </g>
    <g id="color 1">
      <path id="vector_3" fill="#7c898b" d="M58.4 54.974c-1.022 -1.3264 -2.4306 -2.3028 -4.0313 -2.7944 -1.6007 -0.4915 -3.3145 -0.4739 -4.9047 0.0504 0.1246 -0.6192 0.1186 -1.2577 -0.0176 -1.8745s-0.3996 -1.1984 -0.7734 -1.7075c-0.6995 -0.8627 -1.7088 -1.4174 -2.812 -1.5455 -1.1032 -0.1282 -2.2127 0.1803 -3.0914 0.8596 -0.8786 0.6793 -1.4566 1.6755 -1.6104 2.7754 -0.1537 1.0999 0.129 2.2163 0.7878 3.1105 0.3924 0.4943 0.8853 0.8996 1.4461 1.1893 0.5608 0.2896 1.1766 0.4568 1.8069 0.4907 -0.9056 1.405 -1.3534 3.0561 -1.2818 4.7261 0.0717 1.6699 0.6592 3.2766 1.6818 4.5989 0.7712 0.8914 1.6833 1.6505 2.7 2.247 1.178 -2.2 1.467 -4.677 1.292 -4.883 -1.224 -1.432 0.057 -2.773 0.874 -1.139 0.418 0.836 0.931 -0.627 1.178 -1.691 1.244 0.5562 2.5737 0.8967 3.932 1.007 -0.133 5.3 -1.577 7.884 -3.761 5.661 -0.0434 0.678 -0.0243 1.3585 0.057 2.033 1.8223 -0.1164 3.5769 -0.7352 5.069 -1.788 1.6944 -1.3091 2.7999 -3.2374 3.0735 -5.3611 0.2735 -2.1237 -0.3072 -4.2691 -1.6145 -5.9649" stroke-width="1"></path>
      <path id="vector_4" fill="#7c898b" d="M51.793 66.05c-0.3518 -0.3766 -0.6697 -0.7835 -0.95 -1.216 -0.0869 0.5795 -0.0415 1.1711 0.1329 1.7305s0.4732 1.0721 0.8741 1.4995c-0.0792 -0.6683 -0.0983 -1.3423 -0.057 -2.014" stroke-width="1"></path>
      <path id="vector_5" fill="#7c898b" d="M40.945 83.187c-0.9879 0.4822 -2.003 0.9069 -3.04 1.272l2.395 -4.141c0.1321 0.9731 0.3479 1.933 0.645 2.869" stroke-width="1"></path>
      <path id="vector_6" fill="#7c898b" d="M92.658 63.694c-0.057 0.551 -0.057 1.292 -0.076 2.014 -1.14 0.114 -2.831 0.171 -3.192 -0.247l-0.171 -0.228c0.513 0.817 1.995 -0.209 3.439 -1.539" stroke-width="1"></path>
      <path id="vector_7" fill="#7c898b" d="M76.376 80.679c-0.513 0.722 -1.045 1.5 -1.614 2.337v-4.731c0.4652 0.8447 1.0053 1.6459 1.614 2.394" stroke-width="1"></path>
      <path id="vector_8" fill="#7c898b" d="m102.67 110.43 2.47 2.09 0.266 -8.815c-0.152 1.975 -2.736 6.744 -2.736 6.725" stroke-width="1"></path>
      <path id="vector_9" fill="#7c898b" d="M152.218 118.827c-3.755 -0.2 -7.409 21.357 -2.736 22.76 4.464 0.247 7.599 -22.494 2.736 -22.76" stroke-width="1"></path>
      <path id="vector_10" fill="#7c898b" d="M143.478 128.82c-1.154 -0.567 -2.383 -0.964 -3.65 -1.18 0.418 2.755 2.13 3.479 3.992 1.484 -0.114 -0.095 -0.209 -0.19 -0.342 -0.304" stroke-width="1"></path>
      <path id="vector_11" fill="#7c898b" d="M145.359 116.129c-0.389 -0.054 -0.785 -0.011 -1.153 0.125 -0.367 0.136 -0.696 0.361 -0.956 0.655 1.045 0.3 2.261 0.607 3.458 0.873 -0.073 -0.364 -0.235 -0.706 -0.47 -0.994s-0.537 -0.514 -0.879 -0.659" stroke-width="1"></path>
      <path id="vector_12" fill="#7c898b" d="M97.92 53.72c0.361 -0.836 -1.139 -1.387 -2.07 -0.095 0.38 -0.76 -1.216 -1.368 -2.052 0.114 0.247 -0.722 -1.2 -1.33 -2.109 0.323 0.1 -0.855 -1.349 -0.836 -1.71 0.684 -0.228 0.95 -0.4 1.976 -0.532 2.736 0.4746 0.2521 0.9706 0.4619 1.482 0.627 -0.19 1.938 0.494 2.052 0.874 1.368 0.722 -1.273 2.166 -0.247 0.76 1.71 0.093 0.1 4.083 4.326 4.179 4.426 -2.393 -2.812 1.463 -8.777 2.717 -10.829 1.041 -1.71 -0.589 -2.318 -1.539 -1.064" stroke-width="1"></path>
      <path id="vector_13" fill="#7c898b" d="m18.071 116.415 -7.391 7.39c-0.79 0.79 0.425 2.015 1.2 1.2l7.391 -7.391c0.159 -0.159 0.2483 -0.375 0.2482 -0.6s-0.0896 -0.441 -0.2487 -0.6 -0.3749 -0.248 -0.5999 -0.248c-0.2249 0 -0.4406 0.09 -0.5996 0.249" stroke-width="1"></path>
      <path id="vector_14" fill="#7c898b" d="M156.321 80.622c-0.095 0.456 -0.266 1.311 -0.437 2.2l3.458 -2.717z" stroke-width="1"></path>
      <path id="vector_15" fill="#7c898b" d="M144.941 68.691c0.042 0.2258 0.068 0.4544 0.076 0.684l0.8 -1.083z" stroke-width="1"></path>
      <path id="vector_16" fill="#7c898b" d="M159.057 54.9c-0.005 -0.3239 -0.127 -0.6351 -0.344 -0.876 -0.216 -0.241 -0.513 -0.3955 -0.834 -0.435 0.208 -0.2564 0.316 -0.5801 0.302 -0.9101 -0.014 -0.3301 -0.148 -0.6437 -0.376 -0.8819 -0.229 -0.2382 -0.537 -0.3846 -0.867 -0.4114 -0.329 -0.0269 -0.657 0.0675 -0.921 0.2654 -0.044 -0.3356 -0.207 -0.644 -0.461 -0.8681 -0.253 -0.2242 -0.579 -0.349 -0.918 -0.3513 -0.338 -0.0023 -0.666 0.118 -0.922 0.3387 -0.257 0.2207 -0.425 0.5268 -0.473 0.8617 -0.26 -0.2021 -0.585 -0.302 -0.914 -0.2806 -0.328 0.0213 -0.637 0.1624 -0.869 0.3964 -0.232 0.2341 -0.369 0.5449 -0.387 0.8737s0.085 0.6527 0.29 0.9105c-0.326 0.0409 -0.627 0.1996 -0.844 0.4463 -0.218 0.2466 -0.338 0.5642 -0.338 0.8932 0 0.3289 0.12 0.6465 0.338 0.8932 0.217 0.2466 0.518 0.4053 0.844 0.4463 -0.203 0.2581 -0.304 0.5812 -0.285 0.9088s0.156 0.637 0.387 0.8703c0.231 0.2332 0.539 0.3742 0.866 0.3964 0.328 0.0223 0.652 -0.0757 0.912 -0.2755 0.039 0.3267 0.195 0.6281 0.44 0.8475 0.245 0.2195 0.562 0.3418 0.891 0.3442 0.329 0.0023 0.648 -0.1156 0.896 -0.3315 0.248 -0.216 0.409 -0.5151 0.452 -0.8412 0.259 0.2031 0.583 0.3051 0.911 0.287s0.639 -0.155 0.874 -0.3853c0.235 -0.2302 0.378 -0.5381 0.403 -0.8661 0.024 -0.3281 -0.071 -0.6538 -0.269 -0.9166 0.335 -0.0307 0.647 -0.1866 0.872 -0.4366s0.348 -0.5758 0.344 -0.9124" stroke-width="1"></path>
      <path id="vector_17" fill="#7c898b" d="M154.991 61.7c0.342 -0.0971 0.639 -0.3098 0.842 -0.6019 0.202 -0.2921 0.297 -0.6455 0.268 -0.9996 -0.029 -0.3542 -0.181 -0.6873 -0.428 -0.9424 -0.247 -0.255 -0.576 -0.4163 -0.929 -0.4561 0.234 -0.2502 0.378 -0.5713 0.409 -0.9125s-0.053 -0.6829 -0.239 -0.971c-0.185 -0.288 -0.462 -0.5059 -0.785 -0.619 -0.324 -0.1131 -0.675 -0.1151 -1 -0.0055 0.079 -0.3371 0.043 -0.6911 -0.104 -1.0048 -0.146 -0.3138 -0.394 -0.5692 -0.703 -0.725 -0.31 -0.1558 -0.662 -0.2029 -1.002 -0.1338 -0.339 0.069 -0.645 0.2503 -0.869 0.5146 -0.08 -0.3521 -0.277 -0.6667 -0.558 -0.8928 -0.282 -0.2262 -0.631 -0.3504 -0.992 -0.3526 -0.362 -0.0022 -0.713 0.1178 -0.997 0.3404 -0.284 0.2227 -0.485 0.5349 -0.569 0.886 -0.219 -0.2672 -0.521 -0.4526 -0.859 -0.5262 -0.337 -0.0736 -0.69 -0.031 -1 0.1208 -0.31 0.1517 -0.56 0.4039 -0.709 0.7154 -0.148 0.3116 -0.188 0.6643 -0.111 1.001 -0.324 -0.1163 -0.677 -0.1208 -1.003 -0.0129 -0.327 0.108 -0.608 0.3221 -0.798 0.6083 -0.191 0.2862 -0.28 0.628 -0.254 0.9709 0.027 0.3428 0.167 0.667 0.399 0.9207 -0.352 0.039 -0.679 0.1979 -0.927 0.4499 -0.248 0.2521 -0.402 0.582 -0.436 0.9342 -0.033 0.3522 0.056 0.7051 0.252 0.9994s0.488 0.512 0.826 0.6165c-0.177 0.1027 -0.331 0.2397 -0.454 0.4031s-0.212 0.3497 -0.261 0.548c-0.05 0.1983 -0.059 0.4046 -0.028 0.6065 0.032 0.202 0.103 0.3956 0.211 0.5694 1.412 -6.335 4.306 -3.2 4.712 -0.7 0.095 0.4 0.342 0.418 0.855 -0.17 1.064 -1.254 2.491 0.694 0.361 2.393 -0.118 0.094 -0.276 0.843 -0.152 2.622 0.194 -0.0748 0.371 -0.1872 0.521 -0.3306 0.15 -0.1435 0.27 -0.3153 0.353 -0.5054 0.137 0.3256 0.382 0.5938 0.694 0.7592 0.313 0.1655 0.672 0.218 1.019 0.1487 0.346 -0.0693 0.658 -0.2562 0.882 -0.5289 0.225 -0.2728 0.348 -0.6148 0.349 -0.968 0.279 0.1944 0.614 0.2903 0.954 0.2726 0.339 -0.0177 0.663 -0.1479 0.92 -0.3702 0.257 -0.2222 0.433 -0.5238 0.5 -0.8571 0.066 -0.3333 0.02 -0.6793 -0.132 -0.9833 0.218 0.0284 0.439 0.0097 0.649 -0.0549 0.21 -0.0647 0.403 -0.1737 0.567 -0.3196 0.164 -0.146 0.295 -0.3255 0.383 -0.5265 0.089 -0.2009 0.133 -0.4185 0.13 -0.638 -0.007 -0.2618 -0.08 -0.5175 -0.212 -0.7435 -0.132 -0.2259 -0.32 -0.4146 -0.545 -0.5485" stroke-width="1"></path>
      <path id="vector_18" fill="#7c898b" d="M149.843 88.2c0.015 0.1864 -0.044 0.3713 -0.166 0.5138 -0.121 0.1425 -0.294 0.2311 -0.48 0.2462s-0.371 -0.0444 -0.514 -0.1656c-0.142 -0.1211 -0.231 -0.2939 -0.246 -0.4804 -0.015 -0.1864 0.044 -0.3713 0.166 -0.5138 0.121 -0.1425 0.294 -0.2311 0.48 -0.2462s0.371 0.0445 0.514 0.1656c0.142 0.1212 0.231 0.294 0.246 0.4804" stroke-width="1"></path>
      <path id="vector_19" fill="#7c898b" d="M142.566 83.358c0.015 0.1864 -0.044 0.3713 -0.166 0.5138 -0.121 0.1425 -0.294 0.2311 -0.48 0.2462s-0.371 -0.0445 -0.514 -0.1656c-0.142 -0.1212 -0.231 -0.294 -0.246 -0.4804 -0.015 -0.1865 0.044 -0.3713 0.166 -0.5138 0.121 -0.1425 0.294 -0.2311 0.48 -0.2462s0.371 0.0445 0.514 0.1656c0.142 0.1211 0.231 0.294 0.246 0.4804" stroke-width="1"></path>
      <path id="vector_20" fill="#7c898b" d="M149.14 77.734c0.015 0.1865 -0.044 0.3713 -0.166 0.5138 -0.121 0.1425 -0.294 0.2311 -0.48 0.2462s-0.371 -0.0444 -0.514 -0.1656c-0.142 -0.1211 -0.231 -0.2939 -0.246 -0.4804 -0.015 -0.1864 0.044 -0.3713 0.166 -0.5138 0.121 -0.1425 0.294 -0.2311 0.48 -0.2462s0.371 0.0445 0.514 0.1656c0.142 0.1212 0.231 0.294 0.246 0.4804" stroke-width="1"></path>
    </g>
    <g id="outlines">
      <path id="vector_21" stroke="#f6f4f1" stroke-linejoin="round" d="m18.071 116.415 -7.391 7.39c-0.79 0.79 0.425 2.015 1.2 1.2l7.391 -7.391c0.159 -0.159 0.2483 -0.375 0.2482 -0.6s-0.0896 -0.441 -0.2487 -0.6 -0.3749 -0.248 -0.5999 -0.248c-0.2249 0 -0.4406 0.09 -0.5996 0.249Z" stroke-width="1"></path>
      <path id="union" stroke="#f6f4f1" stroke-linejoin="round" d="M158.713 54.024c0.217 0.2409 0.339 0.5521 0.344 0.876 0.004 0.3366 -0.119 0.6624 -0.344 0.9124s-0.537 0.4059 -0.872 0.4366c0.198 0.2628 0.293 0.5885 0.269 0.9166 -0.025 0.328 -0.168 0.6359 -0.403 0.8661 -0.235 0.2303 -0.546 0.3672 -0.874 0.3853s-0.652 -0.0839 -0.911 -0.287c-0.043 0.3261 -0.204 0.6252 -0.452 0.8412l-0.006 0.0051c0.074 0.0532 0.144 0.1133 0.209 0.1798 0.247 0.2551 0.399 0.5882 0.428 0.9424 0.029 0.3541 -0.066 0.7075 -0.268 0.9996 -0.203 0.2921 -0.5 0.5048 -0.842 0.6019 0.225 0.1339 0.413 0.3226 0.545 0.5485 0.132 0.226 0.205 0.4817 0.212 0.7435 0.003 0.2195 -0.041 0.4371 -0.13 0.638 -0.088 0.201 -0.219 0.3805 -0.383 0.5265 -0.164 0.1459 -0.357 0.2549 -0.567 0.3196 -0.21 0.0646 -0.431 0.0833 -0.649 0.0549 0.152 0.304 0.198 0.65 0.132 0.9833 -0.067 0.3333 -0.243 0.6349 -0.5 0.8571 -0.257 0.2223 -0.581 0.3525 -0.92 0.3702 -0.34 0.0177 -0.675 -0.0782 -0.954 -0.2726 -0.001 0.3532 -0.124 0.6952 -0.349 0.968 -0.224 0.2727 -0.536 0.4596 -0.882 0.5289 -0.347 0.0693 -0.706 0.0168 -1.019 -0.1487 -0.312 -0.1654 -0.557 -0.4336 -0.694 -0.7592 -0.083 0.1901 -0.203 0.3619 -0.353 0.5054 -0.15 0.1434 -0.327 0.2558 -0.521 0.3306 -0.124 -1.779 0.034 -2.528 0.152 -2.622 2.13 -1.699 0.703 -3.647 -0.361 -2.393 -0.513 0.588 -0.76 0.57 -0.855 0.17 -0.406 -2.5 -3.3 -5.635 -4.712 0.7 -0.108 -0.1738 -0.179 -0.3674 -0.211 -0.5694 -0.031 -0.2019 -0.022 -0.4082 0.028 -0.6065 0.049 -0.1983 0.138 -0.3846 0.261 -0.548s0.277 -0.3004 0.454 -0.4031c-0.338 -0.1045 -0.63 -0.3222 -0.826 -0.6165s-0.285 -0.6472 -0.252 -0.9994c0.034 -0.3522 0.188 -0.6821 0.436 -0.9342 0.248 -0.252 0.575 -0.4109 0.927 -0.4499 -0.232 -0.2537 -0.372 -0.5779 -0.399 -0.9207 -0.026 -0.3429 0.063 -0.6847 0.254 -0.9709 0.19 -0.2862 0.471 -0.5003 0.798 -0.6083 0.326 -0.1079 0.679 -0.1034 1.003 0.0129 -0.077 -0.3367 -0.037 -0.6894 0.111 -1.001 0.149 -0.3115 0.399 -0.5637 0.709 -0.7154 0.31 -0.1518 0.663 -0.1944 1 -0.1208 0.338 0.0736 0.64 0.259 0.859 0.5262 0.084 -0.3511 0.285 -0.6633 0.569 -0.886 0.284 -0.2226 0.635 -0.3426 0.997 -0.3404 0.361 0.0022 0.71 0.1264 0.992 0.3526 0.152 0.1225 0.28 0.2711 0.378 0.4375 0.057 -0.149 0.14 -0.2878 0.248 -0.4094 0.217 -0.2467 0.518 -0.4054 0.844 -0.4463 -0.205 -0.2578 -0.308 -0.5817 -0.29 -0.9105s0.155 -0.6396 0.387 -0.8737c0.232 -0.234 0.541 -0.3751 0.869 -0.3964 0.329 -0.0214 0.654 0.0785 0.914 0.2806 0.048 -0.3349 0.216 -0.641 0.473 -0.8617 0.256 -0.2207 0.584 -0.341 0.922 -0.3387 0.339 0.0023 0.665 0.1271 0.918 0.3513 0.254 0.2241 0.417 0.5325 0.461 0.8681 0.264 -0.1979 0.592 -0.2923 0.921 -0.2654 0.33 0.0268 0.638 0.1732 0.867 0.4114 0.228 0.2382 0.362 0.5518 0.376 0.8819 0.014 0.33 -0.094 0.6537 -0.302 0.9101 0.321 0.0395 0.618 0.194 0.834 0.435Z" stroke-width="1"></path>
      <path id="vector_22" stroke="#f6f4f1" stroke-linecap="round" stroke-linejoin="round" d="M127.083 107.466h-7.904" stroke-width="1"></path>
      <path id="vector_23" stroke="#f6f4f1" stroke-linecap="round" stroke-linejoin="round" d="M135.309 107.466H162c0.831 -0.001 1.627 -0.332 2.215 -0.919 0.587 -0.588 0.918 -1.384 0.919 -2.215V75.549" stroke-width="1"></path>
      <path id="vector_24" stroke="#f6f4f1" stroke-linecap="round" stroke-linejoin="round" d="M165.136 61.718V59.99c-0.001 -0.8314 -0.331 -1.6285 -0.919 -2.2163s-1.386 -0.9182 -2.217 -0.9187h-3.906" stroke-width="1"></path>
      <path id="vector_25" stroke="#f6f4f1" stroke-linecap="round" stroke-linejoin="round" d="M120.6 56.855h-17.1c-0.831 0.0008 -1.628 0.3313 -2.216 0.9191 -0.588 0.5877 -0.918 1.3847 -0.919 2.2159v8.036" stroke-width="1"></path>
      <path id="vector_26" stroke="#f6f4f1" stroke-linecap="round" stroke-linejoin="round" d="M144.903 54.8125V52.504h-24.299v6.631h21.208" stroke-width="1"></path>
      <path id="vector_27" stroke="#f6f4f1" stroke-linecap="round" stroke-linejoin="round" d="M134.777 50.3c0 0.3983 -0.118 0.7877 -0.339 1.1189 -0.222 0.3312 -0.536 0.5893 -0.904 0.7418 -0.368 0.1524 -0.773 0.1923 -1.164 0.1146s-0.749 -0.2695 -1.031 -0.5512 -0.474 -0.6405 -0.551 -1.0312c-0.078 -0.3907 -0.038 -0.7956 0.114 -1.1636 0.153 -0.3681 0.411 -0.6826 0.742 -0.9039s0.721 -0.3394 1.119 -0.3394c0.534 0.0002 1.046 0.2125 1.424 0.5902 0.377 0.3776 0.59 0.8897 0.59 1.4238" stroke-width="1"></path>
      <path id="vector_28" stroke="#f6f4f1" stroke-linecap="round" stroke-linejoin="round" d="M158.772 66.753v-3.382h-3.006" stroke-width="1"></path>
      <path id="vector_29" stroke="#f6f4f1" stroke-linecap="round" stroke-linejoin="round" d="M122.637 69.698h-15.939v-6.327h15.939z" stroke-width="1"></path>
      <path id="vector_30" stroke="#f6f4f1" stroke-linecap="round" stroke-linejoin="round" d="M110.668 76.1h11.969v5.32h-7.884" stroke-width="1"></path>
      <path id="vector_31" stroke="#f6f4f1" stroke-linecap="round" stroke-linejoin="round" d="M106.698 90.767V87.86h1.102" stroke-width="1"></path>
      <path id="vector_32" stroke="#f6f4f1" stroke-linecap="round" stroke-linejoin="round" d="M111.884 93.161h-2.394" stroke-width="1"></path>
      <path id="vector_33" stroke="#f6f4f1" stroke-linecap="round" stroke-linejoin="round" d="M119.939 87.86h2.698v3.002" stroke-width="1"></path>
      <path id="vector_34" stroke="#f6f4f1" stroke-linecap="round" stroke-linejoin="round" d="M113.29 99.107h4.009" stroke-width="1"></path>
      <path id="vector_35" stroke="#f6f4f1" stroke-linecap="round" stroke-linejoin="round" d="M119.331 101.14h-4.996" stroke-width="1"></path>
      <path id="vector_36" stroke="#f6f4f1" stroke-linecap="round" stroke-linejoin="round" d="M130.996 99.107h27.776v2.014h-23.881" stroke-width="1"></path>
      <path id="vector_37" stroke="#f6f4f1" stroke-linecap="round" stroke-linejoin="round" d="M49.4561 52.219c-1.754 0.5745 -3.2569 1.7351 -4.256 3.287 -0.7181 -0.016 -1.4205 -0.2136 -2.0416 -0.5744 -0.6212 -0.3608 -1.1408 -0.8729 -1.5106 -1.4888 -0.3697 -0.6158 -0.5775 -1.3152 -0.604 -2.033s0.1293 -1.4307 0.4527 -2.072c0.3234 -0.6414 0.8039 -1.1904 1.3968 -1.596 0.5929 -0.4055 1.2788 -0.6543 1.9938 -0.7231 0.715 -0.0689 1.4357 0.0444 2.0951 0.3293s1.2359 0.7321 1.6758 1.3c0.3938 0.4965 0.6701 1.0756 0.8083 1.694 0.1382 0.6185 0.1347 1.2601 -0.0103 1.877" stroke-width="1"></path>
      <path id="vector_38" stroke="#f6f4f1" stroke-linecap="round" stroke-linejoin="round" d="M63.0001 75.91c-5.833 -4.6 -10.525 -2.85 -11.133 -7.827" stroke-width="1"></path>
      <path id="vector_39" stroke="#f6f4f1" stroke-linecap="round" stroke-linejoin="round" d="M56.9411 66.3c-1.4934 1.0522 -3.2489 1.6703 -5.072 1.786 0 0 -0.076 -1.615 -0.057 -2.033 2.184 2.223 3.628 -0.361 3.761 -5.661 -1.3583 -0.1103 -2.688 -0.4508 -3.932 -1.007 -0.247 1.064 -0.76 2.526 -1.178 1.691 -0.817 -1.634 -2.1 -0.293 -0.874 1.139 0.175 0.206 -0.114 2.679 -1.292 4.883 -1.0186 -0.5918 -1.9311 -1.3496 -2.7 -2.242 -0.979 -1.2646 -1.561 -2.7911 -1.6724 -4.3865 -0.1114 -1.5953 0.2527 -3.1879 1.0464 -4.5763s1.9813 -2.5103 3.4125 -3.2237c1.4313 -0.7135 3.042 -0.9865 4.6285 -0.7846 1.5864 0.202 3.0774 0.8698 4.2843 1.9191 1.2068 1.0493 2.0755 2.4329 2.496 3.9758 0.4206 1.543 0.3742 3.176 -0.1334 4.6926 -0.5075 1.5166 -1.4534 2.8486 -2.7179 3.8276" stroke-width="1"></path>
      <path id="vector_40" stroke="#f6f4f1" stroke-linecap="round" stroke-linejoin="round" d="M51.869 68.083c-0.4041 -0.4297 -0.7061 -0.945 -0.8837 -1.5074 -0.1777 -0.5625 -0.2263 -1.1578 -0.1423 -1.7416 0.2863 0.4332 0.6106 0.8402 0.969 1.216" stroke-width="1"></path>
      <path id="vector_41" stroke="#f6f4f1" stroke-linecap="round" stroke-linejoin="round" d="M44.079 70.781c3.534 1.767 7.2 2.184 10.24 0.855" stroke-width="1"></path>
      <path id="vector_42" stroke="#f6f4f1" stroke-linecap="round" stroke-linejoin="round" d="M58.0241 77.392c1.729 3.059 0 10.43 -0.361 13.109 0.283 0.8527 0.6656 1.669 1.14 2.432" stroke-width="1"></path>
      <path id="vector_43" stroke="#f6f4f1" stroke-linecap="round" stroke-linejoin="round" d="M40.945 83.187c-0.3044 -0.9341 -0.5207 -1.8946 -0.646 -2.869l-2.394 4.141" stroke-width="1"></path>
      <path id="vector_44" stroke="#f6f4f1" stroke-linecap="round" stroke-linejoin="round" d="M42.35 92.933c0.699 -0.7433 1.3168 -1.5589 1.843 -2.433 -1.3327 -2.3191 -2.4211 -4.7702 -3.248 -7.314 -2.9029 1.3266 -5.9419 2.3325 -9.063 3 -1.775 0.3946 -3.631 0.1845 -5.2729 -0.5968s-2.9756 -2.089 -3.7891 -3.7152l-7.827 -15.691c1.0653 -1.2733 2.3958 -2.2986 3.8985 -3.0042s3.1414 -1.0744 4.8015 -1.0808l6.878 13.888c5.2091 -1.493 10.2509 -3.5173 15.046 -6.041 1.1447 -0.6715 2.069 -1.6618 2.66 -2.85" stroke-width="1"></path>
      <path id="vector_45" stroke="#f6f4f1" stroke-linecap="round" stroke-linejoin="round" d="M89.5701 56.855h-16.86" stroke-width="1"></path>
      <path id="vector_46" stroke="#f6f4f1" stroke-linecap="round" stroke-linejoin="round" d="M44.375 56.855H31.312c-0.8311 0.001 -1.6277 0.3317 -2.2153 0.9194 -0.5875 0.5878 -0.9179 1.3845 -0.9187 2.2156v11.076" stroke-width="1"></path>
      <path id="vector_47" stroke="#f6f4f1" stroke-linecap="round" stroke-linejoin="round" d="M62.7931 59.135H60m3.7811 0h8.929v-6.631H55.5" stroke-width="1"></path>
      <path id="vector_48" stroke="#f6f4f1" stroke-linecap="round" stroke-linejoin="round" d="M62.584 50.3c0 0.3983 -0.1181 0.7877 -0.3394 1.1189s-0.5358 0.5893 -0.9038 0.7418c-0.3681 0.1524 -0.773 0.1923 -1.1637 0.1146s-0.7495 -0.2695 -1.0312 -0.5512c-0.2816 -0.2817 -0.4735 -0.6405 -0.5512 -1.0312s-0.0378 -0.7956 0.1146 -1.1636c0.1525 -0.3681 0.4106 -0.6826 0.7418 -0.9039s0.7206 -0.3394 1.1189 -0.3394c0.5341 0.0002 1.0462 0.2125 1.4239 0.5902 0.3776 0.3776 0.5899 0.8897 0.5901 1.4238" stroke-width="1"></path>
      <path id="vector_49" stroke="#f6f4f1" stroke-linecap="round" stroke-linejoin="round" d="M64.3121 79.102v13.831h-29.789v-7.372" stroke-width="1"></path>
      <path id="vector_50" stroke="#f6f4f1" stroke-linecap="round" stroke-linejoin="round" d="M34.5231 74.694V63.143H44.5" stroke-width="1"></path>
      <path id="vector_51" stroke="#f6f4f1" stroke-linecap="round" stroke-linejoin="round" d="M86.616 69.204H70.677v-6.061h15.939z" stroke-width="1"></path>
      <path id="vector_52" stroke="#f6f4f1" stroke-linecap="round" stroke-linejoin="round" d="M86.6161 101.14h-52.093v-2.033h52.093z" stroke-width="1"></path>
      <path id="vector_53" stroke="#f6f4f1" stroke-linecap="round" stroke-linejoin="round" d="M86.616 83.491v9.442H70.677v-2.451" stroke-width="1"></path>
      <path id="vector_54" stroke="#f6f4f1" stroke-linecap="round" stroke-linejoin="round" d="M72.634 74.2h8.378" stroke-width="1"></path>
      <path id="vector_55" stroke="#f6f4f1" stroke-linecap="round" stroke-linejoin="round" d="M185.217 177.57H14.765" stroke-width="1"></path>
      <path id="vector_56" stroke="#f6f4f1" stroke-linecap="round" stroke-linejoin="round" d="M99.5731 67.836c-1.843 1.748 -4.6 1.52 -7.846 0.19 1.083 -0.285 0.8 -3.116 0.931 -4.332 -1.444 1.311 -2.926 2.337 -3.439 1.52 -0.475 -0.855 -0.513 -2.717 0.247 -7.751 0.4746 0.2521 0.9705 0.4619 1.482 0.627 -0.19 1.938 0.479 2.054 0.874 1.368 0.73 -1.269 2.166 -0.228 0.76 1.71 0.722 0.74 3.7 3.9 4.18 4.426 0.7519 0.9537 1.7139 1.721 2.811 2.242" stroke-width="1"></path>
      <path id="vector_57" stroke="#f6f4f1" stroke-linecap="round" stroke-linejoin="round" d="M99.573 67.836c2.865 0.6998 5.472 2.199 7.518 4.323 5.615 5.312 9.849 14.142 21.93 24.934 -0.588 1.5598 -1.51 2.972 -2.702 4.137 -1.192 1.166 -2.625 2.056 -4.198 2.608 -7.029 -6.688 -11.893 -11.95 -17 -19.968" stroke-width="1"></path>
      <path id="vector_58" stroke="#f6f4f1" stroke-linecap="round" stroke-linejoin="round" d="M92.658 63.694c-0.057 0.551 -0.057 1.292 -0.076 2.014 -1.14 0.114 -2.831 0.171 -3.192 -0.247l-0.171 -0.228c0.513 0.817 1.995 -0.209 3.439 -1.539" stroke-width="1"></path>
      <path id="vector_59" stroke="#f6f4f1" stroke-linecap="round" stroke-linejoin="round" d="M74.7621 78.3v4.712c0.567 -0.832 1.1 -1.607 1.607 -2.326" stroke-width="1"></path>
      <path id="vector_60" stroke="#f6f4f1" stroke-linecap="round" stroke-linejoin="round" d="M87.6801 81.914c-2.0977 3.4009 -4.6178 6.5224 -7.5 9.29 -2.87 2.715 -7.869 1.788 -10.107 -1.463 -3.1433 -4.7588 -5.6831 -9.8898 -7.561 -15.275 2.4992 -2.0923 5.616 -3.3068 8.872 -3.457 1.1695 3.4583 2.8512 6.7217 4.989 9.681 1.96 -2.837 3.425 -4.93 4.624 -6.49 2.679 -3.533 3.987 -4.418 6.516 -5.129 1.234 -0.347 2.869 -0.7 4.2 -1.045" stroke-width="1"></path>
      <path id="vector_61" stroke="#f6f4f1" stroke-linecap="round" stroke-linejoin="round" d="M102.67 110.449s2.565 -4.75 2.736 -6.744l-0.266 8.815" stroke-width="1"></path>
      <path id="vector_62" stroke="#f6f4f1" stroke-linecap="round" stroke-linejoin="round" d="M87.129 79.273s2.3 10.962 3.382 12.634c-3.23 20.917 -7.219 63.245 -7.979 70.673 4.3087 1.842 9.1084 2.197 13.641 1.007 0 0 5.6 -43.259 6.5 -53.138l14.059 11.893c1.196 1.024 2.604 1.77 4.122 2.185l20.556 5.68" stroke-width="1"></path>
      <path id="vector_63" stroke="#f6f4f1" stroke-linecap="round" stroke-linejoin="round" d="M152.218 118.827c-3.6 -0.2 -6.6 18.191 -3.863 22.048 0.11 0.184 0.26 0.342 0.439 0.461s0.383 0.196 0.595 0.226c0.213 0.03 0.43 0.013 0.635 -0.052 0.205 -0.064 0.393 -0.174 0.55 -0.32 3.842 -3.017 6.099 -22.119 1.644 -22.363" stroke-width="1"></path>
      <path id="vector_64" stroke="#f6f4f1" stroke-linecap="round" stroke-linejoin="round" d="m84.6601 163.416 -0.3 2.546c-0.1402 1.239 -0.6013 2.42 -1.338 3.426 -0.7366 1.007 -1.7232 1.803 -2.862 2.311 -2.9813 1.335 -5.7937 3.018 -8.378 5.016 -0.0778 0.062 -0.1343 0.147 -0.1618 0.243 -0.0274 0.095 -0.0245 0.197 0.0085 0.291 0.0329 0.094 0.0942 0.175 0.1754 0.233 0.0813 0.057 0.1783 0.088 0.2779 0.088 8.492 0 15.616 -0.076 22.4 -0.095 0.0741 -2.247 -0.2673 -4.488 -1.007 -6.611 -0.0933 -0.288 -0.1193 -0.593 -0.076 -0.893 0.165 -1.274 0.532 -4.769 0.646 -5.985" stroke-width="1"></path>
      <path id="vector_65" stroke="#f6f4f1" stroke-linecap="round" stroke-linejoin="round" d="M146.708 117.782c-0.416 -1.366 -1.373 -2.124 -2.651 -1.461 -2.688 1.393 -5.348 8.564 -3.959 12.388 0.638 1.755 2.033 2.225 3.722 0.415" stroke-width="1"></path>
      <path id="vector_66" stroke="#f6f4f1" stroke-linecap="round" stroke-linejoin="round" d="M143.269 116.908c2.936 0.815 5.917 1.456 8.929 1.919" stroke-width="1"></path>
      <path id="vector_67" stroke="#f6f4f1" stroke-linecap="round" stroke-linejoin="round" d="M139.828 127.64c1.277 0.201 2.515 0.599 3.669 1.18 1.211 1.009 1.572 2.5 2.033 4.1 0.951 3.31 1.151 7.55 3.353 8.456" stroke-width="1"></path>
      <path id="vector_68" stroke="#f6f4f1" stroke-linecap="round" stroke-linejoin="round" d="M61.045 63.751c0.6297 0.0307 1.2459 0.1933 1.8087 0.4774 0.5628 0.284 1.0597 0.6832 1.4583 1.1716" stroke-width="1"></path>
      <path id="vector_69" stroke="#f6f4f1" stroke-linecap="round" stroke-linejoin="round" d="M65.3001 64.359c-0.3162 -0.3514 -0.673 -0.6639 -1.063 -0.931" stroke-width="1"></path>
      <path id="vector_70" stroke="#f6f4f1" stroke-linecap="round" stroke-linejoin="round" d="M60.817 67.285c0.5024 0.6819 0.9232 1.4203 1.254 2.2" stroke-width="1"></path>
      <path id="vector_71" stroke="#f6f4f1" stroke-linecap="round" stroke-linejoin="round" d="M60.209 65.385c0.741 -0.228 2.014 0.171 3.211 1.425" stroke-width="1"></path>
      <path id="vector_72" stroke="#f6f4f1" stroke-linecap="round" stroke-linejoin="round" d="M63.211 73.915c-0.1174 -1.5308 -0.5033 -3.029 -1.14 -4.426 -2.014 -0.247 -2.924 -2.783 -2.394 -3.7 0.1177 -0.1983 0.3089 -0.3421 0.532 -0.4 -0.1468 -0.3844 -0.1602 -0.8071 -0.038 -1.2 0.0949 -0.1441 0.2249 -0.2616 0.3779 -0.3414 0.1529 -0.0798 0.3237 -0.1192 0.4961 -0.1146 -0.0015 -0.202 0.0373 -0.4022 0.114 -0.589 0.311 -0.642 1.71 -0.627 3.078 0.285 -1.976 -3.723 -1.543 -6.324 -1.178 -5.547 1.2382 2.308 2.6016 4.5467 4.084 6.706 0.057 -0.57 0.21 -1.554 0.627 -1.634 0.476 -0.09 1.881 5.624 2.47 8.113" stroke-width="1"></path>
      <path id="vector_73" stroke="#f6f4f1" stroke-linecap="round" stroke-linejoin="round" d="M135.309 106.345c-0.795 -0.303 -1.57 -0.658 -2.318 -1.063 0.847 0.871 1.741 1.696 2.679 2.469 1.241 0.826 0.629 1.611 -0.912 0.912 -0.959 -0.471 -1.886 -1.006 -2.774 -1.6 0.722 0.855 1.37 1.67 1.672 1.938 1.108 0.981 0.405 1.681 -1.007 0.8 -0.828 -0.546 -1.621 -1.142 -2.375 -1.786 0.222 0.452 0.483 0.884 0.779 1.292 0.979 1.074 0.36 1.5 -0.969 0.551 -2.559 -1.943 -4.983 -4.056 -7.257 -6.326 2.624 -1.12 4.742 -3.171 5.947 -5.757 1.063 0.8329 2.285 1.4405 3.59 1.786 3.971 1.006 3.534 2.147 -1.235 1.881 1.482 1.494 3.141 2.802 4.94 3.894 1.238 0.814 0.839 1.59 -0.76 1.009" stroke-width="1"></path>
      <path id="vector_74" stroke="#f6f4f1" stroke-linecap="round" stroke-linejoin="round" d="M131.186 104.2c0.437 0.285 1.064 0.684 1.805 1.083" stroke-width="1"></path>
      <path id="vector_75" stroke="#f6f4f1" stroke-linecap="round" stroke-linejoin="round" d="M131.11 101.444c-0.285 -0.3 -0.589 -0.608 -0.874 -0.95" stroke-width="1"></path>
      <path id="vector_76" stroke="#f6f4f1" stroke-linecap="round" stroke-linejoin="round" d="M129.705 105.509c0.417 0.3 1.291 0.912 2.279 1.539" stroke-width="1"></path>
      <path id="vector_77" stroke="#f6f4f1" stroke-linecap="round" stroke-linejoin="round" d="M128.6 106.516c0.342 0.342 0.969 0.893 1.652 1.482" stroke-width="1"></path>
      <path id="vector_78" stroke="#f6f4f1" stroke-linecap="round" stroke-linejoin="round" d="M89.4661 57.463c0.133 -0.76 0.286 -1.767 0.513 -2.717 0.363 -1.519 1.805 -1.539 1.71 -0.684 0.912 -1.653 2.356 -1.045 2.109 -0.323 0.836 -1.482 2.432 -0.874 2.052 -0.114 0.931 -1.292 2.431 -0.741 2.07 0.095 0.95 -1.254 2.5839 -0.646 1.539 1.064 -1.223 2 -4.924 7.729 -2.88 10.618" stroke-width="1"></path>
      <path id="vector_79" stroke="#f6f4f1" stroke-linecap="round" stroke-linejoin="round" d="m174.521 72.168 12.254 10.449 -12.254 10.43" stroke-width="1"></path>
      <path id="vector_80" stroke="#f6f4f1" stroke-linecap="round" stroke-linejoin="round" d="M17.672 72.529 6.25403 82.275 18.489 92.705" stroke-width="1"></path>
      <path id="vector_81" stroke="#f6f4f1" stroke-linecap="round" stroke-linejoin="round" d="M87.5281 69.071s4.066 14.989 0.172 12.829" stroke-width="1"></path>
      <path id="vector_82" stroke="#f6f4f1" stroke-linecap="round" stroke-linejoin="round" d="M103.3 69.3c1.57 1.543 2.185 6.744 2 10.05 -0.26 3.5749 -0.222 7.1654 0.114 10.734 4.211 1.895 6.551 6.244 8.34 9.917 2.394 4.959 8.4 10.452 8.4 10.452l23.137 5.678" stroke-width="1"></path>
      <path id="vector_83" stroke="#f6f4f1" stroke-linecap="round" stroke-linejoin="round" d="M89.9601 68.463c0.6831 1.9511 1.1917 3.959 1.52 6l10.6999 -0.285c-0.373 -2.0485 -0.894 -4.0675 -1.558 -6.041" stroke-width="1"></path>
      <path id="vector_84" stroke="#f6f4f1" stroke-linecap="round" stroke-linejoin="round" d="m22.953 112.729 -4.293 4.293" stroke-width="1"></path>
      <path id="vector_85" stroke="#f6f4f1" stroke-linecap="round" stroke-linejoin="round" d="M28.178 86.226v18.106c0.001 0.831 0.3316 1.627 0.9191 2.215 0.5875 0.587 1.384 0.918 2.2149 0.919H88.4" stroke-width="1"></path>
      <path id="vector_86" stroke="#f6f4f1" stroke-linecap="round" stroke-linejoin="round" d="M33.611 102.071c1.0538 1.054 1.7715 2.397 2.0622 3.859 0.2907 1.461 0.1415 2.977 -0.4289 4.354s-1.5363 2.553 -2.7756 3.382c-1.2393 0.828 -2.6963 1.27 -4.1867 1.27 -1.4905 0 -2.9475 -0.442 -4.1867 -1.27 -1.2393 -0.829 -2.2052 -2.005 -2.7756 -3.382s-0.7197 -2.893 -0.429 -4.354c0.2907 -1.462 1.0084 -2.805 2.0623 -3.859 1.4142 -1.412 3.3308 -2.2046 5.329 -2.2046s3.9148 0.7926 5.329 2.2046" stroke-width="1"></path>
      <path id="vector_87" stroke="#f6f4f1" stroke-linecap="round" stroke-linejoin="round" d="M82.76 26.534h-8.207" stroke-width="1"></path>
      <path id="vector_88" stroke="#f6f4f1" stroke-linecap="round" stroke-linejoin="round" d="M78.666 30.637V22.43" stroke-width="1"></path>
      <path id="vector_89" stroke="#f6f4f1" stroke-linecap="round" stroke-linejoin="round" d="M122.979 143.829c0.041 0.47 -0.058 0.941 -0.284 1.355 -0.227 0.413 -0.571 0.75 -0.989 0.968s-0.891 0.307 -1.36 0.256 -0.912 -0.24 -1.273 -0.543c-0.362 -0.303 -0.625 -0.706 -0.757 -1.159 -0.132 -0.452 -0.127 -0.934 0.014 -1.384 0.142 -0.45 0.413 -0.847 0.781 -1.143 0.368 -0.295 0.814 -0.475 1.284 -0.516 0.63 -0.055 1.256 0.142 1.74 0.548 0.485 0.406 0.788 0.988 0.844 1.618" stroke-width="1"></path>
      <path id="vector_90" stroke="#f6f4f1" stroke-linecap="round" stroke-linejoin="round" d="M193.083 48.724c-0.837 0.5886 -1.735 1.0854 -2.679 1.482 0.152 -0.114 1.235 -1.425 2.508 -3.021 1.52 -1.9 1.1 -2.755 -1.007 -0.836 -0.747 0.6892 -1.548 1.3182 -2.394 1.881 0.095 -0.133 1.5 -2.337 2.451 -4.142 1.064 -2.052 0.3 -2.546 -1.254 -0.57 -0.082 0.1 -2.807 3.337 -3.591 4.2l0.568 -0.645c0.156 -1.0648 0.463 -2.1017 0.914 -3.079 0.855 -2 0.136 -2.577 -1.235 -0.437 -0.074 0.115 -2.063 3.331 -2.432 3.762 -0.3 0.347 -0.836 0.912 -1.158 0.8 -1.178 -0.437 -2.565 -3.249 -3.572 -2.755 -0.646 0.3 0.437 2.128 1.064 3.439 0.466 0.981 -0.407 2.173 -1.349 2.944 2.194 1.5781 3.878 3.7644 4.844 6.289 3.971 -3.325 4.978 -4.5 8.018 -7.277 0.342 -0.322 0.741 -0.7 1.178 -1.158 1.634 -1.713 1.33 -2.416 -0.874 -0.877" stroke-width="1"></path>
      <path id="vector_91" stroke="#f6f4f1" stroke-linecap="round" stroke-linejoin="round" d="m159.342 80.109 -3.021 0.513c-0.095 0.456 -0.266 1.311 -0.437 2.2" stroke-width="1"></path>
      <path id="vector_92" stroke="#f6f4f1" stroke-linecap="round" stroke-linejoin="round" d="M149.862 71.275c0.817 0.342 1.955 0.263 3.514 -0.551 1.936 -1.011 24.85 -19.17 24.85 -19.17 2.033 -1.538 8.454 7.2 6.345 8.74l-28.687 22.532c-0.625 3.3454 -0.936 6.7418 -0.931 10.145" stroke-width="1"></path>
      <path id="vector_93" stroke="#f6f4f1" stroke-linecap="round" stroke-linejoin="round" d="M143.63 72.7c0.548 -0.51 0.953 -1.1536 1.177 -1.8676s0.259 -1.474 0.101 -2.2054c-1.206 0.358 -4.11 0.744 -2.627 -5.407 1.4 -5.748 4.138 -2.531 4.577 -0.308 0.093 0.475 0.28 0.67 0.876 -0.034 1.062 -1.255 2.491 0.7 0.361 2.394 -0.3 0.242 -0.672 4.961 1.748 6 -2.717 5.322 -4.807 5.816 -6.213 1.428" stroke-width="1"></path>
      <path id="vector_94" stroke="#f6f4f1" stroke-linecap="round" stroke-linejoin="round" d="M144.908 68.626c0.292 -0.092 0.673 -0.256 0.907 -0.334L145 69.375" stroke-width="1"></path>
      <path id="vector_95" stroke="#f6f4f1" stroke-linecap="round" stroke-linejoin="round" d="M128.983 86.169c4.35 -6.744 8.245 -10.828 12.861 -12.444 0.658 -0.2177 1.266 -0.5664 1.786 -1.025" stroke-width="1"></path>
      <path id="vector_96" stroke="#f6f4f1" stroke-linecap="round" stroke-linejoin="round" d="M139.014 78.836c-1.1 2.356 -2.225 3.363 0.456 11.285 0.4 1.178 0.513 1.539 1.083 3.04" stroke-width="1"></path>
      <path id="vector_97" stroke="#f6f4f1" stroke-linecap="round" stroke-linejoin="round" d="M145.625 75.625c-1.14 4.959 -0.855 10.772 0.494 17.194" stroke-width="1"></path>
      <path id="vector_98" stroke="#f6f4f1" stroke-linecap="round" stroke-linejoin="round" d="M186.129 47.166c1.626 0.8694 2.897 2.2807 3.591 3.989" stroke-width="1"></path>
      <path id="vector_99" stroke="#f6f4f1" stroke-linecap="round" stroke-linejoin="round" d="M185.692 48.724c1.045 1.843 1.1 3.571 -0.3 5.015" stroke-width="1"></path>
      <path id="vector_100" stroke="#f6f4f1" stroke-linecap="round" stroke-linejoin="round" d="M138.653 87.556c-1.257 2.0398 -2.778 3.9051 -4.522 5.548" stroke-width="1"></path>
      <path id="vector_101" stroke="#f6f4f1" stroke-linecap="round" stroke-linejoin="round" d="M16.2371 64.937c-0.718 -1.76 -1.5532 -3.4698 -2.5 -5.118 -0.9864 -1.4949 -2.1332 -2.8774 -3.42 -4.123 -1.90003 -1.828 -1.72803 -2.546 0.779 -1.178 0.917 0.5 9.447 6.305 10.811 7.734" stroke-width="1"></path>
      <path id="vector_102" stroke="#f6f4f1" stroke-linecap="round" stroke-linejoin="round" d="M17.349 58.774c1.273 0.76 0.454 -1.9 0.418 -2.926 -0.04 -1.121 0.337 -2.354 1.33 0.608 0.7262 2.0233 1.662 3.9652 2.792 5.794" stroke-width="1"></path>
      <path id="vector_103" stroke="#f6f4f1" stroke-linecap="round" stroke-linejoin="round" d="M10.7001 56.076c-0.6709 -0.5001 -1.3686 -0.9631 -2.09002 -1.387 -2.7 -1.512 -2.793 -0.57 -1.71 0.247 0.931 0.7 2.489 1.8 3.26702 2.546 1.255 1.2 4.389 3.572 4.978 4.958" stroke-width="1"></path>
      <path id="vector_104" stroke="#f6f4f1" stroke-linecap="round" stroke-linejoin="round" d="M6.74803 54.822c-1.767 -0.494 -1.9 0.016 -1.653 0.171 0.976 0.616 2.674 1.432 3.61 1.976 0.529 0.308 2.63997 1.634 3.15297 2.014" stroke-width="1"></path>
      <path id="vector_105" stroke="#f6f4f1" stroke-linecap="round" stroke-linejoin="round" d="m58.7271 83.016 5.5659 3.457" stroke-width="1"></path>
      <path id="vector_106" stroke="#f6f4f1" stroke-linecap="round" stroke-linejoin="round" d="M142.186 63.371h-13.203v29.79h29.789V80.622" stroke-width="1"></path>
      <path id="vector_107" stroke="#f6f4f1" stroke-linecap="round" stroke-linejoin="round" d="M67.1431 64.587c0.3812 0.7093 0.693 1.4537 0.931 2.223" stroke-width="1"></path>
      <path id="vector_108" stroke="#f6f4f1" stroke-linecap="round" stroke-linejoin="round" d="m89.048 81.667 0.6032 1.9943M84.66 163.359l0.1565 -1.494m6.7504 -71.8696 0.5781 1.9116 -0.1561 1.4907m-0.5196 4.9603 -0.3146 3.003m-0.5199 4.962 -0.3046 2.909m-0.5196 4.96 -0.3261 3.112m-0.512 4.888 -0.3066 2.927m-0.5272 5.033 -0.3131 2.988m-0.519 4.954 -0.3148 3.005m-0.5176 4.942 -0.309 2.949m-0.5108 4.877 -0.3167 3.023" stroke-width="1"></path>
      <path id="vector_109" stroke="#f6f4f1" stroke-linecap="round" stroke-linejoin="round" d="m139.736 126.047 -1.286 -0.369m-29.825 -15.014 1.807 1.564m3.212 2.781 1.978 1.712m3.225 2.793 0.94 0.814 1.243 0.356m4.144 1.188 2.554 0.733m4.062 1.164 2.516 0.721" stroke-width="1"></path>
    </g>
  </g>
</svg>