<svg xmlns="http://www.w3.org/2000/svg" xmlns:xlink="http://www.w3.org/1999/xlink" width="500" zoomAndPan="magnify" viewBox="0 0 375 374.999991" height="500" preserveAspectRatio="xMidYMid meet" version="1.0"><defs><g/><clipPath id="a87d52b5e2"><path d="M 113 135 L 262 135 L 262 240.46875 L 113 240.46875 Z M 113 135 " clip-rule="nonzero"/></clipPath></defs><g clip-path="url(#a87d52b5e2)"><path fill="#b29e84" d="M 261.90625 174.617188 C 261.324219 165.347656 254.261719 157 245.34375 154.628906 C 239.621094 153.09375 233.089844 153.742188 227.859375 156.601562 C 227.632812 155.78125 227.367188 154.96875 227.0625 154.175781 C 223.445312 144.59375 214 138.136719 204.171875 136.171875 C 202.238281 135.773438 200.28125 135.519531 198.316406 135.386719 C 192.660156 134.730469 187.542969 136.804688 182.828125 139.550781 C 170.558594 146.679688 160.460938 158.828125 145.703125 160.34375 C 145.445312 160.363281 145.230469 160.558594 145.203125 160.824219 C 145.171875 161.113281 145.382812 161.371094 145.675781 161.402344 C 148.167969 161.71875 150.695312 161.628906 153.175781 161.214844 C 160.578125 159.949219 167.34375 156 173.523438 152.101562 C 180.730469 147.804688 189.285156 140.523438 197.621094 141.378906 C 207.953125 141.878906 218.535156 146.460938 223.90625 155.6875 C 224.40625 156.527344 224.863281 157.394531 225.261719 158.292969 C 223.894531 159.34375 222.664062 160.585938 221.632812 162.015625 C 220.386719 163.8125 219.589844 165.992188 219.640625 168.144531 C 219.644531 168.371094 219.800781 168.582031 220.035156 168.644531 C 220.320312 168.71875 220.617188 168.546875 220.691406 168.257812 C 221.1875 166.414062 222.21875 164.847656 223.527344 163.582031 C 224.417969 162.761719 225.390625 162.042969 226.425781 161.417969 C 227.109375 161.007812 227.824219 160.640625 228.558594 160.316406 C 234.941406 157.484375 242.949219 157.925781 248.667969 161.691406 C 252.640625 164.34375 255.550781 168.625 256.3125 173.34375 C 256.636719 175.578125 256.484375 177.84375 256.253906 180.066406 C 255.535156 186.726562 252.207031 193.074219 246.207031 196.179688 C 242.601562 198.09375 238.585938 199.253906 234.507812 199.578125 C 226.820312 200.375 220.789062 197.457031 214.269531 194.839844 C 219.164062 192.949219 223.914062 189.105469 224.039062 183.585938 C 224.046875 183.003906 223.21875 182.839844 223.003906 183.378906 C 221.59375 186.664062 218.964844 188.765625 215.867188 190.324219 C 213.757812 191.402344 211.496094 192.085938 209.3125 193.015625 C 208.464844 192.742188 207.597656 192.488281 206.714844 192.261719 C 204.59375 191.726562 202.457031 191.355469 200.316406 191.125 C 200.316406 191.125 200.3125 191.125 200.3125 191.125 C 204.8125 187.875 208.269531 182.773438 209.332031 177.699219 C 209.925781 175.0625 210.066406 172.140625 208.929688 169.621094 C 208.679688 169.054688 207.808594 169.339844 207.921875 169.9375 C 208.289062 172.335938 207.722656 174.746094 206.855469 176.972656 C 204.59375 183.082031 199.632812 187.84375 193.808594 190.554688 C 193.636719 190.648438 193.453125 190.730469 193.277344 190.816406 C 190.855469 190.855469 188.429688 191.03125 186.011719 191.304688 C 186.164062 191.132812 186.316406 190.960938 186.464844 190.785156 C 189.136719 187.675781 190.890625 183.515625 190.6875 179.421875 C 190.675781 179.191406 190.511719 178.984375 190.277344 178.929688 C 189.984375 178.859375 189.691406 179.046875 189.632812 179.339844 C 189.355469 180.511719 188.96875 181.628906 188.484375 182.6875 C 187.019531 185.800781 184.613281 188.417969 181.738281 190.261719 C 174.414062 195.007812 163.398438 194.074219 156.003906 189.972656 C 152.011719 187.597656 148.953125 183.738281 145.609375 180.359375 C 145.195312 179.949219 144.527344 180.402344 144.726562 180.9375 C 145.640625 183.289062 146.746094 185.558594 148.144531 187.738281 C 151.019531 192.335938 154.921875 195.175781 159.683594 196.730469 C 159.683594 196.730469 159.683594 196.730469 159.679688 196.730469 C 157.988281 197.28125 156.328125 197.925781 154.722656 198.691406 C 150.464844 200.671875 146.292969 203.554688 141.625 203.6875 C 131.371094 205.128906 121.460938 190.425781 119.328125 181.605469 C 117.417969 174.097656 120.761719 165.609375 127.445312 161.566406 C 135.902344 156.367188 146.519531 156.550781 155.761719 152.75 C 160.039062 151.128906 163.695312 148.203125 167.472656 145.757812 C 168.015625 145.40625 167.570312 144.570312 166.964844 144.832031 C 162.933594 146.738281 159.207031 149.1875 154.925781 150.398438 C 148.601562 152.292969 141.738281 152.640625 135.183594 154.09375 C 130.566406 155.082031 125.828125 156.792969 122.085938 159.84375 C 115.648438 164.9375 112.503906 173.675781 114.042969 181.761719 C 115.519531 189.921875 121.457031 199.304688 127.859375 204.558594 C 131.75 207.78125 136.953125 210.054688 142.203125 209.378906 C 143.597656 209.339844 144.953125 209.121094 146.242188 208.789062 C 147.132812 215.164062 147.882812 221.566406 148.371094 227.96875 C 148.679688 231.804688 148.78125 236.402344 148.71875 240.257812 C 148.71875 240.257812 153.429688 238.054688 153.429688 238.054688 C 158 235.957031 163.195312 234.644531 168.195312 233.605469 C 181.9375 230.929688 202.300781 229.023438 215.480469 234.039062 C 215.734375 234.144531 216.027344 234.042969 216.15625 233.792969 C 216.289062 233.535156 216.1875 233.214844 215.925781 233.082031 C 202.808594 226.695312 181.785156 226.792969 167.363281 228.277344 C 163.214844 228.765625 159.15625 229.371094 155.128906 230.421875 C 154.257812 222.519531 152.835938 214.726562 151.296875 206.933594 C 151.296875 206.933594 151.296875 206.929688 151.296875 206.929688 C 154.183594 205.613281 156.796875 204.09375 159.785156 202.980469 C 163.367188 201.644531 167.15625 200.855469 170.953125 200.046875 C 176.695312 198.835938 182.554688 197.691406 188.34375 197.199219 C 194.980469 196.632812 201.585938 196.921875 207.890625 198.984375 C 211.578125 200.203125 215.0625 201.871094 218.738281 203.214844 C 218.117188 209.449219 218.136719 215.851562 217.960938 222.113281 C 211.980469 220.109375 205.742188 219.019531 199.472656 218.496094 C 191.78125 217.941406 183.816406 218.394531 176.570312 221.171875 C 176.324219 221.265625 176.183594 221.535156 176.253906 221.796875 C 176.324219 222.078125 176.613281 222.25 176.898438 222.175781 C 180.511719 221.234375 184.246094 220.914062 187.953125 220.96875 C 197.167969 221.167969 206.320312 223.425781 214.753906 227.050781 C 216.414062 227.773438 218.023438 228.582031 219.511719 229.453125 C 219.511719 229.453125 223.898438 231.539062 223.898438 231.539062 C 223.949219 230.257812 224.171875 226.347656 224.1875 225.125 C 224.296875 218.597656 224.039062 211.546875 224.453125 204.910156 C 232.710938 206.675781 241.613281 205.398438 249.011719 201.304688 C 258.722656 196.027344 262.496094 185.160156 261.90625 174.617188 Z M 261.90625 174.617188 " fill-opacity="1" fill-rule="nonzero"/></g><g fill="#ffffff" fill-opacity="1"><g transform="translate(96.069313, 262.398088)"><g><path d="M 10 -17.640625 C 11.625 -17.640625 13.003906 -17.359375 14.140625 -16.796875 L 14.140625 -12.8125 L 14.125 -12.78125 C 13.632812 -13.53125 12.609375 -14.023438 11.046875 -14.265625 C 10.585938 -14.335938 10.003906 -14.375 9.296875 -14.375 C 8.597656 -14.375 7.910156 -14.242188 7.234375 -13.984375 C 6.554688 -13.722656 6.003906 -13.347656 5.578125 -12.859375 C 4.734375 -11.910156 4.3125 -10.5625 4.3125 -8.8125 C 4.3125 -6.769531 4.84375 -5.25 5.90625 -4.25 C 6.789062 -3.414062 7.960938 -3 9.421875 -3 C 11.066406 -3 12.40625 -3.351562 13.4375 -4.0625 C 13.800781 -4.3125 14.113281 -4.625 14.375 -5 L 14.421875 -4.96875 L 14.421875 -1.328125 C 13.097656 -0.222656 11.3125 0.328125 9.0625 0.328125 C 6.414062 0.328125 4.34375 -0.515625 2.84375 -2.203125 C 1.394531 -3.804688 0.671875 -5.929688 0.671875 -8.578125 C 0.671875 -11.378906 1.460938 -13.585938 3.046875 -15.203125 C 4.640625 -16.828125 6.957031 -17.640625 10 -17.640625 Z M 10 -17.640625 "/></g></g></g><g fill="#ffffff" fill-opacity="1"><g transform="translate(115.259612, 262.398088)"><g><path d="M 7.828125 -6.734375 C 7.566406 -6.710938 7.289062 -6.703125 7 -6.703125 C 6.707031 -6.703125 6.269531 -6.722656 5.6875 -6.765625 L 5.6875 0 L 2.234375 0 L 2.234375 -17.40625 C 3.453125 -17.5625 4.945312 -17.640625 6.71875 -17.640625 C 9.125 -17.640625 10.921875 -17.191406 12.109375 -16.296875 C 13.296875 -15.410156 13.890625 -14.039062 13.890625 -12.1875 C 13.890625 -10.738281 13.347656 -9.503906 12.265625 -8.484375 C 11.910156 -8.148438 11.5 -7.863281 11.03125 -7.625 L 13.6875 -2.03125 C 14.207031 -0.875 14.609375 -0.1875 14.890625 0.03125 L 14.828125 0.09375 C 13.984375 -0.0390625 12.660156 -0.0351562 10.859375 0.109375 Z M 6.96875 -14.5625 C 6.519531 -14.5625 6.09375 -14.539062 5.6875 -14.5 L 5.6875 -9.53125 C 6.113281 -9.46875 6.613281 -9.4375 7.1875 -9.4375 C 7.757812 -9.4375 8.238281 -9.484375 8.625 -9.578125 C 9.019531 -9.679688 9.359375 -9.835938 9.640625 -10.046875 C 10.253906 -10.503906 10.5625 -11.191406 10.5625 -12.109375 C 10.5625 -13.035156 10.242188 -13.6875 9.609375 -14.0625 C 9.003906 -14.394531 8.125 -14.5625 6.96875 -14.5625 Z M 6.96875 -14.5625 "/></g></g></g><g fill="#ffffff" fill-opacity="1"><g transform="translate(134.514971, 262.398088)"><g><path d="M 3.65625 -2.046875 C 2.863281 -2.804688 2.238281 -3.710938 1.78125 -4.765625 C 1.332031 -5.828125 1.109375 -6.988281 1.109375 -8.25 C 1.109375 -9.519531 1.316406 -10.71875 1.734375 -11.84375 C 2.160156 -12.96875 2.769531 -13.957031 3.5625 -14.8125 C 4.351562 -15.675781 5.304688 -16.363281 6.421875 -16.875 C 7.546875 -17.382812 8.800781 -17.640625 10.1875 -17.640625 C 12.582031 -17.640625 14.601562 -16.882812 16.25 -15.375 C 18 -13.757812 18.875 -11.582031 18.875 -8.84375 C 18.875 -6.1875 17.972656 -3.976562 16.171875 -2.21875 C 15.054688 -1.125 13.734375 -0.375 12.203125 0.03125 C 11.441406 0.226562 10.554688 0.328125 9.546875 0.328125 C 8.535156 0.328125 7.5 0.117188 6.4375 -0.296875 C 5.375 -0.710938 4.445312 -1.296875 3.65625 -2.046875 Z M 4.71875 -8.4375 C 4.71875 -7.625 4.851562 -6.878906 5.125 -6.203125 C 5.394531 -5.523438 5.769531 -4.945312 6.25 -4.46875 C 7.257812 -3.4375 8.566406 -2.921875 10.171875 -2.921875 C 11.679688 -2.921875 12.898438 -3.414062 13.828125 -4.40625 C 14.765625 -5.414062 15.234375 -6.796875 15.234375 -8.546875 C 15.234375 -10.203125 14.785156 -11.578125 13.890625 -12.671875 C 12.921875 -13.859375 11.601562 -14.453125 9.9375 -14.453125 C 8.3125 -14.453125 7.019531 -13.851562 6.0625 -12.65625 C 5.164062 -11.53125 4.71875 -10.125 4.71875 -8.4375 Z M 4.71875 -8.4375 "/></g></g></g><g fill="#ffffff" fill-opacity="1"><g transform="translate(158.22041, 262.398088)"><g><path d="M 12.6875 -16.34375 L 12.4375 -12.515625 L 12.359375 -12.5 C 11.710938 -13.457031 10.617188 -14.082031 9.078125 -14.375 C 8.585938 -14.46875 8.117188 -14.515625 7.671875 -14.515625 C 7.222656 -14.515625 6.835938 -14.472656 6.515625 -14.390625 C 6.203125 -14.316406 5.9375 -14.207031 5.71875 -14.0625 C 5.238281 -13.75 5 -13.335938 5 -12.828125 C 5 -12.171875 5.207031 -11.675781 5.625 -11.34375 C 6.144531 -10.945312 7.003906 -10.664062 8.203125 -10.5 C 9.410156 -10.34375 10.378906 -10.125 11.109375 -9.84375 C 11.835938 -9.570312 12.4375 -9.222656 12.90625 -8.796875 C 13.789062 -7.992188 14.234375 -6.867188 14.234375 -5.421875 C 14.234375 -3.503906 13.515625 -2.03125 12.078125 -1 C 10.847656 -0.113281 9.296875 0.328125 7.421875 0.328125 C 5.910156 0.328125 4.414062 0.0390625 2.9375 -0.53125 C 2.457031 -0.71875 2.035156 -0.941406 1.671875 -1.203125 L 1.8125 -5.546875 L 1.859375 -5.578125 C 2.929688 -3.722656 4.695312 -2.796875 7.15625 -2.796875 C 8.90625 -2.796875 10.0625 -3.21875 10.625 -4.0625 C 10.8125 -4.34375 10.90625 -4.660156 10.90625 -5.015625 C 10.90625 -5.367188 10.847656 -5.660156 10.734375 -5.890625 C 10.617188 -6.117188 10.429688 -6.316406 10.171875 -6.484375 C 9.671875 -6.804688 8.828125 -7.023438 7.640625 -7.140625 C 6.453125 -7.253906 5.476562 -7.46875 4.71875 -7.78125 C 3.96875 -8.09375 3.367188 -8.476562 2.921875 -8.9375 C 2.097656 -9.769531 1.6875 -10.9375 1.6875 -12.4375 C 1.6875 -13.976562 2.226562 -15.222656 3.3125 -16.171875 C 4.414062 -17.148438 5.898438 -17.640625 7.765625 -17.640625 C 9.640625 -17.640625 11.28125 -17.207031 12.6875 -16.34375 Z M 12.6875 -16.34375 "/></g></g></g><g fill="#ffffff" fill-opacity="1"><g transform="translate(177.475768, 262.398088)"><g><path d="M 12.6875 -16.34375 L 12.4375 -12.515625 L 12.359375 -12.5 C 11.710938 -13.457031 10.617188 -14.082031 9.078125 -14.375 C 8.585938 -14.46875 8.117188 -14.515625 7.671875 -14.515625 C 7.222656 -14.515625 6.835938 -14.472656 6.515625 -14.390625 C 6.203125 -14.316406 5.9375 -14.207031 5.71875 -14.0625 C 5.238281 -13.75 5 -13.335938 5 -12.828125 C 5 -12.171875 5.207031 -11.675781 5.625 -11.34375 C 6.144531 -10.945312 7.003906 -10.664062 8.203125 -10.5 C 9.410156 -10.34375 10.378906 -10.125 11.109375 -9.84375 C 11.835938 -9.570312 12.4375 -9.222656 12.90625 -8.796875 C 13.789062 -7.992188 14.234375 -6.867188 14.234375 -5.421875 C 14.234375 -3.503906 13.515625 -2.03125 12.078125 -1 C 10.847656 -0.113281 9.296875 0.328125 7.421875 0.328125 C 5.910156 0.328125 4.414062 0.0390625 2.9375 -0.53125 C 2.457031 -0.71875 2.035156 -0.941406 1.671875 -1.203125 L 1.8125 -5.546875 L 1.859375 -5.578125 C 2.929688 -3.722656 4.695312 -2.796875 7.15625 -2.796875 C 8.90625 -2.796875 10.0625 -3.21875 10.625 -4.0625 C 10.8125 -4.34375 10.90625 -4.660156 10.90625 -5.015625 C 10.90625 -5.367188 10.847656 -5.660156 10.734375 -5.890625 C 10.617188 -6.117188 10.429688 -6.316406 10.171875 -6.484375 C 9.671875 -6.804688 8.828125 -7.023438 7.640625 -7.140625 C 6.453125 -7.253906 5.476562 -7.46875 4.71875 -7.78125 C 3.96875 -8.09375 3.367188 -8.476562 2.921875 -8.9375 C 2.097656 -9.769531 1.6875 -10.9375 1.6875 -12.4375 C 1.6875 -13.976562 2.226562 -15.222656 3.3125 -16.171875 C 4.414062 -17.148438 5.898438 -17.640625 7.765625 -17.640625 C 9.640625 -17.640625 11.28125 -17.207031 12.6875 -16.34375 Z M 12.6875 -16.34375 "/></g></g></g><g fill="#ffffff" fill-opacity="1"><g transform="translate(196.731127, 262.398088)"><g><path d="M 11.359375 -7.484375 C 10.941406 -7.523438 10.40625 -7.546875 9.75 -7.546875 L 5.8125 -7.546875 L 5.8125 0 L 2.234375 0 L 2.234375 -17.40625 C 2.472656 -17.382812 2.742188 -17.367188 3.046875 -17.359375 L 4.015625 -17.34375 C 4.671875 -17.320312 5.351562 -17.3125 6.0625 -17.3125 C 8.195312 -17.3125 10.238281 -17.347656 12.1875 -17.421875 C 12.09375 -16.648438 12.046875 -15.628906 12.046875 -14.359375 C 12.046875 -14.210938 12.050781 -14.109375 12.0625 -14.046875 L 12.046875 -14 C 11.578125 -14.132812 10.929688 -14.203125 10.109375 -14.203125 L 5.8125 -14.203125 L 5.8125 -10.625 L 9.609375 -10.625 C 10.554688 -10.625 11.128906 -10.648438 11.328125 -10.703125 Z M 11.359375 -7.484375 "/></g></g></g><g fill="#ffffff" fill-opacity="1"><g transform="translate(213.761445, 262.398088)"><g><path d="M 3.65625 -2.046875 C 2.863281 -2.804688 2.238281 -3.710938 1.78125 -4.765625 C 1.332031 -5.828125 1.109375 -6.988281 1.109375 -8.25 C 1.109375 -9.519531 1.316406 -10.71875 1.734375 -11.84375 C 2.160156 -12.96875 2.769531 -13.957031 3.5625 -14.8125 C 4.351562 -15.675781 5.304688 -16.363281 6.421875 -16.875 C 7.546875 -17.382812 8.800781 -17.640625 10.1875 -17.640625 C 12.582031 -17.640625 14.601562 -16.882812 16.25 -15.375 C 18 -13.757812 18.875 -11.582031 18.875 -8.84375 C 18.875 -6.1875 17.972656 -3.976562 16.171875 -2.21875 C 15.054688 -1.125 13.734375 -0.375 12.203125 0.03125 C 11.441406 0.226562 10.554688 0.328125 9.546875 0.328125 C 8.535156 0.328125 7.5 0.117188 6.4375 -0.296875 C 5.375 -0.710938 4.445312 -1.296875 3.65625 -2.046875 Z M 4.71875 -8.4375 C 4.71875 -7.625 4.851562 -6.878906 5.125 -6.203125 C 5.394531 -5.523438 5.769531 -4.945312 6.25 -4.46875 C 7.257812 -3.4375 8.566406 -2.921875 10.171875 -2.921875 C 11.679688 -2.921875 12.898438 -3.414062 13.828125 -4.40625 C 14.765625 -5.414062 15.234375 -6.796875 15.234375 -8.546875 C 15.234375 -10.203125 14.785156 -11.578125 13.890625 -12.671875 C 12.921875 -13.859375 11.601562 -14.453125 9.9375 -14.453125 C 8.3125 -14.453125 7.019531 -13.851562 6.0625 -12.65625 C 5.164062 -11.53125 4.71875 -10.125 4.71875 -8.4375 Z M 4.71875 -8.4375 "/></g></g></g><g fill="#ffffff" fill-opacity="1"><g transform="translate(237.466884, 262.398088)"><g><path d="M 3.65625 -2.046875 C 2.863281 -2.804688 2.238281 -3.710938 1.78125 -4.765625 C 1.332031 -5.828125 1.109375 -6.988281 1.109375 -8.25 C 1.109375 -9.519531 1.316406 -10.71875 1.734375 -11.84375 C 2.160156 -12.96875 2.769531 -13.957031 3.5625 -14.8125 C 4.351562 -15.675781 5.304688 -16.363281 6.421875 -16.875 C 7.546875 -17.382812 8.800781 -17.640625 10.1875 -17.640625 C 12.582031 -17.640625 14.601562 -16.882812 16.25 -15.375 C 18 -13.757812 18.875 -11.582031 18.875 -8.84375 C 18.875 -6.1875 17.972656 -3.976562 16.171875 -2.21875 C 15.054688 -1.125 13.734375 -0.375 12.203125 0.03125 C 11.441406 0.226562 10.554688 0.328125 9.546875 0.328125 C 8.535156 0.328125 7.5 0.117188 6.4375 -0.296875 C 5.375 -0.710938 4.445312 -1.296875 3.65625 -2.046875 Z M 4.71875 -8.4375 C 4.71875 -7.625 4.851562 -6.878906 5.125 -6.203125 C 5.394531 -5.523438 5.769531 -4.945312 6.25 -4.46875 C 7.257812 -3.4375 8.566406 -2.921875 10.171875 -2.921875 C 11.679688 -2.921875 12.898438 -3.414062 13.828125 -4.40625 C 14.765625 -5.414062 15.234375 -6.796875 15.234375 -8.546875 C 15.234375 -10.203125 14.785156 -11.578125 13.890625 -12.671875 C 12.921875 -13.859375 11.601562 -14.453125 9.9375 -14.453125 C 8.3125 -14.453125 7.019531 -13.851562 6.0625 -12.65625 C 5.164062 -11.53125 4.71875 -10.125 4.71875 -8.4375 Z M 4.71875 -8.4375 "/></g></g></g><g fill="#ffffff" fill-opacity="1"><g transform="translate(261.172323, 262.398088)"><g><path d="M 6.453125 0.328125 C 5.046875 0.328125 3.722656 0.210938 2.484375 -0.015625 L 2.484375 -17.421875 C 3.628906 -17.566406 4.957031 -17.640625 6.46875 -17.640625 C 7.988281 -17.640625 9.363281 -17.429688 10.59375 -17.015625 C 11.820312 -16.609375 12.847656 -16.019531 13.671875 -15.25 C 15.335938 -13.726562 16.171875 -11.59375 16.171875 -8.84375 C 16.171875 -5.757812 15.238281 -3.421875 13.375 -1.828125 C 11.707031 -0.390625 9.398438 0.328125 6.453125 0.328125 Z M 5.875 -2.84375 C 6.4375 -2.738281 7 -2.6875 7.5625 -2.6875 C 8.125 -2.6875 8.726562 -2.796875 9.375 -3.015625 C 10.03125 -3.242188 10.597656 -3.59375 11.078125 -4.0625 C 12.097656 -5.050781 12.609375 -6.488281 12.609375 -8.375 C 12.609375 -11.488281 11.476562 -13.398438 9.21875 -14.109375 C 8.46875 -14.335938 7.601562 -14.453125 6.625 -14.453125 L 6.28125 -14.453125 C 6.144531 -14.453125 6.007812 -14.453125 5.875 -14.453125 Z M 5.875 -2.84375 "/></g></g></g><g fill="#f6f4f1" fill-opacity="1"><g transform="translate(83.001128, 290.060079)"><g><path d="M 13.6875 -13.609375 C 13.488281 -13.109375 13.285156 -12.5 13.078125 -11.78125 C 12.878906 -11.070312 12.671875 -10.207031 12.453125 -9.1875 L 12.03125 -9.1875 C 12.132812 -9.851562 12.171875 -10.410156 12.140625 -10.859375 C 12.109375 -11.316406 12.007812 -11.707031 11.84375 -12.03125 C 11.59375 -12.519531 11.238281 -12.890625 10.78125 -13.140625 C 10.332031 -13.398438 9.847656 -13.53125 9.328125 -13.53125 C 8.660156 -13.53125 8.007812 -13.332031 7.375 -12.9375 C 6.75 -12.550781 6.164062 -12.023438 5.625 -11.359375 C 5.09375 -10.691406 4.617188 -9.9375 4.203125 -9.09375 C 3.796875 -8.257812 3.476562 -7.390625 3.25 -6.484375 C 3.019531 -5.578125 2.90625 -4.695312 2.90625 -3.84375 C 2.90625 -2.582031 3.148438 -1.640625 3.640625 -1.015625 C 4.128906 -0.390625 4.800781 -0.078125 5.65625 -0.078125 C 6.1875 -0.078125 6.769531 -0.203125 7.40625 -0.453125 C 8.039062 -0.710938 8.597656 -1.085938 9.078125 -1.578125 C 9.421875 -1.921875 9.71875 -2.328125 9.96875 -2.796875 C 10.21875 -3.265625 10.492188 -3.867188 10.796875 -4.609375 L 11.21875 -4.609375 C 10.90625 -3.441406 10.660156 -2.503906 10.484375 -1.796875 C 10.304688 -1.085938 10.175781 -0.488281 10.09375 0 L 9.671875 0 C 9.703125 -0.269531 9.71875 -0.488281 9.71875 -0.65625 C 9.71875 -0.945312 9.664062 -1.109375 9.5625 -1.140625 C 9.46875 -1.171875 9.3125 -1.117188 9.09375 -0.984375 C 8.75 -0.753906 8.398438 -0.546875 8.046875 -0.359375 C 7.703125 -0.171875 7.320312 -0.0195312 6.90625 0.09375 C 6.5 0.207031 6.015625 0.265625 5.453125 0.265625 C 4.046875 0.265625 2.945312 -0.113281 2.15625 -0.875 C 1.375 -1.632812 0.984375 -2.757812 0.984375 -4.25 C 0.984375 -5.113281 1.113281 -6 1.375 -6.90625 C 1.644531 -7.8125 2.03125 -8.679688 2.53125 -9.515625 C 3.03125 -10.347656 3.625 -11.085938 4.3125 -11.734375 C 5.007812 -12.390625 5.78125 -12.910156 6.625 -13.296875 C 7.476562 -13.679688 8.390625 -13.875 9.359375 -13.875 C 9.910156 -13.875 10.359375 -13.8125 10.703125 -13.6875 C 11.046875 -13.570312 11.335938 -13.421875 11.578125 -13.234375 C 11.816406 -13.046875 12.03125 -12.84375 12.21875 -12.625 C 12.394531 -12.445312 12.5625 -12.425781 12.71875 -12.5625 C 12.882812 -12.695312 13.070312 -13.046875 13.28125 -13.609375 Z M 13.6875 -13.609375 "/></g></g></g><g fill="#f6f4f1" fill-opacity="1"><g transform="translate(96.838808, 290.060079)"><g><path d="M 5.84375 -9.765625 C 5.4375 -9.765625 5.039062 -9.597656 4.65625 -9.265625 C 4.28125 -8.941406 3.9375 -8.5 3.625 -7.9375 C 3.3125 -7.382812 3.035156 -6.757812 2.796875 -6.0625 C 2.554688 -5.375 2.375 -4.660156 2.25 -3.921875 C 2.125 -3.179688 2.0625 -2.46875 2.0625 -1.78125 C 2.0625 -1.207031 2.148438 -0.785156 2.328125 -0.515625 C 2.515625 -0.242188 2.789062 -0.109375 3.15625 -0.109375 C 3.5625 -0.109375 3.953125 -0.269531 4.328125 -0.59375 C 4.710938 -0.925781 5.0625 -1.367188 5.375 -1.921875 C 5.695312 -2.484375 5.972656 -3.109375 6.203125 -3.796875 C 6.429688 -4.492188 6.609375 -5.207031 6.734375 -5.9375 C 6.867188 -6.675781 6.9375 -7.394531 6.9375 -8.09375 C 6.9375 -8.675781 6.847656 -9.097656 6.671875 -9.359375 C 6.492188 -9.628906 6.21875 -9.765625 5.84375 -9.765625 Z M 0.40625 -2.75 C 0.40625 -3.3125 0.476562 -3.925781 0.625 -4.59375 C 0.78125 -5.257812 1.007812 -5.914062 1.3125 -6.5625 C 1.625 -7.21875 2 -7.816406 2.4375 -8.359375 C 2.882812 -8.898438 3.398438 -9.332031 3.984375 -9.65625 C 4.578125 -9.976562 5.234375 -10.140625 5.953125 -10.140625 C 6.753906 -10.140625 7.394531 -9.894531 7.875 -9.40625 C 8.351562 -8.914062 8.59375 -8.15625 8.59375 -7.125 C 8.59375 -6.5625 8.515625 -5.945312 8.359375 -5.28125 C 8.203125 -4.613281 7.96875 -3.953125 7.65625 -3.296875 C 7.351562 -2.648438 6.976562 -2.054688 6.53125 -1.515625 C 6.09375 -0.984375 5.578125 -0.550781 4.984375 -0.21875 C 4.398438 0.101562 3.75 0.265625 3.03125 0.265625 C 2.238281 0.265625 1.601562 0.015625 1.125 -0.484375 C 0.644531 -0.984375 0.40625 -1.738281 0.40625 -2.75 Z M 0.40625 -2.75 "/></g></g></g><g fill="#f6f4f1" fill-opacity="1"><g transform="translate(107.178671, 290.060079)"><g><path d="M 2.34375 0 L 0.671875 0 L 2.984375 -8.25 C 3.035156 -8.394531 3.078125 -8.5625 3.109375 -8.75 C 3.140625 -8.9375 3.128906 -9.097656 3.078125 -9.234375 C 3.023438 -9.367188 2.894531 -9.4375 2.6875 -9.4375 C 2.40625 -9.4375 2.15625 -9.296875 1.9375 -9.015625 C 1.71875 -8.742188 1.472656 -8.226562 1.203125 -7.46875 L 0.953125 -6.765625 L 0.59375 -6.765625 L 1.078125 -8.171875 C 1.359375 -8.972656 1.707031 -9.5 2.125 -9.75 C 2.539062 -10.007812 2.953125 -10.140625 3.359375 -10.140625 C 3.742188 -10.140625 4.019531 -10.054688 4.1875 -9.890625 C 4.363281 -9.722656 4.460938 -9.507812 4.484375 -9.25 C 4.503906 -8.988281 4.484375 -8.703125 4.421875 -8.390625 C 4.367188 -8.078125 4.304688 -7.765625 4.234375 -7.453125 Z M 3.234375 -4 C 3.679688 -5.15625 4.113281 -6.125 4.53125 -6.90625 C 4.957031 -7.6875 5.375 -8.316406 5.78125 -8.796875 C 6.195312 -9.273438 6.617188 -9.617188 7.046875 -9.828125 C 7.472656 -10.035156 7.914062 -10.140625 8.375 -10.140625 C 8.976562 -10.140625 9.390625 -9.992188 9.609375 -9.703125 C 9.835938 -9.421875 9.9375 -9.054688 9.90625 -8.609375 C 9.882812 -8.171875 9.796875 -7.71875 9.640625 -7.25 L 7.78125 -1.640625 C 7.664062 -1.285156 7.617188 -0.992188 7.640625 -0.765625 C 7.660156 -0.546875 7.8125 -0.4375 8.09375 -0.4375 C 8.332031 -0.4375 8.570312 -0.570312 8.8125 -0.84375 C 9.050781 -1.113281 9.304688 -1.632812 9.578125 -2.40625 L 9.828125 -3.109375 L 10.1875 -3.109375 L 9.703125 -1.703125 C 9.523438 -1.171875 9.300781 -0.765625 9.03125 -0.484375 C 8.769531 -0.203125 8.492188 -0.0078125 8.203125 0.09375 C 7.921875 0.207031 7.644531 0.265625 7.375 0.265625 C 7.070312 0.265625 6.820312 0.210938 6.625 0.109375 C 6.425781 0.015625 6.273438 -0.113281 6.171875 -0.28125 C 6.023438 -0.519531 5.976562 -0.820312 6.03125 -1.1875 C 6.082031 -1.5625 6.1875 -1.972656 6.34375 -2.421875 L 8.171875 -7.921875 C 8.234375 -8.097656 8.285156 -8.3125 8.328125 -8.5625 C 8.378906 -8.8125 8.367188 -9.035156 8.296875 -9.234375 C 8.234375 -9.429688 8.050781 -9.53125 7.75 -9.53125 C 7.4375 -9.53125 7.109375 -9.394531 6.765625 -9.125 C 6.421875 -8.851562 6.0625 -8.472656 5.6875 -7.984375 C 5.3125 -7.492188 4.945312 -6.90625 4.59375 -6.21875 C 4.238281 -5.53125 3.894531 -4.769531 3.5625 -3.9375 C 3.238281 -3.113281 2.941406 -2.238281 2.671875 -1.3125 Z M 3.234375 -4 "/></g></g></g><g fill="#f6f4f1" fill-opacity="1"><g transform="translate(119.286656, 290.060079)"><g><path d="M 1.609375 -4.359375 C 2.328125 -4.609375 2.976562 -4.847656 3.5625 -5.078125 C 4.144531 -5.316406 4.609375 -5.570312 4.953125 -5.84375 C 5.421875 -6.21875 5.785156 -6.664062 6.046875 -7.1875 C 6.316406 -7.707031 6.453125 -8.285156 6.453125 -8.921875 C 6.453125 -9.285156 6.425781 -9.519531 6.375 -9.625 C 6.320312 -9.726562 6.25 -9.78125 6.15625 -9.78125 C 5.832031 -9.78125 5.484375 -9.640625 5.109375 -9.359375 C 4.742188 -9.078125 4.378906 -8.6875 4.015625 -8.1875 C 3.660156 -7.695312 3.332031 -7.140625 3.03125 -6.515625 C 2.726562 -5.890625 2.484375 -5.21875 2.296875 -4.5 C 2.117188 -3.789062 2.03125 -3.085938 2.03125 -2.390625 C 2.03125 -1.734375 2.148438 -1.257812 2.390625 -0.96875 C 2.640625 -0.675781 2.960938 -0.53125 3.359375 -0.53125 C 3.828125 -0.53125 4.316406 -0.671875 4.828125 -0.953125 C 5.335938 -1.242188 5.835938 -1.742188 6.328125 -2.453125 L 6.625 -2.3125 C 6.382812 -1.882812 6.066406 -1.472656 5.671875 -1.078125 C 5.273438 -0.679688 4.828125 -0.359375 4.328125 -0.109375 C 3.835938 0.140625 3.316406 0.265625 2.765625 0.265625 C 2.253906 0.265625 1.804688 0.164062 1.421875 -0.03125 C 1.035156 -0.238281 0.738281 -0.546875 0.53125 -0.953125 C 0.332031 -1.359375 0.234375 -1.851562 0.234375 -2.4375 C 0.234375 -2.988281 0.332031 -3.609375 0.53125 -4.296875 C 0.738281 -4.984375 1.03125 -5.664062 1.40625 -6.34375 C 1.789062 -7.03125 2.242188 -7.660156 2.765625 -8.234375 C 3.296875 -8.816406 3.878906 -9.28125 4.515625 -9.625 C 5.160156 -9.96875 5.847656 -10.140625 6.578125 -10.140625 C 6.972656 -10.140625 7.304688 -10.035156 7.578125 -9.828125 C 7.859375 -9.617188 8 -9.300781 8 -8.875 C 8 -8.363281 7.847656 -7.882812 7.546875 -7.4375 C 7.242188 -7 6.84375 -6.597656 6.34375 -6.234375 C 5.851562 -5.867188 5.316406 -5.546875 4.734375 -5.265625 C 4.160156 -4.984375 3.597656 -4.738281 3.046875 -4.53125 C 2.503906 -4.332031 2.019531 -4.164062 1.59375 -4.03125 Z M 1.609375 -4.359375 "/></g></g></g><g fill="#f6f4f1" fill-opacity="1"><g transform="translate(128.492615, 290.060079)"><g><path d="M 6.203125 -9.765625 C 5.722656 -9.765625 5.238281 -9.566406 4.75 -9.171875 C 4.269531 -8.773438 3.832031 -8.226562 3.4375 -7.53125 C 3.039062 -6.84375 2.722656 -6.054688 2.484375 -5.171875 C 2.253906 -4.285156 2.140625 -3.359375 2.140625 -2.390625 C 2.140625 -1.734375 2.257812 -1.257812 2.5 -0.96875 C 2.75 -0.675781 3.078125 -0.53125 3.484375 -0.53125 C 3.941406 -0.53125 4.410156 -0.671875 4.890625 -0.953125 C 5.378906 -1.242188 5.867188 -1.742188 6.359375 -2.453125 L 6.75 -2.3125 C 6.5 -1.882812 6.175781 -1.472656 5.78125 -1.078125 C 5.382812 -0.679688 4.9375 -0.359375 4.4375 -0.109375 C 3.945312 0.140625 3.425781 0.265625 2.875 0.265625 C 2.113281 0.265625 1.5 0.03125 1.03125 -0.4375 C 0.570312 -0.914062 0.34375 -1.625 0.34375 -2.5625 C 0.34375 -3.144531 0.425781 -3.78125 0.59375 -4.46875 C 0.769531 -5.15625 1.019531 -5.832031 1.34375 -6.5 C 1.675781 -7.175781 2.078125 -7.785156 2.546875 -8.328125 C 3.023438 -8.867188 3.566406 -9.304688 4.171875 -9.640625 C 4.773438 -9.972656 5.4375 -10.140625 6.15625 -10.140625 C 6.71875 -10.140625 7.203125 -9.992188 7.609375 -9.703125 C 8.015625 -9.421875 8.21875 -9.023438 8.21875 -8.515625 C 8.21875 -8.273438 8.164062 -8.035156 8.0625 -7.796875 C 7.957031 -7.554688 7.800781 -7.359375 7.59375 -7.203125 C 7.382812 -7.046875 7.140625 -6.96875 6.859375 -6.96875 C 6.585938 -6.96875 6.390625 -7.039062 6.265625 -7.1875 C 6.140625 -7.34375 6.078125 -7.519531 6.078125 -7.71875 C 6.078125 -8.09375 6.222656 -8.410156 6.515625 -8.671875 C 6.804688 -8.941406 7.140625 -9.109375 7.515625 -9.171875 C 7.390625 -9.347656 7.222656 -9.488281 7.015625 -9.59375 C 6.804688 -9.707031 6.535156 -9.765625 6.203125 -9.765625 Z M 6.203125 -9.765625 "/></g></g></g><g fill="#f6f4f1" fill-opacity="1"><g transform="translate(137.756229, 290.060079)"><g><path d="M 7.203125 -9.875 L 7.15625 -9.5 L 1.171875 -9.5 L 1.265625 -9.875 Z M 2.328125 -1.640625 C 2.210938 -1.210938 2.238281 -0.90625 2.40625 -0.71875 C 2.582031 -0.53125 2.8125 -0.4375 3.09375 -0.4375 C 3.375 -0.4375 3.65625 -0.554688 3.9375 -0.796875 C 4.226562 -1.046875 4.515625 -1.566406 4.796875 -2.359375 L 5.078125 -3.109375 L 5.4375 -3.109375 L 5.03125 -1.90625 C 4.75 -1.070312 4.382812 -0.5 3.9375 -0.1875 C 3.5 0.113281 2.988281 0.265625 2.40625 0.265625 C 1.875 0.265625 1.46875 0.15625 1.1875 -0.0625 C 0.914062 -0.289062 0.753906 -0.609375 0.703125 -1.015625 C 0.660156 -1.429688 0.710938 -1.898438 0.859375 -2.421875 L 3.84375 -12.796875 C 4.15625 -12.804688 4.457031 -12.832031 4.75 -12.875 C 5.050781 -12.914062 5.328125 -12.976562 5.578125 -13.0625 Z M 2.328125 -1.640625 "/></g></g></g><g fill="#f6f4f1" fill-opacity="1"><g transform="translate(145.174849, 290.060079)"><g><path d="M 2.53125 -0.34375 C 2.84375 -0.34375 3.195312 -0.535156 3.59375 -0.921875 C 3.988281 -1.316406 4.390625 -1.847656 4.796875 -2.515625 C 5.210938 -3.179688 5.59375 -3.9375 5.9375 -4.78125 C 6.28125 -5.625 6.554688 -6.503906 6.765625 -7.421875 L 6.4375 -5.34375 C 5.945312 -3.988281 5.457031 -2.894531 4.96875 -2.0625 C 4.488281 -1.238281 4 -0.644531 3.5 -0.28125 C 3 0.0820312 2.492188 0.265625 1.984375 0.265625 C 1.378906 0.265625 0.925781 0.0507812 0.625 -0.375 C 0.320312 -0.8125 0.171875 -1.375 0.171875 -2.0625 C 0.171875 -2.675781 0.269531 -3.34375 0.46875 -4.0625 C 0.675781 -4.789062 0.960938 -5.507812 1.328125 -6.21875 C 1.703125 -6.9375 2.125 -7.59375 2.59375 -8.1875 C 3.070312 -8.78125 3.585938 -9.253906 4.140625 -9.609375 C 4.703125 -9.960938 5.269531 -10.140625 5.84375 -10.140625 C 6.289062 -10.140625 6.628906 -9.921875 6.859375 -9.484375 C 7.097656 -9.046875 7.148438 -8.425781 7.015625 -7.625 L 6.796875 -7.515625 C 6.890625 -8.191406 6.847656 -8.738281 6.671875 -9.15625 C 6.492188 -9.570312 6.195312 -9.78125 5.78125 -9.78125 C 5.445312 -9.78125 5.097656 -9.613281 4.734375 -9.28125 C 4.367188 -8.957031 4.015625 -8.515625 3.671875 -7.953125 C 3.335938 -7.398438 3.03125 -6.773438 2.75 -6.078125 C 2.476562 -5.390625 2.257812 -4.675781 2.09375 -3.9375 C 1.9375 -3.207031 1.859375 -2.503906 1.859375 -1.828125 C 1.859375 -1.273438 1.921875 -0.890625 2.046875 -0.671875 C 2.171875 -0.453125 2.332031 -0.34375 2.53125 -0.34375 Z M 7.375 -9.875 C 7.6875 -9.882812 7.992188 -9.910156 8.296875 -9.953125 C 8.609375 -9.992188 8.890625 -10.054688 9.140625 -10.140625 L 6.75 -1.65625 C 6.71875 -1.539062 6.679688 -1.390625 6.640625 -1.203125 C 6.597656 -1.015625 6.597656 -0.84375 6.640625 -0.6875 C 6.679688 -0.539062 6.8125 -0.46875 7.03125 -0.46875 C 7.289062 -0.46875 7.539062 -0.609375 7.78125 -0.890625 C 8.03125 -1.171875 8.273438 -1.679688 8.515625 -2.421875 L 8.75 -3.125 L 9.109375 -3.125 L 8.625 -1.734375 C 8.445312 -1.210938 8.234375 -0.804688 7.984375 -0.515625 C 7.734375 -0.234375 7.472656 -0.0351562 7.203125 0.078125 C 6.929688 0.203125 6.671875 0.265625 6.421875 0.265625 C 5.921875 0.265625 5.566406 0.0976562 5.359375 -0.234375 C 5.191406 -0.523438 5.144531 -0.863281 5.21875 -1.25 C 5.300781 -1.644531 5.394531 -2.039062 5.5 -2.4375 Z M 7.375 -9.875 "/></g></g></g><g fill="#f6f4f1" fill-opacity="1"><g transform="translate(156.187372, 290.060079)"><g/></g></g><g fill="#f6f4f1" fill-opacity="1"><g transform="translate(162.010835, 290.060079)"><g><path d="M 7.203125 -9.875 L 7.15625 -9.5 L 1.171875 -9.5 L 1.265625 -9.875 Z M 2.328125 -1.640625 C 2.210938 -1.210938 2.238281 -0.90625 2.40625 -0.71875 C 2.582031 -0.53125 2.8125 -0.4375 3.09375 -0.4375 C 3.375 -0.4375 3.65625 -0.554688 3.9375 -0.796875 C 4.226562 -1.046875 4.515625 -1.566406 4.796875 -2.359375 L 5.078125 -3.109375 L 5.4375 -3.109375 L 5.03125 -1.90625 C 4.75 -1.070312 4.382812 -0.5 3.9375 -0.1875 C 3.5 0.113281 2.988281 0.265625 2.40625 0.265625 C 1.875 0.265625 1.46875 0.15625 1.1875 -0.0625 C 0.914062 -0.289062 0.753906 -0.609375 0.703125 -1.015625 C 0.660156 -1.429688 0.710938 -1.898438 0.859375 -2.421875 L 3.84375 -12.796875 C 4.15625 -12.804688 4.457031 -12.832031 4.75 -12.875 C 5.050781 -12.914062 5.328125 -12.976562 5.578125 -13.0625 Z M 2.328125 -1.640625 "/></g></g></g><g fill="#f6f4f1" fill-opacity="1"><g transform="translate(169.429456, 290.060079)"><g><path d="M 7.625 -6.65625 C 7.164062 -5.375 6.722656 -4.289062 6.296875 -3.40625 C 5.878906 -2.519531 5.460938 -1.804688 5.046875 -1.265625 C 4.628906 -0.734375 4.203125 -0.34375 3.765625 -0.09375 C 3.335938 0.144531 2.894531 0.265625 2.4375 0.265625 C 1.875 0.265625 1.460938 0.140625 1.203125 -0.109375 C 0.953125 -0.367188 0.828125 -0.71875 0.828125 -1.15625 C 0.828125 -1.59375 0.914062 -2.085938 1.09375 -2.640625 L 2.953125 -8.25 C 3.085938 -8.632812 3.132812 -8.925781 3.09375 -9.125 C 3.050781 -9.332031 2.90625 -9.4375 2.65625 -9.4375 C 2.40625 -9.4375 2.160156 -9.300781 1.921875 -9.03125 C 1.691406 -8.757812 1.441406 -8.238281 1.171875 -7.46875 L 0.921875 -6.765625 L 0.5625 -6.765625 L 1.03125 -8.171875 C 1.226562 -8.703125 1.457031 -9.109375 1.71875 -9.390625 C 1.976562 -9.679688 2.253906 -9.878906 2.546875 -9.984375 C 2.835938 -10.085938 3.109375 -10.140625 3.359375 -10.140625 C 3.921875 -10.140625 4.296875 -10.007812 4.484375 -9.75 C 4.671875 -9.488281 4.738281 -9.148438 4.6875 -8.734375 C 4.644531 -8.328125 4.550781 -7.898438 4.40625 -7.453125 L 2.578125 -1.953125 C 2.210938 -0.878906 2.351562 -0.34375 3 -0.34375 C 3.300781 -0.34375 3.625 -0.476562 3.96875 -0.75 C 4.320312 -1.03125 4.675781 -1.429688 5.03125 -1.953125 C 5.394531 -2.472656 5.75 -3.09375 6.09375 -3.8125 C 6.445312 -4.539062 6.785156 -5.347656 7.109375 -6.234375 C 7.441406 -7.128906 7.742188 -8.085938 8.015625 -9.109375 Z M 7.578125 -1.640625 C 7.484375 -1.285156 7.4375 -0.992188 7.4375 -0.765625 C 7.445312 -0.546875 7.582031 -0.4375 7.84375 -0.4375 C 8.125 -0.4375 8.378906 -0.585938 8.609375 -0.890625 C 8.847656 -1.191406 9.09375 -1.695312 9.34375 -2.40625 L 9.59375 -3.109375 L 9.953125 -3.109375 L 9.46875 -1.703125 C 9.289062 -1.171875 9.070312 -0.765625 8.8125 -0.484375 C 8.550781 -0.203125 8.273438 -0.0078125 7.984375 0.09375 C 7.691406 0.207031 7.414062 0.265625 7.15625 0.265625 C 6.945312 0.265625 6.75 0.21875 6.5625 0.125 C 6.382812 0.0390625 6.253906 -0.0820312 6.171875 -0.25 C 6.066406 -0.46875 6.03125 -0.742188 6.0625 -1.078125 C 6.09375 -1.410156 6.179688 -1.859375 6.328125 -2.421875 L 8.203125 -9.875 C 8.523438 -9.882812 8.835938 -9.910156 9.140625 -9.953125 C 9.441406 -9.992188 9.710938 -10.054688 9.953125 -10.140625 Z M 7.578125 -1.640625 "/></g></g></g><g fill="#f6f4f1" fill-opacity="1"><g transform="translate(181.287606, 290.060079)"><g/></g></g><g fill="#f6f4f1" fill-opacity="1"><g transform="translate(187.111069, 290.060079)"><g><path d="M 2.328125 0 L 0.65625 0 L 2.953125 -8.25 C 3.085938 -8.675781 3.128906 -8.976562 3.078125 -9.15625 C 3.035156 -9.34375 2.90625 -9.4375 2.6875 -9.4375 C 2.40625 -9.4375 2.148438 -9.285156 1.921875 -8.984375 C 1.691406 -8.691406 1.445312 -8.1875 1.1875 -7.46875 L 0.9375 -6.765625 L 0.578125 -6.765625 L 1.0625 -8.171875 C 1.25 -8.703125 1.472656 -9.109375 1.734375 -9.390625 C 2.003906 -9.679688 2.28125 -9.878906 2.5625 -9.984375 C 2.851562 -10.085938 3.125 -10.140625 3.375 -10.140625 C 3.757812 -10.140625 4.03125 -10.054688 4.1875 -9.890625 C 4.351562 -9.722656 4.445312 -9.503906 4.46875 -9.234375 C 4.488281 -8.972656 4.46875 -8.6875 4.40625 -8.375 C 4.351562 -8.0625 4.285156 -7.753906 4.203125 -7.453125 Z M 7.265625 -9.671875 C 6.972656 -9.671875 6.664062 -9.53125 6.34375 -9.25 C 6.03125 -8.976562 5.710938 -8.582031 5.390625 -8.0625 C 5.066406 -7.539062 4.738281 -6.914062 4.40625 -6.1875 C 4.082031 -5.46875 3.765625 -4.664062 3.453125 -3.78125 C 3.140625 -2.894531 2.832031 -1.941406 2.53125 -0.921875 L 3.015625 -3.375 C 3.441406 -4.632812 3.835938 -5.691406 4.203125 -6.546875 C 4.566406 -7.410156 4.925781 -8.109375 5.28125 -8.640625 C 5.644531 -9.171875 6.015625 -9.550781 6.390625 -9.78125 C 6.765625 -10.019531 7.164062 -10.140625 7.59375 -10.140625 C 7.945312 -10.140625 8.222656 -10.035156 8.421875 -9.828125 C 8.617188 -9.628906 8.71875 -9.367188 8.71875 -9.046875 C 8.71875 -8.796875 8.65625 -8.5625 8.53125 -8.34375 C 8.40625 -8.132812 8.242188 -7.96875 8.046875 -7.84375 C 7.847656 -7.726562 7.625 -7.671875 7.375 -7.671875 C 7.15625 -7.671875 6.972656 -7.726562 6.828125 -7.84375 C 6.679688 -7.96875 6.609375 -8.140625 6.609375 -8.359375 C 6.609375 -8.566406 6.644531 -8.75 6.71875 -8.90625 C 6.800781 -9.0625 6.90625 -9.195312 7.03125 -9.3125 C 7.15625 -9.4375 7.300781 -9.53125 7.46875 -9.59375 C 7.445312 -9.613281 7.421875 -9.628906 7.390625 -9.640625 C 7.359375 -9.660156 7.316406 -9.671875 7.265625 -9.671875 Z M 7.265625 -9.671875 "/></g></g></g><g fill="#f6f4f1" fill-opacity="1"><g transform="translate(196.259372, 290.060079)"><g><path d="M 1.609375 -4.359375 C 2.328125 -4.609375 2.976562 -4.847656 3.5625 -5.078125 C 4.144531 -5.316406 4.609375 -5.570312 4.953125 -5.84375 C 5.421875 -6.21875 5.785156 -6.664062 6.046875 -7.1875 C 6.316406 -7.707031 6.453125 -8.285156 6.453125 -8.921875 C 6.453125 -9.285156 6.425781 -9.519531 6.375 -9.625 C 6.320312 -9.726562 6.25 -9.78125 6.15625 -9.78125 C 5.832031 -9.78125 5.484375 -9.640625 5.109375 -9.359375 C 4.742188 -9.078125 4.378906 -8.6875 4.015625 -8.1875 C 3.660156 -7.695312 3.332031 -7.140625 3.03125 -6.515625 C 2.726562 -5.890625 2.484375 -5.21875 2.296875 -4.5 C 2.117188 -3.789062 2.03125 -3.085938 2.03125 -2.390625 C 2.03125 -1.734375 2.148438 -1.257812 2.390625 -0.96875 C 2.640625 -0.675781 2.960938 -0.53125 3.359375 -0.53125 C 3.828125 -0.53125 4.316406 -0.671875 4.828125 -0.953125 C 5.335938 -1.242188 5.835938 -1.742188 6.328125 -2.453125 L 6.625 -2.3125 C 6.382812 -1.882812 6.066406 -1.472656 5.671875 -1.078125 C 5.273438 -0.679688 4.828125 -0.359375 4.328125 -0.109375 C 3.835938 0.140625 3.316406 0.265625 2.765625 0.265625 C 2.253906 0.265625 1.804688 0.164062 1.421875 -0.03125 C 1.035156 -0.238281 0.738281 -0.546875 0.53125 -0.953125 C 0.332031 -1.359375 0.234375 -1.851562 0.234375 -2.4375 C 0.234375 -2.988281 0.332031 -3.609375 0.53125 -4.296875 C 0.738281 -4.984375 1.03125 -5.664062 1.40625 -6.34375 C 1.789062 -7.03125 2.242188 -7.660156 2.765625 -8.234375 C 3.296875 -8.816406 3.878906 -9.28125 4.515625 -9.625 C 5.160156 -9.96875 5.847656 -10.140625 6.578125 -10.140625 C 6.972656 -10.140625 7.304688 -10.035156 7.578125 -9.828125 C 7.859375 -9.617188 8 -9.300781 8 -8.875 C 8 -8.363281 7.847656 -7.882812 7.546875 -7.4375 C 7.242188 -7 6.84375 -6.597656 6.34375 -6.234375 C 5.851562 -5.867188 5.316406 -5.546875 4.734375 -5.265625 C 4.160156 -4.984375 3.597656 -4.738281 3.046875 -4.53125 C 2.503906 -4.332031 2.019531 -4.164062 1.59375 -4.03125 Z M 1.609375 -4.359375 "/></g></g></g><g fill="#f6f4f1" fill-opacity="1"><g transform="translate(205.465331, 290.060079)"><g><path d="M 1.140625 -0.28125 C 1.234375 -0.238281 1.34375 -0.195312 1.46875 -0.15625 C 1.59375 -0.125 1.773438 -0.109375 2.015625 -0.109375 C 2.578125 -0.109375 3.039062 -0.28125 3.40625 -0.625 C 3.769531 -0.96875 3.953125 -1.457031 3.953125 -2.09375 C 3.953125 -2.488281 3.878906 -2.878906 3.734375 -3.265625 C 3.585938 -3.660156 3.328125 -4.113281 2.953125 -4.625 C 2.660156 -5.039062 2.378906 -5.460938 2.109375 -5.890625 C 1.835938 -6.316406 1.703125 -6.828125 1.703125 -7.421875 C 1.703125 -7.972656 1.835938 -8.445312 2.109375 -8.84375 C 2.378906 -9.25 2.738281 -9.566406 3.1875 -9.796875 C 3.644531 -10.023438 4.144531 -10.140625 4.6875 -10.140625 C 5.0625 -10.140625 5.425781 -10.09375 5.78125 -10 C 6.144531 -9.914062 6.441406 -9.753906 6.671875 -9.515625 C 6.910156 -9.285156 7.03125 -8.9375 7.03125 -8.46875 C 7.03125 -8.351562 7 -8.21875 6.9375 -8.0625 C 6.882812 -7.90625 6.796875 -7.765625 6.671875 -7.640625 C 6.546875 -7.523438 6.375 -7.46875 6.15625 -7.46875 C 5.945312 -7.46875 5.765625 -7.539062 5.609375 -7.6875 C 5.453125 -7.84375 5.375 -8.039062 5.375 -8.28125 C 5.375 -8.507812 5.421875 -8.726562 5.515625 -8.9375 C 5.617188 -9.15625 5.753906 -9.367188 5.921875 -9.578125 C 5.671875 -9.722656 5.347656 -9.796875 4.953125 -9.796875 C 4.484375 -9.796875 4.085938 -9.632812 3.765625 -9.3125 C 3.441406 -9 3.28125 -8.550781 3.28125 -7.96875 C 3.28125 -7.675781 3.328125 -7.414062 3.421875 -7.1875 C 3.515625 -6.96875 3.644531 -6.734375 3.8125 -6.484375 C 3.988281 -6.242188 4.195312 -5.941406 4.4375 -5.578125 C 4.757812 -5.085938 5.03125 -4.617188 5.25 -4.171875 C 5.46875 -3.722656 5.578125 -3.25 5.578125 -2.75 C 5.578125 -2.15625 5.425781 -1.628906 5.125 -1.171875 C 4.820312 -0.722656 4.421875 -0.367188 3.921875 -0.109375 C 3.421875 0.140625 2.867188 0.265625 2.265625 0.265625 C 1.828125 0.265625 1.410156 0.203125 1.015625 0.078125 C 0.617188 -0.046875 0.296875 -0.242188 0.046875 -0.515625 C -0.203125 -0.796875 -0.328125 -1.171875 -0.328125 -1.640625 C -0.328125 -1.816406 -0.269531 -2.003906 -0.15625 -2.203125 C -0.0507812 -2.398438 0.140625 -2.5 0.421875 -2.5 C 0.734375 -2.5 0.953125 -2.375 1.078125 -2.125 C 1.203125 -1.875 1.265625 -1.59375 1.265625 -1.28125 C 1.265625 -1.082031 1.25 -0.898438 1.21875 -0.734375 C 1.1875 -0.578125 1.160156 -0.425781 1.140625 -0.28125 Z M 1.140625 -0.28125 "/></g></g></g><g fill="#f6f4f1" fill-opacity="1"><g transform="translate(213.748793, 290.060079)"><g><path d="M 7.203125 -9.875 L 7.15625 -9.5 L 1.171875 -9.5 L 1.265625 -9.875 Z M 2.328125 -1.640625 C 2.210938 -1.210938 2.238281 -0.90625 2.40625 -0.71875 C 2.582031 -0.53125 2.8125 -0.4375 3.09375 -0.4375 C 3.375 -0.4375 3.65625 -0.554688 3.9375 -0.796875 C 4.226562 -1.046875 4.515625 -1.566406 4.796875 -2.359375 L 5.078125 -3.109375 L 5.4375 -3.109375 L 5.03125 -1.90625 C 4.75 -1.070312 4.382812 -0.5 3.9375 -0.1875 C 3.5 0.113281 2.988281 0.265625 2.40625 0.265625 C 1.875 0.265625 1.46875 0.15625 1.1875 -0.0625 C 0.914062 -0.289062 0.753906 -0.609375 0.703125 -1.015625 C 0.660156 -1.429688 0.710938 -1.898438 0.859375 -2.421875 L 3.84375 -12.796875 C 4.15625 -12.804688 4.457031 -12.832031 4.75 -12.875 C 5.050781 -12.914062 5.328125 -12.976562 5.578125 -13.0625 Z M 2.328125 -1.640625 "/></g></g></g><g fill="#f6f4f1" fill-opacity="1"><g transform="translate(221.167413, 290.060079)"><g><path d="M 2.53125 -0.34375 C 2.84375 -0.34375 3.195312 -0.535156 3.59375 -0.921875 C 3.988281 -1.316406 4.390625 -1.847656 4.796875 -2.515625 C 5.210938 -3.179688 5.59375 -3.9375 5.9375 -4.78125 C 6.28125 -5.625 6.554688 -6.503906 6.765625 -7.421875 L 6.4375 -5.34375 C 5.945312 -3.988281 5.457031 -2.894531 4.96875 -2.0625 C 4.488281 -1.238281 4 -0.644531 3.5 -0.28125 C 3 0.0820312 2.492188 0.265625 1.984375 0.265625 C 1.378906 0.265625 0.925781 0.0507812 0.625 -0.375 C 0.320312 -0.8125 0.171875 -1.375 0.171875 -2.0625 C 0.171875 -2.675781 0.269531 -3.34375 0.46875 -4.0625 C 0.675781 -4.789062 0.960938 -5.507812 1.328125 -6.21875 C 1.703125 -6.9375 2.125 -7.59375 2.59375 -8.1875 C 3.070312 -8.78125 3.585938 -9.253906 4.140625 -9.609375 C 4.703125 -9.960938 5.269531 -10.140625 5.84375 -10.140625 C 6.289062 -10.140625 6.628906 -9.921875 6.859375 -9.484375 C 7.097656 -9.046875 7.148438 -8.425781 7.015625 -7.625 L 6.796875 -7.515625 C 6.890625 -8.191406 6.847656 -8.738281 6.671875 -9.15625 C 6.492188 -9.570312 6.195312 -9.78125 5.78125 -9.78125 C 5.445312 -9.78125 5.097656 -9.613281 4.734375 -9.28125 C 4.367188 -8.957031 4.015625 -8.515625 3.671875 -7.953125 C 3.335938 -7.398438 3.03125 -6.773438 2.75 -6.078125 C 2.476562 -5.390625 2.257812 -4.675781 2.09375 -3.9375 C 1.9375 -3.207031 1.859375 -2.503906 1.859375 -1.828125 C 1.859375 -1.273438 1.921875 -0.890625 2.046875 -0.671875 C 2.171875 -0.453125 2.332031 -0.34375 2.53125 -0.34375 Z M 7.375 -9.875 C 7.6875 -9.882812 7.992188 -9.910156 8.296875 -9.953125 C 8.609375 -9.992188 8.890625 -10.054688 9.140625 -10.140625 L 6.75 -1.65625 C 6.71875 -1.539062 6.679688 -1.390625 6.640625 -1.203125 C 6.597656 -1.015625 6.597656 -0.84375 6.640625 -0.6875 C 6.679688 -0.539062 6.8125 -0.46875 7.03125 -0.46875 C 7.289062 -0.46875 7.539062 -0.609375 7.78125 -0.890625 C 8.03125 -1.171875 8.273438 -1.679688 8.515625 -2.421875 L 8.75 -3.125 L 9.109375 -3.125 L 8.625 -1.734375 C 8.445312 -1.210938 8.234375 -0.804688 7.984375 -0.515625 C 7.734375 -0.234375 7.472656 -0.0351562 7.203125 0.078125 C 6.929688 0.203125 6.671875 0.265625 6.421875 0.265625 C 5.921875 0.265625 5.566406 0.0976562 5.359375 -0.234375 C 5.191406 -0.523438 5.144531 -0.863281 5.21875 -1.25 C 5.300781 -1.644531 5.394531 -2.039062 5.5 -2.4375 Z M 7.375 -9.875 "/></g></g></g><g fill="#f6f4f1" fill-opacity="1"><g transform="translate(232.179936, 290.060079)"><g><path d="M 7.625 -6.65625 C 7.164062 -5.375 6.722656 -4.289062 6.296875 -3.40625 C 5.878906 -2.519531 5.460938 -1.804688 5.046875 -1.265625 C 4.628906 -0.734375 4.203125 -0.34375 3.765625 -0.09375 C 3.335938 0.144531 2.894531 0.265625 2.4375 0.265625 C 1.875 0.265625 1.460938 0.140625 1.203125 -0.109375 C 0.953125 -0.367188 0.828125 -0.71875 0.828125 -1.15625 C 0.828125 -1.59375 0.914062 -2.085938 1.09375 -2.640625 L 2.953125 -8.25 C 3.085938 -8.632812 3.132812 -8.925781 3.09375 -9.125 C 3.050781 -9.332031 2.90625 -9.4375 2.65625 -9.4375 C 2.40625 -9.4375 2.160156 -9.300781 1.921875 -9.03125 C 1.691406 -8.757812 1.441406 -8.238281 1.171875 -7.46875 L 0.921875 -6.765625 L 0.5625 -6.765625 L 1.03125 -8.171875 C 1.226562 -8.703125 1.457031 -9.109375 1.71875 -9.390625 C 1.976562 -9.679688 2.253906 -9.878906 2.546875 -9.984375 C 2.835938 -10.085938 3.109375 -10.140625 3.359375 -10.140625 C 3.921875 -10.140625 4.296875 -10.007812 4.484375 -9.75 C 4.671875 -9.488281 4.738281 -9.148438 4.6875 -8.734375 C 4.644531 -8.328125 4.550781 -7.898438 4.40625 -7.453125 L 2.578125 -1.953125 C 2.210938 -0.878906 2.351562 -0.34375 3 -0.34375 C 3.300781 -0.34375 3.625 -0.476562 3.96875 -0.75 C 4.320312 -1.03125 4.675781 -1.429688 5.03125 -1.953125 C 5.394531 -2.472656 5.75 -3.09375 6.09375 -3.8125 C 6.445312 -4.539062 6.785156 -5.347656 7.109375 -6.234375 C 7.441406 -7.128906 7.742188 -8.085938 8.015625 -9.109375 Z M 7.578125 -1.640625 C 7.484375 -1.285156 7.4375 -0.992188 7.4375 -0.765625 C 7.445312 -0.546875 7.582031 -0.4375 7.84375 -0.4375 C 8.125 -0.4375 8.378906 -0.585938 8.609375 -0.890625 C 8.847656 -1.191406 9.09375 -1.695312 9.34375 -2.40625 L 9.59375 -3.109375 L 9.953125 -3.109375 L 9.46875 -1.703125 C 9.289062 -1.171875 9.070312 -0.765625 8.8125 -0.484375 C 8.550781 -0.203125 8.273438 -0.0078125 7.984375 0.09375 C 7.691406 0.207031 7.414062 0.265625 7.15625 0.265625 C 6.945312 0.265625 6.75 0.21875 6.5625 0.125 C 6.382812 0.0390625 6.253906 -0.0820312 6.171875 -0.25 C 6.066406 -0.46875 6.03125 -0.742188 6.0625 -1.078125 C 6.09375 -1.410156 6.179688 -1.859375 6.328125 -2.421875 L 8.203125 -9.875 C 8.523438 -9.882812 8.835938 -9.910156 9.140625 -9.953125 C 9.441406 -9.992188 9.710938 -10.054688 9.953125 -10.140625 Z M 7.578125 -1.640625 "/></g></g></g><g fill="#f6f4f1" fill-opacity="1"><g transform="translate(244.038086, 290.060079)"><g><path d="M 2.328125 0 L 0.65625 0 L 2.953125 -8.25 C 3.085938 -8.675781 3.128906 -8.976562 3.078125 -9.15625 C 3.035156 -9.34375 2.90625 -9.4375 2.6875 -9.4375 C 2.40625 -9.4375 2.148438 -9.285156 1.921875 -8.984375 C 1.691406 -8.691406 1.445312 -8.1875 1.1875 -7.46875 L 0.9375 -6.765625 L 0.578125 -6.765625 L 1.0625 -8.171875 C 1.25 -8.703125 1.472656 -9.109375 1.734375 -9.390625 C 2.003906 -9.679688 2.28125 -9.878906 2.5625 -9.984375 C 2.851562 -10.085938 3.125 -10.140625 3.375 -10.140625 C 3.757812 -10.140625 4.03125 -10.054688 4.1875 -9.890625 C 4.351562 -9.722656 4.445312 -9.503906 4.46875 -9.234375 C 4.488281 -8.972656 4.46875 -8.6875 4.40625 -8.375 C 4.351562 -8.0625 4.285156 -7.753906 4.203125 -7.453125 Z M 7.265625 -9.671875 C 6.972656 -9.671875 6.664062 -9.53125 6.34375 -9.25 C 6.03125 -8.976562 5.710938 -8.582031 5.390625 -8.0625 C 5.066406 -7.539062 4.738281 -6.914062 4.40625 -6.1875 C 4.082031 -5.46875 3.765625 -4.664062 3.453125 -3.78125 C 3.140625 -2.894531 2.832031 -1.941406 2.53125 -0.921875 L 3.015625 -3.375 C 3.441406 -4.632812 3.835938 -5.691406 4.203125 -6.546875 C 4.566406 -7.410156 4.925781 -8.109375 5.28125 -8.640625 C 5.644531 -9.171875 6.015625 -9.550781 6.390625 -9.78125 C 6.765625 -10.019531 7.164062 -10.140625 7.59375 -10.140625 C 7.945312 -10.140625 8.222656 -10.035156 8.421875 -9.828125 C 8.617188 -9.628906 8.71875 -9.367188 8.71875 -9.046875 C 8.71875 -8.796875 8.65625 -8.5625 8.53125 -8.34375 C 8.40625 -8.132812 8.242188 -7.96875 8.046875 -7.84375 C 7.847656 -7.726562 7.625 -7.671875 7.375 -7.671875 C 7.15625 -7.671875 6.972656 -7.726562 6.828125 -7.84375 C 6.679688 -7.96875 6.609375 -8.140625 6.609375 -8.359375 C 6.609375 -8.566406 6.644531 -8.75 6.71875 -8.90625 C 6.800781 -9.0625 6.90625 -9.195312 7.03125 -9.3125 C 7.15625 -9.4375 7.300781 -9.53125 7.46875 -9.59375 C 7.445312 -9.613281 7.421875 -9.628906 7.390625 -9.640625 C 7.359375 -9.660156 7.316406 -9.671875 7.265625 -9.671875 Z M 7.265625 -9.671875 "/></g></g></g><g fill="#f6f4f1" fill-opacity="1"><g transform="translate(253.186389, 290.060079)"><g><path d="M 2.53125 -0.34375 C 2.84375 -0.34375 3.195312 -0.535156 3.59375 -0.921875 C 3.988281 -1.316406 4.390625 -1.847656 4.796875 -2.515625 C 5.210938 -3.179688 5.59375 -3.9375 5.9375 -4.78125 C 6.28125 -5.625 6.554688 -6.503906 6.765625 -7.421875 L 6.4375 -5.34375 C 5.945312 -3.988281 5.457031 -2.894531 4.96875 -2.0625 C 4.488281 -1.238281 4 -0.644531 3.5 -0.28125 C 3 0.0820312 2.492188 0.265625 1.984375 0.265625 C 1.378906 0.265625 0.925781 0.0507812 0.625 -0.375 C 0.320312 -0.8125 0.171875 -1.375 0.171875 -2.0625 C 0.171875 -2.675781 0.269531 -3.34375 0.46875 -4.0625 C 0.675781 -4.789062 0.960938 -5.507812 1.328125 -6.21875 C 1.703125 -6.9375 2.125 -7.59375 2.59375 -8.1875 C 3.070312 -8.78125 3.585938 -9.253906 4.140625 -9.609375 C 4.703125 -9.960938 5.269531 -10.140625 5.84375 -10.140625 C 6.289062 -10.140625 6.628906 -9.921875 6.859375 -9.484375 C 7.097656 -9.046875 7.148438 -8.425781 7.015625 -7.625 L 6.796875 -7.515625 C 6.890625 -8.191406 6.847656 -8.738281 6.671875 -9.15625 C 6.492188 -9.570312 6.195312 -9.78125 5.78125 -9.78125 C 5.445312 -9.78125 5.097656 -9.613281 4.734375 -9.28125 C 4.367188 -8.957031 4.015625 -8.515625 3.671875 -7.953125 C 3.335938 -7.398438 3.03125 -6.773438 2.75 -6.078125 C 2.476562 -5.390625 2.257812 -4.675781 2.09375 -3.9375 C 1.9375 -3.207031 1.859375 -2.503906 1.859375 -1.828125 C 1.859375 -1.273438 1.921875 -0.890625 2.046875 -0.671875 C 2.171875 -0.453125 2.332031 -0.34375 2.53125 -0.34375 Z M 7.375 -9.875 C 7.6875 -9.882812 7.992188 -9.910156 8.296875 -9.953125 C 8.609375 -9.992188 8.890625 -10.054688 9.140625 -10.140625 L 6.75 -1.65625 C 6.71875 -1.539062 6.679688 -1.390625 6.640625 -1.203125 C 6.597656 -1.015625 6.597656 -0.84375 6.640625 -0.6875 C 6.679688 -0.539062 6.8125 -0.46875 7.03125 -0.46875 C 7.289062 -0.46875 7.539062 -0.609375 7.78125 -0.890625 C 8.03125 -1.171875 8.273438 -1.679688 8.515625 -2.421875 L 8.75 -3.125 L 9.109375 -3.125 L 8.625 -1.734375 C 8.445312 -1.210938 8.234375 -0.804688 7.984375 -0.515625 C 7.734375 -0.234375 7.472656 -0.0351562 7.203125 0.078125 C 6.929688 0.203125 6.671875 0.265625 6.421875 0.265625 C 5.921875 0.265625 5.566406 0.0976562 5.359375 -0.234375 C 5.191406 -0.523438 5.144531 -0.863281 5.21875 -1.25 C 5.300781 -1.644531 5.394531 -2.039062 5.5 -2.4375 Z M 7.375 -9.875 "/></g></g></g><g fill="#f6f4f1" fill-opacity="1"><g transform="translate(264.198912, 290.060079)"><g><path d="M 2.34375 0 L 0.671875 0 L 2.984375 -8.25 C 3.035156 -8.394531 3.078125 -8.5625 3.109375 -8.75 C 3.140625 -8.9375 3.128906 -9.097656 3.078125 -9.234375 C 3.023438 -9.367188 2.894531 -9.4375 2.6875 -9.4375 C 2.40625 -9.4375 2.15625 -9.296875 1.9375 -9.015625 C 1.71875 -8.742188 1.472656 -8.226562 1.203125 -7.46875 L 0.953125 -6.765625 L 0.59375 -6.765625 L 1.078125 -8.171875 C 1.359375 -8.972656 1.707031 -9.5 2.125 -9.75 C 2.539062 -10.007812 2.953125 -10.140625 3.359375 -10.140625 C 3.742188 -10.140625 4.019531 -10.054688 4.1875 -9.890625 C 4.363281 -9.722656 4.460938 -9.507812 4.484375 -9.25 C 4.503906 -8.988281 4.484375 -8.703125 4.421875 -8.390625 C 4.367188 -8.078125 4.304688 -7.765625 4.234375 -7.453125 Z M 3.234375 -4 C 3.679688 -5.15625 4.113281 -6.125 4.53125 -6.90625 C 4.957031 -7.6875 5.375 -8.316406 5.78125 -8.796875 C 6.195312 -9.273438 6.617188 -9.617188 7.046875 -9.828125 C 7.472656 -10.035156 7.914062 -10.140625 8.375 -10.140625 C 8.976562 -10.140625 9.390625 -9.992188 9.609375 -9.703125 C 9.835938 -9.421875 9.9375 -9.054688 9.90625 -8.609375 C 9.882812 -8.171875 9.796875 -7.71875 9.640625 -7.25 L 7.78125 -1.640625 C 7.664062 -1.285156 7.617188 -0.992188 7.640625 -0.765625 C 7.660156 -0.546875 7.8125 -0.4375 8.09375 -0.4375 C 8.332031 -0.4375 8.570312 -0.570312 8.8125 -0.84375 C 9.050781 -1.113281 9.304688 -1.632812 9.578125 -2.40625 L 9.828125 -3.109375 L 10.1875 -3.109375 L 9.703125 -1.703125 C 9.523438 -1.171875 9.300781 -0.765625 9.03125 -0.484375 C 8.769531 -0.203125 8.492188 -0.0078125 8.203125 0.09375 C 7.921875 0.207031 7.644531 0.265625 7.375 0.265625 C 7.070312 0.265625 6.820312 0.210938 6.625 0.109375 C 6.425781 0.015625 6.273438 -0.113281 6.171875 -0.28125 C 6.023438 -0.519531 5.976562 -0.820312 6.03125 -1.1875 C 6.082031 -1.5625 6.1875 -1.972656 6.34375 -2.421875 L 8.171875 -7.921875 C 8.234375 -8.097656 8.285156 -8.3125 8.328125 -8.5625 C 8.378906 -8.8125 8.367188 -9.035156 8.296875 -9.234375 C 8.234375 -9.429688 8.050781 -9.53125 7.75 -9.53125 C 7.4375 -9.53125 7.109375 -9.394531 6.765625 -9.125 C 6.421875 -8.851562 6.0625 -8.472656 5.6875 -7.984375 C 5.3125 -7.492188 4.945312 -6.90625 4.59375 -6.21875 C 4.238281 -5.53125 3.894531 -4.769531 3.5625 -3.9375 C 3.238281 -3.113281 2.941406 -2.238281 2.671875 -1.3125 Z M 3.234375 -4 "/></g></g></g><g fill="#f6f4f1" fill-opacity="1"><g transform="translate(276.306887, 290.060079)"><g><path d="M 7.203125 -9.875 L 7.15625 -9.5 L 1.171875 -9.5 L 1.265625 -9.875 Z M 2.328125 -1.640625 C 2.210938 -1.210938 2.238281 -0.90625 2.40625 -0.71875 C 2.582031 -0.53125 2.8125 -0.4375 3.09375 -0.4375 C 3.375 -0.4375 3.65625 -0.554688 3.9375 -0.796875 C 4.226562 -1.046875 4.515625 -1.566406 4.796875 -2.359375 L 5.078125 -3.109375 L 5.4375 -3.109375 L 5.03125 -1.90625 C 4.75 -1.070312 4.382812 -0.5 3.9375 -0.1875 C 3.5 0.113281 2.988281 0.265625 2.40625 0.265625 C 1.875 0.265625 1.46875 0.15625 1.1875 -0.0625 C 0.914062 -0.289062 0.753906 -0.609375 0.703125 -1.015625 C 0.660156 -1.429688 0.710938 -1.898438 0.859375 -2.421875 L 3.84375 -12.796875 C 4.15625 -12.804688 4.457031 -12.832031 4.75 -12.875 C 5.050781 -12.914062 5.328125 -12.976562 5.578125 -13.0625 Z M 2.328125 -1.640625 "/></g></g></g><g fill="#f6f4f1" fill-opacity="1"><g transform="translate(283.725519, 290.060079)"><g><path d="M 1.609375 -4.359375 C 2.328125 -4.609375 2.976562 -4.847656 3.5625 -5.078125 C 4.144531 -5.316406 4.609375 -5.570312 4.953125 -5.84375 C 5.421875 -6.21875 5.785156 -6.664062 6.046875 -7.1875 C 6.316406 -7.707031 6.453125 -8.285156 6.453125 -8.921875 C 6.453125 -9.285156 6.425781 -9.519531 6.375 -9.625 C 6.320312 -9.726562 6.25 -9.78125 6.15625 -9.78125 C 5.832031 -9.78125 5.484375 -9.640625 5.109375 -9.359375 C 4.742188 -9.078125 4.378906 -8.6875 4.015625 -8.1875 C 3.660156 -7.695312 3.332031 -7.140625 3.03125 -6.515625 C 2.726562 -5.890625 2.484375 -5.21875 2.296875 -4.5 C 2.117188 -3.789062 2.03125 -3.085938 2.03125 -2.390625 C 2.03125 -1.734375 2.148438 -1.257812 2.390625 -0.96875 C 2.640625 -0.675781 2.960938 -0.53125 3.359375 -0.53125 C 3.828125 -0.53125 4.316406 -0.671875 4.828125 -0.953125 C 5.335938 -1.242188 5.835938 -1.742188 6.328125 -2.453125 L 6.625 -2.3125 C 6.382812 -1.882812 6.066406 -1.472656 5.671875 -1.078125 C 5.273438 -0.679688 4.828125 -0.359375 4.328125 -0.109375 C 3.835938 0.140625 3.316406 0.265625 2.765625 0.265625 C 2.253906 0.265625 1.804688 0.164062 1.421875 -0.03125 C 1.035156 -0.238281 0.738281 -0.546875 0.53125 -0.953125 C 0.332031 -1.359375 0.234375 -1.851562 0.234375 -2.4375 C 0.234375 -2.988281 0.332031 -3.609375 0.53125 -4.296875 C 0.738281 -4.984375 1.03125 -5.664062 1.40625 -6.34375 C 1.789062 -7.03125 2.242188 -7.660156 2.765625 -8.234375 C 3.296875 -8.816406 3.878906 -9.28125 4.515625 -9.625 C 5.160156 -9.96875 5.847656 -10.140625 6.578125 -10.140625 C 6.972656 -10.140625 7.304688 -10.035156 7.578125 -9.828125 C 7.859375 -9.617188 8 -9.300781 8 -8.875 C 8 -8.363281 7.847656 -7.882812 7.546875 -7.4375 C 7.242188 -7 6.84375 -6.597656 6.34375 -6.234375 C 5.851562 -5.867188 5.316406 -5.546875 4.734375 -5.265625 C 4.160156 -4.984375 3.597656 -4.738281 3.046875 -4.53125 C 2.503906 -4.332031 2.019531 -4.164062 1.59375 -4.03125 Z M 1.609375 -4.359375 "/></g></g></g></svg>